# This file uses centimeters as units for non-parametric coordinates.

mtllib cabinet_small.mtl
g default
v -220.000000 599.999756 15.690002
v -220.000000 -600.000549 15.690002
v -220.000000 599.999756 805.689941
v -220.000000 -600.000610 805.689941
v 220.000000 599.999756 805.689941
v 220.000000 -600.000610 805.689941
v 220.000000 599.999756 15.690002
v 220.000000 -600.000549 15.690002
v -220.000000 599.999695 65.689926
v -220.000000 -600.000549 65.689964
v 220.000000 -600.000549 65.689964
v 220.000000 599.999756 65.689964
v 220.000000 599.999756 780.689941
v 220.000000 -600.000610 780.689941
v -220.000000 -600.000610 780.689941
v -220.000000 599.999756 780.689941
v -220.000000 -575.000427 15.690002
v 220.000000 -575.000427 15.690002
v 220.000000 -575.000427 65.689964
v 220.000000 -575.000366 780.689941
v 220.000000 -575.000427 805.689941
v -220.000000 -575.000427 805.689941
v -220.000000 -575.000366 780.689941
v -220.000000 -575.000427 65.689964
v -220.000000 574.999512 15.690002
v 220.000000 574.999512 15.690002
v 220.000000 574.999512 65.689926
v 220.000000 574.999573 780.689941
v 220.000000 574.999512 805.689941
v -220.000000 574.999512 805.689941
v -220.000000 574.999573 780.689941
v -220.000000 574.999512 65.689964
v 195.000046 574.999573 780.690002
v 195.000046 574.999512 65.689941
v 195.000046 -575.000427 65.689941
v 195.000046 -575.000366 780.689880
v 215.000000 574.999512 65.689957
v 215.000000 574.999573 780.689941
v 215.000000 -575.000366 780.689880
v 215.000000 -575.000427 65.689957
vt 0.375000 0.000000
vt 0.625000 0.000000
vt 0.375000 0.250000
vt 0.625000 0.250000
vt 0.375000 0.500000
vt 0.625000 0.500000
vt 0.375000 0.750000
vt 0.625000 0.750000
vt 0.375000 1.000000
vt 0.625000 1.000000
vt 0.875000 0.000000
vt 0.875000 0.250000
vt 0.125000 0.000000
vt 0.125000 0.250000
vt 0.375000 0.125000
vt 0.625000 0.125000
vt 0.625000 0.625000
vt 0.875000 0.125000
vt 0.125000 0.125000
vt 0.375000 0.625000
vt 0.125000 0.187500
vt 0.375000 0.562500
vt 0.625000 0.562500
vt 0.875000 0.187500
vt 0.625000 0.187500
vt 0.375000 0.187500
vt 0.500000 0.000000
vt 0.500000 1.000000
vt 0.500000 0.750000
vt 0.500000 0.625000
vt 0.500000 0.562500
vt 0.500000 0.500000
vt 0.500000 0.250000
vt 0.500000 0.187500
vt 0.500000 0.125000
vt 0.437500 0.000000
vt 0.437500 1.000000
vt 0.437500 0.750000
vt 0.437500 0.625000
vt 0.437500 0.562500
vt 0.437500 0.500000
vt 0.437500 0.250000
vt 0.437500 0.187500
vt 0.437500 0.125000
vt 0.437500 0.187500
vt 0.437500 0.125000
vt 0.500000 0.125000
vt 0.500000 0.187500
vt 0.437500 0.625000
vt 0.437500 0.562500
vt 0.500000 0.562500
vt 0.500000 0.625000
vn -1.000000 -0.000000 0.000000
vn -1.000000 -0.000000 0.000000
vn -1.000000 -0.000000 0.000000
vn -1.000000 -0.000000 0.000000
vn 0.000000 0.000000 1.000000
vn 0.000000 0.000000 1.000000
vn 0.000000 0.000000 1.000000
vn 0.000000 0.000000 1.000000
vn 1.000000 0.000000 -0.000000
vn 1.000000 0.000000 -0.000000
vn 1.000000 0.000000 -0.000000
vn 1.000000 0.000000 -0.000000
vn -0.000000 -0.000000 -1.000000
vn -0.000000 -0.000000 -1.000000
vn -0.000000 -0.000000 -1.000000
vn -0.000000 -0.000000 -1.000000
vn 0.000000 -1.000000 0.000000
vn 0.000000 -1.000000 0.000000
vn 0.000000 -1.000000 0.000000
vn 0.000000 -1.000000 0.000000
vn -0.000000 1.000000 -0.000000
vn -0.000000 1.000000 -0.000000
vn -0.000000 1.000000 -0.000000
vn -0.000000 1.000000 -0.000000
vn -1.000000 -0.000000 0.000000
vn -1.000000 -0.000000 0.000000
vn -1.000000 -0.000000 0.000000
vn -1.000000 -0.000000 0.000000
vn 0.000000 -1.000000 0.000000
vn 0.000000 -1.000000 0.000000
vn 0.000000 -1.000000 0.000000
vn 0.000000 -1.000000 0.000000
vn 1.000000 0.000000 -0.000000
vn 1.000000 0.000000 -0.000000
vn 1.000000 0.000000 -0.000000
vn 1.000000 0.000000 -0.000000
vn -0.000000 1.000000 -0.000000
vn -0.000000 1.000000 -0.000000
vn -0.000000 1.000000 -0.000000
vn -0.000000 1.000000 -0.000000
vn 1.000000 0.000000 -0.000000
vn 1.000000 0.000000 -0.000000
vn 1.000000 0.000000 -0.000000
vn 1.000000 0.000000 -0.000000
vn 0.000000 -1.000000 0.000000
vn 0.000000 -1.000000 0.000000
vn 0.000000 -1.000000 0.000000
vn 0.000000 -1.000000 0.000000
vn -1.000000 -0.000000 0.000000
vn -1.000000 -0.000000 0.000000
vn -1.000000 -0.000000 0.000000
vn -1.000000 -0.000000 0.000000
vn -0.000000 1.000000 -0.000000
vn -0.000000 1.000000 -0.000000
vn -0.000000 1.000000 -0.000000
vn -0.000000 1.000000 -0.000000
vn -0.000000 -0.000000 -1.000000
vn -0.000000 -0.000000 -1.000000
vn -0.000000 -0.000000 -1.000000
vn -0.000000 -0.000000 -1.000000
vn 1.000000 0.000000 -0.000000
vn 1.000000 0.000000 -0.000000
vn 1.000000 0.000000 -0.000000
vn 1.000000 0.000000 -0.000000
vn 1.000000 0.000000 -0.000000
vn 1.000000 0.000000 -0.000000
vn 1.000000 0.000000 -0.000000
vn 1.000000 0.000000 -0.000000
vn 1.000000 0.000000 -0.000000
vn 1.000000 0.000000 -0.000000
vn 1.000000 0.000000 -0.000000
vn 1.000000 0.000000 -0.000000
vn 0.000000 0.000000 1.000000
vn 0.000000 0.000000 1.000000
vn 0.000000 0.000000 1.000000
vn 0.000000 0.000000 1.000000
vn -1.000000 -0.000000 0.000000
vn -1.000000 -0.000000 0.000000
vn -1.000000 -0.000000 0.000000
vn -1.000000 -0.000000 0.000000
vn -1.000000 -0.000000 0.000000
vn -1.000000 -0.000000 0.000000
vn -1.000000 -0.000000 0.000000
vn -1.000000 -0.000000 0.000000
vn -1.000000 -0.000000 0.000000
vn -1.000000 -0.000000 0.000000
vn -1.000000 -0.000000 0.000000
vn -1.000000 -0.000000 0.000000
vn -0.000000 -0.000000 -1.000000
vn -0.000000 -0.000000 -1.000000
vn -0.000000 -0.000000 -1.000000
vn -0.000000 -0.000000 -1.000000
vn 1.000000 0.000000 -0.000000
vn 1.000000 0.000000 -0.000000
vn 1.000000 0.000000 -0.000000
vn 1.000000 0.000000 -0.000000
vn 1.000000 0.000000 -0.000000
vn 1.000000 0.000000 -0.000000
vn 1.000000 0.000000 -0.000000
vn 1.000000 0.000000 -0.000000
vn 1.000000 0.000000 -0.000000
vn 1.000000 0.000000 -0.000000
vn 1.000000 0.000000 -0.000000
vn 1.000000 0.000000 -0.000000
vn 0.000000 0.000000 1.000000
vn 0.000000 0.000000 1.000000
vn 0.000000 0.000000 1.000000
vn 0.000000 0.000000 1.000000
vn -1.000000 -0.000000 0.000000
vn -1.000000 -0.000000 0.000000
vn -1.000000 -0.000000 0.000000
vn -1.000000 -0.000000 0.000000
vn -1.000000 -0.000000 0.000000
vn -1.000000 -0.000000 0.000000
vn -1.000000 -0.000000 0.000000
vn -1.000000 -0.000000 0.000000
vn -1.000000 -0.000000 0.000000
vn -1.000000 -0.000000 0.000000
vn -1.000000 -0.000000 0.000000
vn -1.000000 -0.000000 0.000000
vn 0.000000 -1.000000 0.000000
vn 0.000000 -1.000000 0.000000
vn 0.000000 -1.000000 0.000000
vn 0.000000 -1.000000 0.000000
vn 0.000000 0.000000 1.000000
vn 0.000000 0.000000 1.000000
vn 0.000000 0.000000 1.000000
vn 0.000000 0.000000 1.000000
vn -0.000000 1.000000 -0.000000
vn -0.000000 1.000000 -0.000000
vn -0.000000 1.000000 -0.000000
vn -0.000000 1.000000 -0.000000
vn -0.000000 -0.000000 -1.000000
vn -0.000000 -0.000000 -1.000000
vn -0.000000 -0.000000 -1.000000
vn -0.000000 -0.000000 -1.000000
vn 0.000000 -1.000000 0.000000
vn 0.000000 -1.000000 0.000000
vn 0.000000 -1.000000 0.000000
vn 0.000000 -1.000000 0.000000
vn -0.000000 -0.000000 -1.000000
vn -0.000000 -0.000000 -1.000000
vn -0.000000 -0.000000 -1.000000
vn -0.000000 -0.000000 -1.000000
vn -0.000000 1.000000 -0.000000
vn -0.000000 1.000000 -0.000000
vn -0.000000 1.000000 -0.000000
vn -0.000000 1.000000 -0.000000
vn 0.000000 0.000000 1.000000
vn 0.000000 0.000000 1.000000
vn 0.000000 0.000000 1.000000
vn 0.000000 0.000000 1.000000
s 1
g Cabinet_small
usemtl CabinetSG
f 23/34/1 24/35/2 15/25/3
f 15/25/3 24/35/2 10/16/4
s 2
f 21/32/5 22/33/6 6/6/7
f 6/6/7 22/33/6 4/4/8
s 3
f 19/30/9 20/31/10 11/17/11
f 11/17/11 20/31/10 14/23/12
s 4
f 17/28/13 18/29/14 2/10/15
f 2/10/15 18/29/14 8/8/16
s 5
f 10/16/17 11/18/18 15/25/19
f 15/25/19 11/18/18 14/24/20
s 6
f 12/19/21 9/15/22 13/21/23
f 13/21/23 9/15/22 16/26/24
s 7
f 24/35/25 17/27/26 10/16/27
f 10/16/27 17/27/26 2/2/28
s 8
f 2/2/29 8/11/30 10/16/31
f 10/16/31 8/11/30 11/18/32
s 9
f 18/29/33 19/30/34 8/8/35
f 8/8/35 19/30/34 11/17/36
s 10
f 7/13/37 1/1/38 12/19/39
f 12/19/39 1/1/38 9/15/40
s 11
f 20/31/41 21/32/42 14/23/43
f 14/23/43 21/32/42 6/6/44
s 12
f 15/25/45 14/24/46 4/4/47
f 4/4/47 14/24/46 6/12/48
s 13
f 22/33/49 23/34/50 4/4/51
f 4/4/51 23/34/50 15/25/52
s 14
f 13/21/53 16/26/54 5/14/55
f 5/14/55 16/26/54 3/3/56
s 15
f 25/37/57 26/38/58 17/28/59
f 17/28/59 26/38/58 18/29/60
s 16
f 26/38/61 27/39/62 18/29/63
f 18/29/63 27/39/62 19/30/64
s 17
f 37/49/65 38/50/66 40/52/67
f 40/52/67 38/50/66 39/51/68
s 18
f 28/40/69 29/41/70 20/31/71
f 20/31/71 29/41/70 21/32/72
s 19
f 29/41/73 30/42/74 21/32/75
f 21/32/75 30/42/74 22/33/76
s 20
f 30/42/77 31/43/78 22/33/79
f 22/33/79 31/43/78 23/34/80
s 21
f 33/45/81 34/46/82 36/48/83
f 36/48/83 34/46/82 35/47/84
s 22
f 32/44/85 25/36/86 24/35/87
f 24/35/87 25/36/86 17/27/88
s 23
f 7/7/89 26/38/90 1/9/91
f 1/9/91 26/38/90 25/37/92
s 24
f 12/20/93 27/39/94 7/7/95
f 7/7/95 27/39/94 26/38/96
s 25
f 13/22/97 28/40/98 12/20/99
f 12/20/99 28/40/98 27/39/100
s 26
f 5/5/101 29/41/102 13/22/103
f 13/22/103 29/41/102 28/40/104
s 27
f 3/3/105 30/42/106 5/5/107
f 5/5/107 30/42/106 29/41/108
s 28
f 16/26/109 31/43/110 3/3/111
f 3/3/111 31/43/110 30/42/112
s 29
f 9/15/113 32/44/114 16/26/115
f 16/26/115 32/44/114 31/43/116
s 30
f 1/1/117 25/36/118 9/15/119
f 9/15/119 25/36/118 32/44/120
s 31
f 31/43/121 32/44/122 33/45/123
f 33/45/123 32/44/122 34/46/124
s 32
f 32/44/125 24/35/126 34/46/127
f 34/46/127 24/35/126 35/47/128
s 33
f 24/35/129 23/34/130 35/47/131
f 35/47/131 23/34/130 36/48/132
s 34
f 23/34/133 31/43/134 36/48/135
f 36/48/135 31/43/134 33/45/136
s 35
f 27/39/137 28/40/138 37/49/139
f 37/49/139 28/40/138 38/50/140
s 36
f 28/40/141 20/31/142 38/50/143
f 38/50/143 20/31/142 39/51/144
s 37
f 20/31/145 19/30/146 39/51/147
f 39/51/147 19/30/146 40/52/148
s 38
f 19/30/149 27/39/150 40/52/151
f 40/52/151 27/39/150 37/49/152
