# This file uses centimeters as units for non-parametric coordinates.

mtllib side_table.mtl
g default
v 227.500000 -227.500000 0.000000
v 227.500000 227.500000 0.000000
v 227.500000 -227.500000 500.000000
v 227.500000 227.500000 500.000000
v -227.499985 -227.500000 500.000000
v -227.499985 227.500000 500.000000
v -227.499985 -227.500000 0.000000
v -227.499985 227.500000 0.000000
v 227.500000 -227.500000 300.000031
v 227.500000 227.500000 300.000031
v -227.499985 227.500000 300.000031
v -227.499985 -227.500000 300.000031
v -202.500000 -227.500000 500.000000
v -202.500000 227.500000 500.000000
v -202.500000 227.500000 300.000031
v -202.500000 227.500000 0.000000
v -202.500000 -227.500000 0.000000
v -202.500000 -227.500000 300.000031
v 202.500000 -227.500000 500.000000
v 202.500000 227.500000 500.000000
v 202.500000 227.500000 300.000031
v 202.500000 227.500000 -0.000000
v 202.500000 -227.500000 -0.000000
v 202.500000 -227.500000 300.000031
v 227.500000 -227.500000 14.999999
v 227.500000 227.500000 15.000000
v 202.500000 227.500000 15.000000
v -202.500000 227.500000 15.000000
v -227.499985 227.500000 15.000000
v -227.499985 -227.500000 14.999999
v -202.500000 -227.500000 14.999999
v 202.500000 -227.500000 14.999999
v 202.500000 -202.500000 300.000031
v 202.500000 -202.500000 14.999999
v -202.500000 -202.500000 14.999999
v -202.500000 -202.500000 300.000031
vt 0.375000 0.000000
vt 0.625000 0.000000
vt 0.375000 0.250000
vt 0.625000 0.250000
vt 0.375000 0.500000
vt 0.625000 0.500000
vt 0.375000 0.750000
vt 0.625000 0.750000
vt 0.375000 1.000000
vt 0.625000 1.000000
vt 0.875000 0.000000
vt 0.875000 0.250000
vt 0.125000 0.000000
vt 0.125000 0.250000
vt 0.375000 0.125000
vt 0.625000 0.125000
vt 0.625000 0.625000
vt 0.875000 0.125000
vt 0.125000 0.125000
vt 0.375000 0.625000
vt 0.250000 0.250000
vt 0.375000 0.375000
vt 0.625000 0.375000
vt 0.750000 0.250000
vt 0.750000 0.125000
vt 0.625000 0.875000
vt 0.750000 0.000000
vt 0.250000 0.000000
vt 0.375000 0.875000
vt 0.250000 0.125000
vt 0.312500 0.250000
vt 0.375000 0.312500
vt 0.625000 0.312500
vt 0.687500 0.250000
vt 0.687500 0.125000
vt 0.625000 0.937500
vt 0.687500 0.000000
vt 0.312500 0.000000
vt 0.375000 0.937500
vt 0.312500 0.125000
vt 0.375000 0.062500
vt 0.625000 0.062500
vt 0.687500 0.062500
vt 0.750000 0.062500
vt 0.625000 0.687500
vt 0.875000 0.062500
vt 0.125000 0.062500
vt 0.375000 0.687500
vt 0.250000 0.062500
vt 0.312500 0.062500
vt 0.687500 0.125000
vt 0.687500 0.062500
vt 0.750000 0.062500
vt 0.750000 0.125000
vn 1.000000 -0.000000 0.000000
vn 1.000000 -0.000000 0.000000
vn 1.000000 -0.000000 0.000000
vn 1.000000 -0.000000 0.000000
vn 1.000000 -0.000000 0.000000
vn 1.000000 -0.000000 0.000000
vn 0.000000 0.000000 1.000000
vn 0.000000 0.000000 1.000000
vn 0.000000 0.000000 1.000000
vn 0.000000 0.000000 1.000000
vn 0.000000 0.000000 1.000000
vn 0.000000 0.000000 1.000000
vn -1.000000 0.000000 -0.000000
vn -1.000000 0.000000 -0.000000
vn -1.000000 0.000000 -0.000000
vn -1.000000 0.000000 -0.000000
vn -1.000000 0.000000 -0.000000
vn -1.000000 0.000000 -0.000000
vn 0.000000 -0.000000 -1.000000
vn 0.000000 -0.000000 -1.000000
vn 0.000000 -0.000000 -1.000000
vn 0.000000 -0.000000 -1.000000
vn 0.000000 -0.000000 -1.000000
vn 0.000000 -0.000000 -1.000000
vn 0.000000 1.000000 -0.000000
vn 0.000000 1.000000 -0.000000
vn 0.000000 1.000000 -0.000000
vn 0.000000 1.000000 -0.000000
vn 0.000000 1.000000 -0.000000
vn 0.000000 1.000000 -0.000000
vn -0.000000 -1.000000 0.000000
vn -0.000000 -1.000000 0.000000
vn -0.000000 -1.000000 0.000000
vn -0.000000 -1.000000 0.000000
vn -0.000000 -1.000000 0.000000
vn -0.000000 -1.000000 0.000000
vn 1.000000 -0.000000 0.000000
vn 1.000000 -0.000000 0.000000
vn 1.000000 -0.000000 0.000000
vn 1.000000 -0.000000 0.000000
vn 1.000000 -0.000000 0.000000
vn 1.000000 -0.000000 0.000000
vn 0.000000 1.000000 -0.000000
vn 0.000000 1.000000 -0.000000
vn 0.000000 1.000000 -0.000000
vn 0.000000 1.000000 -0.000000
vn 0.000000 1.000000 -0.000000
vn 0.000000 1.000000 -0.000000
vn -1.000000 0.000000 -0.000000
vn -1.000000 0.000000 -0.000000
vn -1.000000 0.000000 -0.000000
vn -1.000000 0.000000 -0.000000
vn -1.000000 0.000000 -0.000000
vn -1.000000 0.000000 -0.000000
vn -0.000000 -1.000000 0.000000
vn -0.000000 -1.000000 0.000000
vn -0.000000 -1.000000 0.000000
vn -0.000000 -1.000000 0.000000
vn -0.000000 -1.000000 0.000000
vn -0.000000 -1.000000 0.000000
vn 0.000000 0.000000 1.000000
vn 0.000000 0.000000 1.000000
vn 0.000000 0.000000 1.000000
vn 0.000000 0.000000 1.000000
vn 0.000000 0.000000 1.000000
vn 0.000000 0.000000 1.000000
vn 0.000000 1.000000 -0.000000
vn 0.000000 1.000000 -0.000000
vn 0.000000 1.000000 -0.000000
vn 0.000000 1.000000 -0.000000
vn 0.000000 1.000000 -0.000000
vn 0.000000 1.000000 -0.000000
vn 0.000000 1.000000 -0.000000
vn 0.000000 1.000000 -0.000000
vn 0.000000 1.000000 -0.000000
vn 0.000000 1.000000 -0.000000
vn 0.000000 1.000000 -0.000000
vn 0.000000 1.000000 -0.000000
vn 0.000000 -0.000000 -1.000000
vn 0.000000 -0.000000 -1.000000
vn 0.000000 -0.000000 -1.000000
vn 0.000000 -0.000000 -1.000000
vn 0.000000 -0.000000 -1.000000
vn 0.000000 -0.000000 -1.000000
vn -0.000000 -1.000000 0.000000
vn -0.000000 -1.000000 0.000000
vn -0.000000 -1.000000 0.000000
vn -0.000000 -1.000000 0.000000
vn -0.000000 -1.000000 0.000000
vn -0.000000 -1.000000 0.000000
vn -0.000000 -1.000000 0.000000
vn -0.000000 -1.000000 0.000000
vn -0.000000 -1.000000 0.000000
vn -0.000000 -1.000000 0.000000
vn -0.000000 -1.000000 0.000000
vn -0.000000 -1.000000 0.000000
vn 0.000000 0.000000 1.000000
vn 0.000000 0.000000 1.000000
vn 0.000000 0.000000 1.000000
vn 0.000000 0.000000 1.000000
vn 0.000000 0.000000 1.000000
vn 0.000000 0.000000 1.000000
vn 0.000000 1.000000 -0.000000
vn 0.000000 1.000000 -0.000000
vn 0.000000 1.000000 -0.000000
vn 0.000000 1.000000 -0.000000
vn 0.000000 1.000000 -0.000000
vn 0.000000 1.000000 -0.000000
vn 0.000000 1.000000 -0.000000
vn 0.000000 1.000000 -0.000000
vn 0.000000 1.000000 -0.000000
vn 0.000000 1.000000 -0.000000
vn 0.000000 1.000000 -0.000000
vn 0.000000 1.000000 -0.000000
vn 0.000000 -0.000000 -1.000000
vn 0.000000 -0.000000 -1.000000
vn 0.000000 -0.000000 -1.000000
vn 0.000000 -0.000000 -1.000000
vn 0.000000 -0.000000 -1.000000
vn 0.000000 -0.000000 -1.000000
vn -0.000000 -1.000000 0.000000
vn -0.000000 -1.000000 0.000000
vn -0.000000 -1.000000 0.000000
vn -0.000000 -1.000000 0.000000
vn -0.000000 -1.000000 0.000000
vn -0.000000 -1.000000 0.000000
vn -0.000000 -1.000000 0.000000
vn -0.000000 -1.000000 0.000000
vn -0.000000 -1.000000 0.000000
vn -0.000000 -1.000000 0.000000
vn -0.000000 -1.000000 0.000000
vn -0.000000 -1.000000 0.000000
vn 1.000000 -0.000000 0.000000
vn 1.000000 -0.000000 0.000000
vn 1.000000 -0.000000 0.000000
vn 1.000000 -0.000000 0.000000
vn 1.000000 -0.000000 0.000000
vn 1.000000 -0.000000 0.000000
vn 0.000000 1.000000 -0.000000
vn 0.000000 1.000000 -0.000000
vn 0.000000 1.000000 -0.000000
vn 0.000000 1.000000 -0.000000
vn 0.000000 1.000000 -0.000000
vn 0.000000 1.000000 -0.000000
vn 0.000000 1.000000 -0.000000
vn 0.000000 1.000000 -0.000000
vn 0.000000 1.000000 -0.000000
vn 0.000000 1.000000 -0.000000
vn 0.000000 1.000000 -0.000000
vn 0.000000 1.000000 -0.000000
vn 0.000000 1.000000 -0.000000
vn 0.000000 1.000000 -0.000000
vn 0.000000 1.000000 -0.000000
vn 0.000000 1.000000 -0.000000
vn 0.000000 1.000000 -0.000000
vn 0.000000 1.000000 -0.000000
vn -1.000000 0.000000 -0.000000
vn -1.000000 0.000000 -0.000000
vn -1.000000 0.000000 -0.000000
vn -1.000000 0.000000 -0.000000
vn -1.000000 0.000000 -0.000000
vn -1.000000 0.000000 -0.000000
vn -0.000000 -1.000000 0.000000
vn -0.000000 -1.000000 0.000000
vn -0.000000 -1.000000 0.000000
vn -0.000000 -1.000000 0.000000
vn -0.000000 -1.000000 0.000000
vn -0.000000 -1.000000 0.000000
vn -0.000000 -1.000000 0.000000
vn -0.000000 -1.000000 0.000000
vn -0.000000 -1.000000 0.000000
vn -0.000000 -1.000000 0.000000
vn -0.000000 -1.000000 0.000000
vn -0.000000 -1.000000 0.000000
vn -0.000000 -1.000000 0.000000
vn -0.000000 -1.000000 0.000000
vn -0.000000 -1.000000 0.000000
vn -0.000000 -1.000000 0.000000
vn -0.000000 -1.000000 0.000000
vn -0.000000 -1.000000 0.000000
vn -1.000000 0.000000 -0.000000
vn -1.000000 0.000000 -0.000000
vn -1.000000 0.000000 -0.000000
vn -1.000000 0.000000 -0.000000
vn -1.000000 0.000000 -0.000000
vn -1.000000 0.000000 -0.000000
vn 0.000000 0.000000 1.000000
vn 0.000000 0.000000 1.000000
vn 0.000000 0.000000 1.000000
vn 0.000000 0.000000 1.000000
vn 0.000000 0.000000 1.000000
vn 0.000000 0.000000 1.000000
vn 1.000000 -0.000000 0.000000
vn 1.000000 -0.000000 0.000000
vn 1.000000 -0.000000 0.000000
vn 1.000000 -0.000000 0.000000
vn 1.000000 -0.000000 0.000000
vn 1.000000 -0.000000 0.000000
vn 0.000000 -0.000000 -1.000000
vn 0.000000 -0.000000 -1.000000
vn 0.000000 -0.000000 -1.000000
vn 0.000000 -0.000000 -1.000000
vn 0.000000 -0.000000 -1.000000
vn 0.000000 -0.000000 -1.000000
s off
g SideTable
usemtl SideTableSG
f 9/15/1 10/16/2 3/3/3
f 3/3/4 10/16/5 4/4/6
f 13/22/7 14/23/8 5/5/9
f 5/5/10 14/23/11 6/6/12
f 5/5/13 6/6/14 12/20/15
f 12/20/16 6/6/17 11/17/18
f 7/7/19 8/8/20 17/29/21
f 17/29/22 8/8/23 16/26/24
f 14/24/25 15/25/26 6/12/27
f 6/12/28 15/25/29 11/18/30
f 12/19/31 18/30/32 5/14/33
f 5/14/34 18/30/35 13/21/36
f 25/41/37 26/42/38 9/15/39
f 9/15/40 26/42/41 10/16/42
f 15/25/43 28/44/44 11/18/45
f 11/18/46 28/44/47 29/46/48
f 12/20/49 11/17/50 30/48/51
f 30/48/52 11/17/53 29/45/54
f 30/47/55 31/49/56 12/19/57
f 12/19/58 31/49/59 18/30/60
f 19/32/61 20/33/62 13/22/63
f 13/22/64 20/33/65 14/23/66
f 20/34/67 21/35/68 14/24/69
f 14/24/70 21/35/71 15/25/72
f 33/51/73 34/52/74 36/54/75
f 36/54/76 34/52/77 35/53/78
f 17/29/79 16/26/80 23/39/81
f 23/39/82 16/26/83 22/36/84
f 18/30/85 31/49/86 24/40/87
f 24/40/88 31/49/89 32/50/90
f 13/21/91 18/30/92 19/31/93
f 19/31/94 18/30/95 24/40/96
f 3/3/97 4/4/98 19/32/99
f 19/32/100 4/4/101 20/33/102
f 10/16/103 21/35/104 4/4/105
f 4/4/106 21/35/107 20/34/108
f 26/42/109 27/43/110 10/16/111
f 10/16/112 27/43/113 21/35/114
f 23/39/115 22/36/116 1/9/117
f 1/9/118 22/36/119 2/10/120
f 24/40/121 32/50/122 9/15/123
f 9/15/124 32/50/125 25/41/126
f 19/31/127 24/40/128 3/3/129
f 3/3/130 24/40/131 9/15/132
f 1/1/133 2/2/134 25/41/135
f 25/41/136 2/2/137 26/42/138
f 2/2/139 22/37/140 26/42/141
f 26/42/142 22/37/143 27/43/144
f 28/44/145 27/43/146 16/27/147
f 16/27/148 27/43/149 22/37/150
f 29/46/151 28/44/152 8/11/153
f 8/11/154 28/44/155 16/27/156
f 30/48/157 29/45/158 7/7/159
f 7/7/160 29/45/161 8/8/162
f 7/13/163 17/28/164 30/47/165
f 30/47/166 17/28/167 31/49/168
f 32/50/169 31/49/170 23/38/171
f 23/38/172 31/49/173 17/28/174
f 25/41/175 32/50/176 1/1/177
f 1/1/178 32/50/179 23/38/180
f 21/35/181 27/43/182 33/51/183
f 33/51/184 27/43/185 34/52/186
f 27/43/187 28/44/188 34/52/189
f 34/52/190 28/44/191 35/53/192
f 28/44/193 15/25/194 35/53/195
f 35/53/196 15/25/197 36/54/198
f 15/25/199 21/35/200 36/54/201
f 36/54/202 21/35/203 33/51/204
