# This file uses centimeters as units for non-parametric coordinates.

mtllib sofa_table.mtl
g default
v -600.000000 -290.000000 400.000000
v 600.000000 -290.000000 400.000000
v -600.000000 290.000000 400.000000
v 600.000000 290.000000 400.000000
v -600.000000 -290.000000 200.000000
v 600.000000 -290.000000 200.000000
v 600.000000 290.000000 200.000000
v -600.000000 290.000000 200.000000
v 600.000000 -290.000000 200.000000
v -600.000000 -290.000000 200.000000
v 600.000000 -200.000000 200.000000
v -600.000000 -200.000000 200.000000
v 600.000000 200.000000 200.000000
v -600.000000 200.000000 200.000000
v -445.000122 -200.000000 0.000000
v -445.000122 200.000000 0.000000
v -445.000122 -200.000000 200.000000
v -445.000122 200.000000 200.000000
v 445.000122 -200.000000 200.000000
v 445.000122 200.000000 200.000000
v 445.000122 -200.000000 0.000000
v 445.000122 200.000000 0.000000
v 0.000000 -200.000000 200.000000
vt 0.375000 0.250000
vt 0.625000 0.250000
vt 0.375000 0.500000
vt 0.625000 0.500000
vt 0.875000 0.250000
vt 0.125000 0.250000
vt 0.375000 0.125000
vt 0.625000 0.125000
vt 0.625000 0.625000
vt 0.875000 0.125000
vt 0.125000 0.125000
vt 0.375000 0.625000
vt 0.625000 0.125000
vt 0.375000 0.125000
vt 0.625000 0.125000
vt 0.375000 0.125000
vt 0.375000 0.625000
vt 0.625000 0.625000
vt 0.375000 0.750000
vt 0.375000 0.000000
vt 0.375000 0.125000
vt 0.375000 0.625000
vt 0.625000 0.625000
vt 0.625000 0.125000
vt 0.625000 0.000000
vt 0.625000 0.750000
vt 0.500000 0.125000
vn 0.000000 -1.000000 0.000000
vn 0.000000 -1.000000 0.000000
vn 0.000000 -1.000000 0.000000
vn 0.000000 -1.000000 0.000000
vn 0.000000 -1.000000 0.000000
vn 0.000000 -1.000000 0.000000
vn 0.000000 0.000000 1.000000
vn 0.000000 0.000000 1.000000
vn 0.000000 0.000000 1.000000
vn 0.000000 0.000000 1.000000
vn 0.000000 0.000000 1.000000
vn 0.000000 0.000000 1.000000
vn 0.000000 1.000000 -0.000000
vn 0.000000 1.000000 -0.000000
vn 0.000000 1.000000 -0.000000
vn 0.000000 1.000000 -0.000000
vn 0.000000 1.000000 -0.000000
vn 0.000000 1.000000 -0.000000
vn 1.000000 0.000000 0.000000
vn 1.000000 0.000000 0.000000
vn 1.000000 0.000000 0.000000
vn 1.000000 0.000000 0.000000
vn 1.000000 0.000000 0.000000
vn 1.000000 0.000000 0.000000
vn -1.000000 0.000000 0.000000
vn -1.000000 0.000000 0.000000
vn -1.000000 0.000000 0.000000
vn -1.000000 0.000000 0.000000
vn -1.000000 0.000000 0.000000
vn -1.000000 0.000000 0.000000
vn 0.000000 0.000000 0.000000
vn 0.000000 0.000000 0.000000
vn 0.000000 0.000000 0.000000
vn 0.000000 0.000000 0.000000
vn 0.000000 0.000000 0.000000
vn 0.000000 0.000000 0.000000
vn 0.000000 -0.000000 -1.000000
vn 0.000000 -0.000000 -1.000000
vn 0.000000 -0.000000 -1.000000
vn 0.000000 -0.000000 -1.000000
vn 0.000000 -0.000000 -1.000000
vn 0.000000 -0.000000 -1.000000
vn 0.000000 -0.000000 -1.000000
vn 0.000000 -0.000000 -1.000000
vn 0.000000 -0.000000 -1.000000
vn 0.000000 -0.000000 -1.000000
vn 0.000000 -0.000000 -1.000000
vn 0.000000 -0.000000 -1.000000
vn -1.000000 0.000000 0.000000
vn -1.000000 0.000000 0.000000
vn -1.000000 0.000000 0.000000
vn -1.000000 0.000000 0.000000
vn -1.000000 0.000000 0.000000
vn -1.000000 0.000000 0.000000
vn 1.000000 0.000000 0.000000
vn 1.000000 0.000000 0.000000
vn 1.000000 0.000000 0.000000
vn 1.000000 0.000000 0.000000
vn 1.000000 0.000000 0.000000
vn 1.000000 0.000000 0.000000
vn 0.000000 -0.000000 -1.000000
vn 0.000000 -0.000000 -1.000000
vn 0.000000 -0.000000 -1.000000
vn 0.000000 -0.000000 -1.000000
vn 0.000000 -0.000000 -1.000000
vn 0.000000 -0.000000 -1.000000
vn 0.000000 -0.000000 -1.000000
vn 0.000000 -0.000000 -1.000000
vn 0.000000 -0.000000 -1.000000
vn 0.000000 -0.000000 -1.000000
vn 0.000000 -0.000000 -1.000000
vn 0.000000 -0.000000 -1.000000
vn 0.000000 -1.000000 0.000000
vn 0.000000 -1.000000 0.000000
vn 0.000000 -1.000000 0.000000
vn 0.000000 -1.000000 0.000000
vn 0.000000 -1.000000 0.000000
vn 0.000000 -1.000000 0.000000
vn 0.000000 -1.000000 0.000000
vn 0.000000 -1.000000 0.000000
vn 0.000000 -1.000000 0.000000
vn 0.000000 -0.000000 -1.000000
vn 0.000000 -0.000000 -1.000000
vn 0.000000 -0.000000 -1.000000
vn 0.000000 -0.000000 -1.000000
vn 0.000000 -0.000000 -1.000000
vn 0.000000 -0.000000 -1.000000
vn 0.000000 1.000000 -0.000000
vn 0.000000 1.000000 -0.000000
vn 0.000000 1.000000 -0.000000
vn 0.000000 1.000000 -0.000000
vn 0.000000 1.000000 -0.000000
vn 0.000000 1.000000 -0.000000
s off
g Table_small
usemtl Table_smallSG
f 5/7/1 6/8/2 1/1/3
f 1/1/4 6/8/5 2/2/6
f 1/1/7 2/2/8 3/3/9
f 3/3/10 2/2/11 4/4/12
f 3/3/13 4/4/14 8/12/15
f 8/12/16 4/4/17 7/9/18
f 6/8/19 7/10/20 2/2/21
f 2/2/22 7/10/23 4/5/24
f 8/11/25 5/7/26 3/6/27
f 3/6/28 5/7/29 1/1/30
f 9/13/31 6/8/32 10/14/33
f 6/8/34 5/7/35 10/14/36
f 9/13/37 10/14/38 11/15/39
f 11/15/40 10/14/41 12/16/42
f 8/12/43 7/9/44 14/17/45
f 14/17/46 7/9/47 13/18/48
f 16/19/49 15/20/50 18/22/51
f 18/22/52 15/20/53 17/21/54
f 20/23/55 19/24/56 22/26/57
f 22/26/58 19/24/59 21/25/60
f 12/16/61 14/17/62 17/21/63
f 17/21/64 14/17/65 18/22/66
f 13/18/67 11/15/68 20/23/69
f 20/23/70 11/15/71 19/24/72
f 17/21/73 15/20/74 23/27/75
f 15/20/76 21/25/77 23/27/78
f 23/27/79 21/25/80 19/24/81
f 15/20/82 16/19/83 21/25/84
f 21/25/85 16/19/86 22/26/87
f 16/19/88 18/22/89 22/26/90
f 22/26/91 18/22/92 20/23/93
