# This file uses centimeters as units for non-parametric coordinates.

mtllib bottle_cola_plastic2_Physx_3.mtl
g default
v 0.936231 0.416828 22.984547
v 0.685747 0.761600 22.984547
v 0.000003 0.000002 22.984545
v 0.316695 0.974676 22.984547
v -0.107121 1.019220 22.984549
v -0.512412 0.887529 22.984547
v -0.829100 0.602385 22.984549
v -1.002435 0.213076 22.984547
v -1.002433 -0.213079 22.984549
v -0.829100 -0.602375 22.984547
v -0.512407 -0.887522 22.984547
v -0.107122 -1.019217 22.984547
v 0.316686 -0.974672 22.984547
v 0.685747 -0.761585 22.984547
v 0.936233 -0.416826 22.984547
v 1.024833 -0.000008 22.984547
v 0.936231 0.416838 21.104366
v 0.685747 0.761600 21.104366
v 0.316691 0.974674 21.104366
v -0.107122 1.019220 21.104368
v -0.512412 0.887531 21.104366
v -0.829103 0.602385 21.104368
v -1.002435 0.213076 21.104366
v -1.002436 -0.213079 21.104368
v -0.829105 -0.602375 21.104366
v -0.512411 -0.887526 21.104366
v -0.107122 -1.019218 21.104366
v 0.316686 -0.974672 21.104366
v 0.685747 -0.761593 21.104366
v 0.936233 -0.416830 21.104366
v 1.024833 0.000002 21.104366
vt 0.642741 0.907303
vt 0.604552 0.959866
vt 0.500000 0.837500
vt 0.548284 0.992353
vt 0.483667 0.999144
vt 0.421875 0.979066
vt 0.373591 0.935591
vt 0.347164 0.876236
vt 0.347164 0.811264
vt 0.373591 0.751909
vt 0.421875 0.708434
vt 0.483667 0.688356
vt 0.548284 0.695147
vt 0.604552 0.727634
vt 0.642741 0.780197
vt 0.656250 0.843750
vt 0.642741 0.907303
vt 0.604552 0.959866
vt 0.548284 0.992353
vt 0.483667 0.999144
vt 0.421875 0.979066
vt 0.373591 0.935591
vt 0.347164 0.876236
vt 0.347164 0.811264
vt 0.373591 0.751909
vt 0.421875 0.708434
vt 0.483667 0.688356
vt 0.548284 0.695147
vt 0.604552 0.727634
vt 0.642741 0.780197
vt 0.656250 0.843750
vn -0.000002 -0.000004 1.000000
vn -0.000001 0.000002 1.000000
vn 0.000001 0.000001 1.000000
vn -0.000001 0.000002 1.000000
vn 0.000002 0.000002 1.000000
vn 0.000001 0.000001 1.000000
vn 0.000002 0.000002 1.000000
vn 0.000000 -0.000002 1.000000
vn 0.000001 0.000001 1.000000
vn 0.000000 -0.000002 1.000000
vn 0.000001 -0.000002 1.000000
vn 0.000001 0.000001 1.000000
vn 0.000001 -0.000002 1.000000
vn 0.000003 0.000004 1.000000
vn 0.000001 0.000001 1.000000
vn 0.000003 0.000004 1.000000
vn 0.000002 0.000004 1.000000
vn 0.000001 0.000001 1.000000
vn 0.000002 0.000004 1.000000
vn 0.000003 -0.000004 1.000000
vn 0.000001 0.000001 1.000000
vn 0.000003 -0.000004 1.000000
vn 0.000004 -0.000004 1.000000
vn 0.000001 0.000001 1.000000
vn 0.000004 -0.000004 1.000000
vn 0.000003 0.000002 1.000000
vn 0.000001 0.000001 1.000000
vn 0.000003 0.000002 1.000000
vn 0.000000 0.000004 1.000000
vn 0.000001 0.000001 1.000000
vn 0.000000 0.000004 1.000000
vn -0.000001 -0.000001 1.000000
vn 0.000001 0.000001 1.000000
vn -0.000001 -0.000001 1.000000
vn -0.000001 0.000000 1.000000
vn 0.000001 0.000001 1.000000
vn -0.000001 0.000000 1.000000
vn -0.000002 0.000007 1.000000
vn 0.000001 0.000001 1.000000
vn -0.000002 0.000007 1.000000
vn -0.000002 0.000000 1.000000
vn 0.000001 0.000001 1.000000
vn -0.000002 0.000000 1.000000
vn -0.000002 -0.000004 1.000000
vn 0.000001 0.000001 1.000000
vn 0.913545 0.406737 0.000002
vn 0.669131 0.743144 0.000001
vn 0.913547 0.406733 0.000001
vn 0.913547 0.406733 0.000001
vn 0.669131 0.743144 0.000001
vn 0.669140 0.743136 -0.000001
vn 0.669131 0.743144 0.000001
vn 0.309020 0.951056 -0.000001
vn 0.669140 0.743136 -0.000001
vn 0.669140 0.743136 -0.000001
vn 0.309020 0.951056 -0.000001
vn 0.309021 0.951055 -0.000001
vn 0.309020 0.951056 -0.000001
vn -0.104530 0.994522 -0.000001
vn 0.309021 0.951055 -0.000001
vn 0.309021 0.951055 -0.000001
vn -0.104530 0.994522 -0.000001
vn -0.104534 0.994521 -0.000000
vn -0.104530 0.994522 -0.000001
vn -0.500000 0.866025 0.000001
vn -0.104534 0.994521 -0.000000
vn -0.104534 0.994521 -0.000000
vn -0.500000 0.866025 0.000001
vn -0.500001 0.866025 0.000001
vn -0.500000 0.866025 0.000001
vn -0.809016 0.587787 0.000001
vn -0.500001 0.866025 0.000001
vn -0.500001 0.866025 0.000001
vn -0.809016 0.587787 0.000001
vn -0.809014 0.587789 0.000001
vn -0.809016 0.587787 0.000001
vn -0.978147 0.207913 0.000001
vn -0.809014 0.587789 0.000001
vn -0.809014 0.587789 0.000001
vn -0.978147 0.207913 0.000001
vn -0.978147 0.207913 0.000001
vn -0.978147 0.207913 0.000001
vn -0.978148 -0.207912 0.000001
vn -0.978147 0.207913 0.000001
vn -0.978147 0.207913 0.000001
vn -0.978148 -0.207912 0.000001
vn -0.978146 -0.207918 0.000002
vn -0.978148 -0.207912 0.000001
vn -0.809010 -0.587795 0.000002
vn -0.978146 -0.207918 0.000002
vn -0.978146 -0.207918 0.000002
vn -0.809010 -0.587795 0.000002
vn -0.809008 -0.587798 0.000003
vn -0.809010 -0.587795 0.000002
vn -0.500004 -0.866023 0.000002
vn -0.809008 -0.587798 0.000003
vn -0.809008 -0.587798 0.000003
vn -0.500004 -0.866023 0.000002
vn -0.500005 -0.866023 0.000002
vn -0.500004 -0.866023 0.000002
vn -0.104535 -0.994521 0.000002
vn -0.500005 -0.866023 0.000002
vn -0.500005 -0.866023 0.000002
vn -0.104535 -0.994521 0.000002
vn -0.104539 -0.994521 0.000001
vn -0.104535 -0.994521 0.000002
vn 0.309025 -0.951054 0.000000
vn -0.104539 -0.994521 0.000001
vn -0.104539 -0.994521 0.000001
vn 0.309025 -0.951054 0.000000
vn 0.309028 -0.951053 0.000001
vn 0.309025 -0.951054 0.000000
vn 0.669130 -0.743146 0.000001
vn 0.309028 -0.951053 0.000001
vn 0.309028 -0.951053 0.000001
vn 0.669130 -0.743146 0.000001
vn 0.669132 -0.743144 0.000002
vn 0.669130 -0.743146 0.000001
vn 0.913544 -0.406740 0.000001
vn 0.669132 -0.743144 0.000002
vn 0.669132 -0.743144 0.000002
vn 0.913544 -0.406740 0.000001
vn 0.913542 -0.406745 0.000000
vn 0.913544 -0.406740 0.000001
vn 1.000000 0.000003 0.000001
vn 0.913542 -0.406745 0.000000
vn 0.913542 -0.406745 0.000000
vn 1.000000 0.000003 0.000001
vn 1.000000 0.000002 -0.000000
vn 1.000000 0.000003 0.000001
vn 0.913545 0.406737 0.000002
vn 1.000000 0.000002 -0.000000
vn 1.000000 0.000002 -0.000000
vn 0.913545 0.406737 0.000002
vn 0.913547 0.406733 0.000001
vn 0.000000 -0.000013 -1.000000
vn 0.000000 -0.000000 -1.000000
vn -0.000002 0.000002 -1.000000
vn 0.000000 -0.000000 -1.000000
vn 0.000000 -0.000000 -1.000000
vn -0.000002 0.000002 -1.000000
vn 0.000000 -0.000000 -1.000000
vn 0.000000 0.000003 -1.000000
vn -0.000002 0.000002 -1.000000
vn 0.000000 0.000003 -1.000000
vn 0.000000 0.000001 -1.000000
vn -0.000002 0.000002 -1.000000
vn 0.000000 0.000001 -1.000000
vn 0.000000 -0.000001 -1.000000
vn -0.000002 0.000002 -1.000000
vn 0.000000 -0.000001 -1.000000
vn 0.000000 0.000001 -1.000000
vn -0.000002 0.000002 -1.000000
vn 0.000000 0.000001 -1.000000
vn -0.000002 -0.000001 -1.000000
vn -0.000002 0.000002 -1.000000
vn -0.000002 -0.000001 -1.000000
vn -0.000003 -0.000003 -1.000000
vn -0.000002 0.000002 -1.000000
vn -0.000002 0.000002 -1.000000
vn -0.000003 -0.000003 -1.000000
vn -0.000003 0.000004 -1.000000
vn -0.000003 -0.000003 -1.000000
vn 0.000001 -0.000002 -1.000000
vn -0.000003 0.000004 -1.000000
vn 0.000001 -0.000002 -1.000000
vn 0.000005 -0.000007 -1.000000
vn -0.000003 0.000004 -1.000000
vn 0.000005 -0.000007 -1.000000
vn -0.000003 0.000017 -1.000000
vn -0.000003 0.000004 -1.000000
vn -0.000003 0.000017 -1.000000
vn 0.000011 -0.000026 -1.000000
vn -0.000003 0.000004 -1.000000
s off
g bottle_cola_plastic2_Physx_3
usemtl BottlePlasticColaSmall_Physx_03:initialShadingGroup
f 1/1/1 2/2/2 3/3/3
f 2/2/4 4/4/5 3/3/6
f 4/4/7 5/5/8 3/3/9
f 5/5/10 6/6/11 3/3/12
f 6/6/13 7/7/14 3/3/15
f 7/7/16 8/8/17 3/3/18
f 8/8/19 9/9/20 3/3/21
f 9/9/22 10/10/23 3/3/24
f 10/10/25 11/11/26 3/3/27
f 11/11/28 12/12/29 3/3/30
f 12/12/31 13/13/32 3/3/33
f 13/13/34 14/14/35 3/3/36
f 14/14/37 15/15/38 3/3/39
f 15/15/40 16/16/41 3/3/42
f 16/16/43 1/1/44 3/3/45
f 17/17/46 18/18/47 1/1/48
f 1/1/49 18/18/50 2/2/51
f 18/18/52 19/19/53 2/2/54
f 2/2/55 19/19/56 4/4/57
f 19/19/58 20/20/59 4/4/60
f 4/4/61 20/20/62 5/5/63
f 20/20/64 21/21/65 5/5/66
f 5/5/67 21/21/68 6/6/69
f 21/21/70 22/22/71 6/6/72
f 6/6/73 22/22/74 7/7/75
f 22/22/76 23/23/77 7/7/78
f 7/7/79 23/23/80 8/8/81
f 23/23/82 24/24/83 8/8/84
f 8/8/85 24/24/86 9/9/87
f 24/24/88 25/25/89 9/9/90
f 9/9/91 25/25/92 10/10/93
f 25/25/94 26/26/95 10/10/96
f 10/10/97 26/26/98 11/11/99
f 26/26/100 27/27/101 11/11/102
f 11/11/103 27/27/104 12/12/105
f 27/27/106 28/28/107 12/12/108
f 12/12/109 28/28/110 13/13/111
f 28/28/112 29/29/113 13/13/114
f 13/13/115 29/29/116 14/14/117
f 29/29/118 30/30/119 14/14/120
f 14/14/121 30/30/122 15/15/123
f 30/30/124 31/31/125 15/15/126
f 15/15/127 31/31/128 16/16/129
f 31/31/130 17/17/131 16/16/132
f 16/16/133 17/17/134 1/1/135
f 18/18/136 17/17/137 19/19/138
f 17/17/139 31/31/140 19/19/141
f 31/31/142 30/30/143 19/19/144
f 30/30/145 29/29/146 19/19/147
f 29/29/148 28/28/149 19/19/150
f 28/28/151 27/27/152 19/19/153
f 27/27/154 26/26/155 19/19/156
f 26/26/157 25/25/158 19/19/159
f 19/19/160 25/25/161 20/20/162
f 25/25/163 24/24/164 20/20/165
f 24/24/166 23/23/167 20/20/168
f 23/23/169 22/22/170 20/20/171
f 22/22/172 21/21/173 20/20/174
