# This file uses centimeters as units for non-parametric coordinates.

mtllib bottle_water_glass2_Physx_2.mtl
g default
v 3.272738 1.457116 16.160301
v 2.397133 2.662285 16.160301
v 1.107041 3.407120 16.160301
v -0.374468 3.562833 16.160301
v -1.791228 3.102500 16.160301
v -2.898269 2.105717 16.160301
v -3.504173 0.744835 16.160301
v -3.504173 -0.744835 16.160301
v -2.898269 -2.105715 16.160301
v -1.791229 -3.102499 16.160301
v -0.374469 -3.562834 16.160301
v 1.107040 -3.407120 16.160301
v 2.397133 -2.662285 16.160301
v 3.272739 -1.457117 16.160301
v 3.582458 0.000000 16.160301
v 0.821223 0.912060 27.479797
v 1.121194 0.499187 27.479797
v 0.379256 1.167231 27.479797
v -0.128287 1.220577 27.479797
v -0.613649 1.062874 27.479797
v -0.992906 0.721388 27.479797
v -1.200479 0.255171 27.479797
v -1.200479 -0.255171 27.479797
v -0.992906 -0.721388 27.479797
v -0.613649 -1.062874 27.479797
v -0.128288 -1.220575 27.479797
v 0.379256 -1.167231 27.479797
v 0.821223 -0.912062 27.479797
v 1.121194 -0.499187 27.479797
v 1.227299 0.000000 27.479797
vt 0.642741 0.907303
vt 0.604552 0.959866
vt 0.642741 0.907303
vt 0.604552 0.959866
vt 0.548284 0.992353
vt 0.548284 0.992353
vt 0.483667 0.999144
vt 0.483667 0.999144
vt 0.421875 0.979066
vt 0.421875 0.979066
vt 0.373591 0.935591
vt 0.373591 0.935591
vt 0.347164 0.876236
vt 0.347164 0.876236
vt 0.347164 0.811264
vt 0.347164 0.811264
vt 0.373591 0.751909
vt 0.373591 0.751909
vt 0.421875 0.708434
vt 0.421875 0.708434
vt 0.483667 0.688356
vt 0.483667 0.688356
vt 0.548284 0.695147
vt 0.548284 0.695147
vt 0.604552 0.727634
vt 0.604552 0.727634
vt 0.642741 0.780197
vt 0.642741 0.780197
vt 0.656250 0.843750
vt 0.656250 0.843750
vn 0.893581 0.400024 0.203699
vn 0.653623 0.728892 0.203699
vn 0.888275 0.411683 0.203678
vn 0.888275 0.411683 0.203678
vn 0.653623 0.728892 0.203699
vn 0.644033 0.737385 0.203677
vn 0.653623 0.728892 0.203699
vn 0.300647 0.931729 0.203699
vn 0.644033 0.737385 0.203677
vn 0.644033 0.737385 0.203677
vn 0.300647 0.931729 0.203699
vn 0.288433 0.935587 0.203677
vn 0.300647 0.931729 0.203699
vn -0.104313 0.973461 0.203699
vn 0.288433 0.935587 0.203677
vn 0.288433 0.935587 0.203677
vn -0.104313 0.973461 0.203699
vn -0.117041 0.972017 0.203677
vn -0.104313 0.973461 0.203699
vn -0.491237 0.846873 0.203699
vn -0.117041 0.972017 0.203677
vn -0.117041 0.972017 0.203677
vn -0.491237 0.846873 0.203699
vn -0.502279 0.840376 0.203678
vn -0.491237 0.846873 0.203699
vn -0.793221 0.573852 0.203699
vn -0.502279 0.840376 0.203678
vn -0.502279 0.840376 0.203678
vn -0.793221 0.573852 0.203699
vn -0.800666 0.563426 0.203678
vn -0.793221 0.573852 0.203699
vn -0.958051 0.201608 0.203699
vn -0.800666 0.563426 0.203678
vn -0.800666 0.563426 0.203678
vn -0.958051 0.201608 0.203699
vn -0.960611 0.189056 0.203678
vn -0.958051 0.201608 0.203699
vn -0.957224 -0.205496 0.203699
vn -0.960611 0.189056 0.203678
vn -0.960611 0.189056 0.203678
vn -0.957224 -0.205496 0.203699
vn -0.954458 -0.218004 0.203677
vn -0.957224 -0.205496 0.203699
vn -0.790885 -0.577068 0.203699
vn -0.954458 -0.218004 0.203677
vn -0.954458 -0.218004 0.203677
vn -0.790885 -0.577068 0.203699
vn -0.783271 -0.587369 0.203677
vn -0.790885 -0.577068 0.203699
vn -0.487795 -0.848860 0.203699
vn -0.783271 -0.587369 0.203677
vn -0.783271 -0.587369 0.203677
vn -0.487795 -0.848860 0.203699
vn -0.476649 -0.855173 0.203678
vn -0.487795 -0.848860 0.203699
vn -0.100360 -0.973876 0.203699
vn -0.476649 -0.855173 0.203678
vn -0.476649 -0.855173 0.203678
vn -0.100360 -0.973876 0.203699
vn -0.087609 -0.975110 0.203678
vn -0.100360 -0.973876 0.203699
vn 0.304428 -0.930500 0.203699
vn -0.087609 -0.975110 0.203678
vn -0.087609 -0.975110 0.203678
vn 0.304428 -0.930500 0.203699
vn 0.316579 -0.926441 0.203678
vn 0.304428 -0.930500 0.203699
vn 0.656577 -0.726232 0.203699
vn 0.316579 -0.926441 0.203678
vn 0.316579 -0.926441 0.203678
vn 0.656577 -0.726232 0.203699
vn 0.666027 -0.717582 0.203678
vn 0.656577 -0.726232 0.203699
vn 0.895198 -0.396393 0.203699
vn 0.666027 -0.717582 0.203678
vn 0.666027 -0.717582 0.203678
vn 0.895198 -0.396393 0.203699
vn 0.900312 -0.384647 0.203678
vn 0.895198 -0.396393 0.203699
vn 0.979032 0.001988 0.203699
vn 0.900312 -0.384647 0.203678
vn 0.900312 -0.384647 0.203678
vn 0.979032 0.001988 0.203699
vn 0.978926 0.014797 0.203678
vn 0.979032 0.001988 0.203699
vn 0.893581 0.400024 0.203699
vn 0.978926 0.014797 0.203678
vn 0.978926 0.014797 0.203678
vn 0.893581 0.400024 0.203699
vn 0.888275 0.411683 0.203678
vn 0.000000 -0.000000 -1.000000
vn 0.000000 -0.000000 -1.000000
vn 0.000000 -0.000000 -1.000000
vn 0.000000 -0.000000 -1.000000
vn 0.000000 -0.000000 -1.000000
vn 0.000000 -0.000000 -1.000000
vn 0.000000 -0.000000 -1.000000
vn 0.000000 -0.000000 -1.000000
vn 0.000000 -0.000000 -1.000000
vn 0.000000 -0.000000 -1.000000
vn 0.000000 -0.000000 -1.000000
vn 0.000000 -0.000000 -1.000000
vn 0.000000 -0.000000 -1.000000
vn 0.000000 -0.000000 -1.000000
vn 0.000000 -0.000000 -1.000000
vn 0.000000 -0.000000 -1.000000
vn 0.000000 -0.000000 -1.000000
vn 0.000000 -0.000000 -1.000000
vn 0.000000 -0.000000 -1.000000
vn 0.000000 -0.000000 -1.000000
vn 0.000000 -0.000000 -1.000000
vn 0.000000 -0.000000 -1.000000
vn 0.000000 -0.000000 -1.000000
vn 0.000000 -0.000000 -1.000000
vn 0.000000 -0.000000 -1.000000
vn 0.000000 -0.000001 -1.000000
vn 0.000000 -0.000000 -1.000000
vn 0.000000 -0.000001 -1.000000
vn 0.000000 0.000002 -1.000000
vn 0.000000 -0.000000 -1.000000
vn 0.000000 0.000002 -1.000000
vn 0.000000 -0.000000 -1.000000
vn 0.000000 -0.000000 -1.000000
vn 0.000000 -0.000000 -1.000000
vn 0.000000 -0.000000 -1.000000
vn 0.000000 -0.000000 -1.000000
vn 0.000000 -0.000000 -1.000000
vn 0.000000 -0.000008 -1.000000
vn 0.000000 -0.000000 -1.000000
vn 0.000000 -0.000018 1.000000
vn 0.000000 0.000012 1.000000
vn 0.000000 0.000001 1.000000
vn 0.000000 0.000012 1.000000
vn 0.000000 0.000001 1.000000
vn 0.000000 0.000001 1.000000
vn 0.000000 0.000001 1.000000
vn 0.000000 0.000000 1.000000
vn 0.000000 0.000001 1.000000
vn 0.000000 0.000000 1.000000
vn 0.000000 0.000000 1.000000
vn 0.000000 0.000001 1.000000
vn 0.000000 0.000000 1.000000
vn 0.000000 0.000000 1.000000
vn 0.000000 0.000001 1.000000
vn 0.000000 0.000000 1.000000
vn 0.000000 0.000000 1.000000
vn 0.000000 0.000001 1.000000
vn 0.000000 0.000000 1.000000
vn 0.000000 0.000000 1.000000
vn 0.000000 0.000001 1.000000
vn 0.000000 0.000000 1.000000
vn 0.000000 0.000003 1.000000
vn 0.000000 0.000001 1.000000
vn 0.000000 0.000003 1.000000
vn 0.000000 0.000005 1.000000
vn 0.000000 0.000001 1.000000
vn 0.000000 0.000005 1.000000
vn 0.000000 0.000000 1.000000
vn 0.000000 0.000001 1.000000
vn 0.000000 0.000000 1.000000
vn 0.000000 0.000000 1.000000
vn 0.000000 0.000001 1.000000
vn 0.000000 0.000000 1.000000
vn 0.000000 0.000000 1.000000
vn 0.000000 0.000001 1.000000
vn 0.000000 0.000000 1.000000
vn 0.000000 0.000000 1.000000
vn 0.000000 0.000001 1.000000
s off
g bottle_water_glass2_Physx_2
usemtl BottleGlassWater2_Physx_02:initialShadingGroup
f 1/1/1 2/2/2 17/3/3
f 17/3/4 2/2/5 16/4/6
f 2/2/7 3/5/8 16/4/9
f 16/4/10 3/5/11 18/6/12
f 3/5/13 4/7/14 18/6/15
f 18/6/16 4/7/17 19/8/18
f 4/7/19 5/9/20 19/8/21
f 19/8/22 5/9/23 20/10/24
f 5/9/25 6/11/26 20/10/27
f 20/10/28 6/11/29 21/12/30
f 6/11/31 7/13/32 21/12/33
f 21/12/34 7/13/35 22/14/36
f 7/13/37 8/15/38 22/14/39
f 22/14/40 8/15/41 23/16/42
f 8/15/43 9/17/44 23/16/45
f 23/16/46 9/17/47 24/18/48
f 9/17/49 10/19/50 24/18/51
f 24/18/52 10/19/53 25/20/54
f 10/19/55 11/21/56 25/20/57
f 25/20/58 11/21/59 26/22/60
f 11/21/61 12/23/62 26/22/63
f 26/22/64 12/23/65 27/24/66
f 12/23/67 13/25/68 27/24/69
f 27/24/70 13/25/71 28/26/72
f 13/25/73 14/27/74 28/26/75
f 28/26/76 14/27/77 29/28/78
f 14/27/79 15/29/80 29/28/81
f 29/28/82 15/29/83 30/30/84
f 15/29/85 1/1/86 30/30/87
f 30/30/88 1/1/89 17/3/90
f 2/2/91 1/1/92 3/5/93
f 1/1/94 15/29/95 3/5/96
f 15/29/97 14/27/98 3/5/99
f 14/27/100 13/25/101 3/5/102
f 13/25/103 12/23/104 3/5/105
f 12/23/106 11/21/107 3/5/108
f 11/21/109 10/19/110 3/5/111
f 10/19/112 9/17/113 3/5/114
f 9/17/115 8/15/116 3/5/117
f 8/15/118 7/13/119 3/5/120
f 7/13/121 6/11/122 3/5/123
f 6/11/124 5/9/125 3/5/126
f 5/9/127 4/7/128 3/5/129
f 16/4/130 18/6/131 17/3/132
f 18/6/133 19/8/134 17/3/135
f 19/8/136 20/10/137 17/3/138
f 20/10/139 21/12/140 17/3/141
f 21/12/142 22/14/143 17/3/144
f 22/14/145 23/16/146 17/3/147
f 23/16/148 24/18/149 17/3/150
f 24/18/151 25/20/152 17/3/153
f 25/20/154 26/22/155 17/3/156
f 26/22/157 27/24/158 17/3/159
f 27/24/160 28/26/161 17/3/162
f 28/26/163 29/28/164 17/3/165
f 29/28/166 30/30/167 17/3/168
