# This file uses centimeters as units for non-parametric coordinates.

mtllib cup_wine_glass1_Physx_3.mtl
g default
v 2.421213 1.078014 9.920879
v 1.773427 1.969587 9.920879
v 0.818998 2.520624 9.920876
v -0.277027 2.635823 9.920879
v -1.325169 2.295258 9.920883
v -2.144183 1.557827 9.920879
v -2.592428 0.551040 9.920879
v -2.592422 -0.551038 9.920879
v -2.144181 -1.557831 9.920879
v -1.325171 -2.295263 9.920883
v -0.277029 -2.635824 9.920879
v 0.818999 -2.520637 9.920879
v 1.773428 -1.969600 9.920879
v 2.421208 -1.077989 9.920883
v 2.650339 0.000018 9.920876
v 3.334403 1.484597 12.147190
v 2.442293 2.712440 12.147190
v 1.127891 3.471307 12.147182
v -0.381503 3.629952 12.147190
v -1.824968 3.160933 12.147194
v -2.952889 2.145375 12.147190
v -3.570189 0.758872 12.147190
v -3.570180 -0.758869 12.147190
v -2.952887 -2.145377 12.147190
v -1.824967 -3.160942 12.147198
v -0.381505 -3.629956 12.147190
v 1.127891 -3.471326 12.147190
v 2.442292 -2.712458 12.147190
v 3.334389 -1.484558 12.147198
v 3.649941 0.000028 12.147182
v 3.334405 1.484593 14.765479
v 2.442289 2.712444 14.765480
v 1.127894 3.471313 14.765472
v -0.381494 3.629954 14.765479
v -1.824968 3.160930 14.765489
v -2.952891 2.145374 14.765480
v -3.570189 0.758872 14.765480
v -3.570182 -0.758869 14.765480
v -2.952891 -2.145370 14.765480
v -1.824961 -3.160938 14.765488
v -0.381496 -3.629959 14.765480
v 1.127889 -3.471329 14.765480
v 2.442286 -2.712461 14.765480
v 3.334387 -1.484550 14.765488
v 3.649946 0.000031 14.765472
v 2.824676 1.257637 17.983963
v 2.068932 2.297799 17.983963
v 0.000003 0.000004 17.983963
v 0.955477 2.940659 17.983955
v -0.323166 3.075046 17.983963
v -1.545985 2.677718 17.983963
v -2.501482 1.817408 17.983963
v -3.024414 0.642862 17.983963
v -3.024409 -0.642859 17.983963
v -2.501484 -1.817398 17.983963
v -1.545974 -2.677721 17.983963
v -0.323168 -3.075052 17.983955
v 0.955467 -2.940668 17.983955
v 2.068925 -2.297815 17.983963
v 2.824659 -1.257601 17.983963
v 3.091986 0.000034 17.983955
v 0.437700 0.194879 8.185532
v 0.320595 0.356056 8.185532
v 0.148057 0.455671 8.185532
v -0.050081 0.476496 8.185532
v -0.239560 0.414931 8.185532
v -0.387618 0.281620 8.185532
v -0.468651 0.099615 8.185532
v -0.468651 -0.099615 8.185532
v -0.387618 -0.281621 8.185532
v -0.239560 -0.414932 8.185532
v -0.050081 -0.476497 8.185532
v 0.148057 -0.455673 8.185532
v 0.320595 -0.356058 8.185532
v 0.437699 -0.194876 8.185532
v 0.479121 0.000002 8.185532
vt 0.642741 0.907303
vt 0.604552 0.959866
vt 0.500000 0.837500
vt 0.548284 0.992353
vt 0.483667 0.999144
vt 0.421875 0.979066
vt 0.373591 0.935591
vt 0.347164 0.876236
vt 0.347164 0.811264
vt 0.373591 0.751909
vt 0.421875 0.708434
vt 0.483667 0.688356
vt 0.548284 0.695147
vt 0.604552 0.727634
vt 0.642741 0.780197
vt 0.656250 0.843750
vt 0.642741 0.907303
vt 0.604552 0.959866
vt 0.642741 0.907303
vt 0.604552 0.959866
vt 0.548284 0.992353
vt 0.548284 0.992353
vt 0.483667 0.999144
vt 0.483667 0.999144
vt 0.421875 0.979066
vt 0.421875 0.979066
vt 0.373591 0.935591
vt 0.373591 0.935591
vt 0.347164 0.876236
vt 0.347164 0.876236
vt 0.347164 0.811264
vt 0.347164 0.811264
vt 0.373591 0.751909
vt 0.373591 0.751909
vt 0.421875 0.708434
vt 0.421875 0.708434
vt 0.483667 0.688356
vt 0.483667 0.688356
vt 0.548284 0.695147
vt 0.548284 0.695147
vt 0.604552 0.727634
vt 0.604552 0.727634
vt 0.642741 0.780197
vt 0.642741 0.780197
vt 0.656250 0.843750
vt 0.656250 0.843750
vt 0.642741 0.907303
vt 0.604552 0.959866
vt 0.548284 0.992353
vt 0.483667 0.999144
vt 0.421875 0.979066
vt 0.373591 0.935591
vt 0.347164 0.876236
vt 0.347164 0.811264
vt 0.373591 0.751909
vt 0.421875 0.708434
vt 0.483667 0.688356
vt 0.548284 0.695147
vt 0.604552 0.727634
vt 0.642741 0.780197
vt 0.656250 0.843750
vt 0.642741 0.907303
vt 0.604552 0.959866
vt 0.548284 0.992353
vt 0.483667 0.999144
vt 0.421875 0.979066
vt 0.373591 0.935591
vt 0.347164 0.876236
vt 0.347164 0.811264
vt 0.373591 0.751909
vt 0.421875 0.708434
vt 0.483667 0.688356
vt 0.548284 0.695147
vt 0.604552 0.727634
vt 0.642741 0.780197
vt 0.656250 0.843750
vn 0.000001 -0.000003 1.000000
vn -0.000002 0.000002 1.000000
vn 0.000000 0.000000 1.000000
vn -0.000002 0.000002 1.000000
vn 0.000001 0.000002 1.000000
vn 0.000000 0.000000 1.000000
vn 0.000001 0.000002 1.000000
vn 0.000003 0.000000 1.000000
vn 0.000000 0.000000 1.000000
vn 0.000003 0.000000 1.000000
vn 0.000000 0.000001 1.000000
vn 0.000000 0.000000 1.000000
vn 0.000000 0.000001 1.000000
vn 0.000000 0.000001 1.000000
vn 0.000000 0.000000 1.000000
vn 0.000000 0.000001 1.000000
vn 0.000000 -0.000001 1.000000
vn 0.000000 0.000000 1.000000
vn 0.000000 -0.000001 1.000000
vn 0.000000 -0.000001 1.000000
vn 0.000000 0.000000 1.000000
vn 0.000000 -0.000001 1.000000
vn 0.000000 0.000000 1.000000
vn 0.000000 0.000000 1.000000
vn 0.000000 0.000000 1.000000
vn 0.000003 -0.000001 1.000000
vn 0.000000 0.000000 1.000000
vn 0.000003 -0.000001 1.000000
vn 0.000003 -0.000003 1.000000
vn 0.000000 0.000000 1.000000
vn 0.000003 -0.000003 1.000000
vn -0.000002 -0.000002 1.000000
vn 0.000000 0.000000 1.000000
vn -0.000002 -0.000002 1.000000
vn -0.000002 -0.000001 1.000000
vn 0.000000 0.000000 1.000000
vn -0.000002 -0.000001 1.000000
vn 0.000001 0.000003 1.000000
vn 0.000000 0.000000 1.000000
vn 0.000001 0.000003 1.000000
vn 0.000002 0.000000 1.000000
vn 0.000000 0.000000 1.000000
vn 0.000002 0.000000 1.000000
vn 0.000001 -0.000003 1.000000
vn 0.000000 0.000000 1.000000
vn 0.588166 0.212377 -0.780357
vn 0.450930 0.433251 -0.780356
vn 0.733102 0.317789 -0.601308
vn 0.733102 0.317789 -0.601308
vn 0.450930 0.433251 -0.780356
vn 0.540461 0.588499 -0.601307
vn 0.450930 0.433251 -0.780356
vn 0.235735 0.579201 -0.780356
vn 0.540461 0.588499 -0.601307
vn 0.540461 0.588499 -0.601307
vn 0.235735 0.579201 -0.780356
vn 0.254380 0.757443 -0.601308
vn 0.235735 0.579201 -0.780356
vn -0.020230 0.625009 -0.780356
vn 0.254380 0.757443 -0.601308
vn 0.254380 0.757443 -0.601308
vn -0.020230 0.625009 -0.780356
vn -0.075698 0.795424 -0.601307
vn -0.020230 0.625009 -0.780356
vn -0.272695 0.562747 -0.780355
vn -0.075698 0.795424 -0.601307
vn -0.075698 0.795424 -0.601307
vn -0.272695 0.562747 -0.780355
vn -0.392677 0.695872 -0.601305
vn -0.272695 0.562747 -0.780355
vn -0.478004 0.403183 -0.780356
vn -0.392677 0.695872 -0.601305
vn -0.392677 0.695872 -0.601305
vn -0.478004 0.403183 -0.780356
vn -0.641761 0.475996 -0.601307
vn -0.478004 0.403183 -0.780356
vn -0.600670 0.173895 -0.780357
vn -0.641761 0.475996 -0.601307
vn -0.641761 0.475996 -0.601307
vn -0.600670 0.173895 -0.780357
vn -0.779885 0.173806 -0.601308
vn -0.600670 0.173895 -0.780357
vn -0.619471 -0.085451 -0.780355
vn -0.779885 0.173806 -0.601308
vn -0.779885 0.173806 -0.601308
vn -0.619471 -0.085451 -0.780355
vn -0.783156 -0.158421 -0.601307
vn -0.619471 -0.085451 -0.780355
vn -0.531159 -0.330021 -0.780356
vn -0.783156 -0.158421 -0.601307
vn -0.783156 -0.158421 -0.601307
vn -0.531159 -0.330021 -0.780356
vn -0.651011 -0.463265 -0.601308
vn -0.531159 -0.330021 -0.780356
vn -0.351003 -0.517534 -0.780356
vn -0.651011 -0.463265 -0.601308
vn -0.651011 -0.463265 -0.601308
vn -0.351003 -0.517534 -0.780356
vn -0.406300 -0.688006 -0.601305
vn -0.351003 -0.517534 -0.780356
vn -0.110163 -0.615556 -0.780356
vn -0.406300 -0.688006 -0.601305
vn -0.406300 -0.688006 -0.601305
vn -0.110163 -0.615556 -0.780356
vn -0.091345 -0.793780 -0.601307
vn -0.110163 -0.615556 -0.780356
vn 0.149730 -0.607144 -0.780357
vn -0.091345 -0.793780 -0.601307
vn -0.091345 -0.793780 -0.601307
vn 0.149730 -0.607144 -0.780357
vn 0.239414 -0.762305 -0.601309
vn 0.149730 -0.607144 -0.780357
vn 0.383735 -0.493751 -0.780357
vn 0.239414 -0.762305 -0.601309
vn 0.239414 -0.762305 -0.601309
vn 0.383735 -0.493751 -0.780357
vn 0.528779 -0.599017 -0.601308
vn 0.383735 -0.493751 -0.780357
vn 0.551390 -0.294983 -0.780355
vn 0.528779 -0.599017 -0.601308
vn 0.528779 -0.599017 -0.601308
vn 0.551390 -0.294983 -0.780355
vn 0.726709 -0.332155 -0.601305
vn 0.551390 -0.294983 -0.780355
vn 0.623699 -0.045217 -0.780355
vn 0.726709 -0.332155 -0.601305
vn 0.726709 -0.332155 -0.601305
vn 0.623699 -0.045217 -0.780355
vn 0.798979 -0.007869 -0.601308
vn 0.623699 -0.045217 -0.780355
vn 0.588166 0.212377 -0.780357
vn 0.798979 -0.007869 -0.601308
vn 0.798979 -0.007869 -0.601308
vn 0.588166 0.212377 -0.780357
vn 0.733102 0.317789 -0.601308
vn 0.733102 0.317789 -0.601308
vn 0.540461 0.588499 -0.601307
vn 0.897952 0.395895 -0.192221
vn 0.897952 0.395895 -0.192221
vn 0.540461 0.588499 -0.601307
vn 0.659290 0.726903 -0.192220
vn 0.540461 0.588499 -0.601307
vn 0.254380 0.757443 -0.601308
vn 0.659290 0.726903 -0.192220
vn 0.659290 0.726903 -0.192220
vn 0.254380 0.757443 -0.601308
vn 0.306644 0.932213 -0.192222
vn 0.254380 0.757443 -0.601308
vn -0.075698 0.795424 -0.601307
vn 0.306644 0.932213 -0.192222
vn 0.306644 0.932213 -0.192222
vn -0.075698 0.795424 -0.601307
vn -0.099040 0.976341 -0.192220
vn -0.075698 0.795424 -0.601307
vn -0.392677 0.695872 -0.601305
vn -0.099040 0.976341 -0.192220
vn -0.099040 0.976341 -0.192220
vn -0.392677 0.695872 -0.601305
vn -0.487583 0.851654 -0.192218
vn -0.392677 0.695872 -0.601305
vn -0.641761 0.475996 -0.601307
vn -0.487583 0.851654 -0.192218
vn -0.487583 0.851654 -0.192218
vn -0.641761 0.475996 -0.601307
vn -0.791827 0.579709 -0.192220
vn -0.641761 0.475996 -0.601307
vn -0.779885 0.173806 -0.601308
vn -0.791827 0.579709 -0.192220
vn -0.791827 0.579709 -0.192220
vn -0.779885 0.173806 -0.601308
vn -0.959161 0.207512 -0.192220
vn -0.779885 0.173806 -0.601308
vn -0.783156 -0.158421 -0.601307
vn -0.959161 0.207512 -0.192220
vn -0.959161 0.207512 -0.192220
vn -0.783156 -0.158421 -0.601307
vn -0.960643 -0.200543 -0.192220
vn -0.783156 -0.158421 -0.601307
vn -0.651011 -0.463265 -0.601308
vn -0.960643 -0.200543 -0.192220
vn -0.960643 -0.200543 -0.192220
vn -0.651011 -0.463265 -0.601308
vn -0.796019 -0.573938 -0.192220
vn -0.651011 -0.463265 -0.601308
vn -0.406300 -0.688006 -0.601305
vn -0.796019 -0.573938 -0.192220
vn -0.796019 -0.573938 -0.192220
vn -0.406300 -0.688006 -0.601305
vn -0.493757 -0.848090 -0.192217
vn -0.406300 -0.688006 -0.601305
vn -0.091345 -0.793780 -0.601307
vn -0.493757 -0.848090 -0.192217
vn -0.493757 -0.848090 -0.192217
vn -0.091345 -0.793780 -0.601307
vn -0.106132 -0.975596 -0.192221
vn -0.091345 -0.793780 -0.601307
vn 0.239414 -0.762305 -0.601309
vn -0.106132 -0.975596 -0.192221
vn -0.106132 -0.975596 -0.192221
vn 0.239414 -0.762305 -0.601309
vn 0.299860 -0.934417 -0.192221
vn 0.239414 -0.762305 -0.601309
vn 0.528779 -0.599017 -0.601308
vn 0.299860 -0.934417 -0.192221
vn 0.299860 -0.934417 -0.192221
vn 0.528779 -0.599017 -0.601308
vn 0.654005 -0.731662 -0.192220
vn 0.528779 -0.599017 -0.601308
vn 0.726709 -0.332155 -0.601305
vn 0.654005 -0.731662 -0.192220
vn 0.654005 -0.731662 -0.192220
vn 0.726709 -0.332155 -0.601305
vn 0.895058 -0.402398 -0.192217
vn 0.726709 -0.332155 -0.601305
vn 0.798979 -0.007869 -0.601308
vn 0.895058 -0.402398 -0.192217
vn 0.895058 -0.402398 -0.192217
vn 0.798979 -0.007869 -0.601308
vn 0.981345 -0.003569 -0.192221
vn 0.798979 -0.007869 -0.601308
vn 0.733102 0.317789 -0.601308
vn 0.981345 -0.003569 -0.192221
vn 0.981345 -0.003569 -0.192221
vn 0.733102 0.317789 -0.601308
vn 0.897952 0.395895 -0.192221
vn 0.897952 0.395895 -0.192221
vn 0.659290 0.726903 -0.192220
vn 0.908674 0.406925 0.093403
vn 0.908674 0.406925 0.093403
vn 0.659290 0.726903 -0.192220
vn 0.664600 0.741338 0.093403
vn 0.659290 0.726903 -0.192220
vn 0.306644 0.932213 -0.192222
vn 0.664600 0.741338 0.093403
vn 0.664600 0.741338 0.093403
vn 0.306644 0.932213 -0.192222
vn 0.305623 0.947560 0.093401
vn 0.306644 0.932213 -0.192222
vn -0.099040 0.976341 -0.192220
vn 0.305623 0.947560 0.093401
vn 0.305623 0.947560 0.093401
vn -0.099040 0.976341 -0.192220
vn -0.106216 0.989946 0.093403
vn -0.099040 0.976341 -0.192220
vn -0.487583 0.851654 -0.192218
vn -0.106216 0.989946 0.093403
vn -0.106216 0.989946 0.093403
vn -0.487583 0.851654 -0.192218
vn -0.499670 0.861165 0.093403
vn -0.487583 0.851654 -0.192218
vn -0.791827 0.579709 -0.192220
vn -0.499670 0.861165 0.093403
vn -0.499670 0.861165 0.093403
vn -0.791827 0.579709 -0.192220
vn -0.806738 0.583480 0.093403
vn -0.791827 0.579709 -0.192220
vn -0.959161 0.207512 -0.192220
vn -0.806738 0.583480 0.093403
vn -0.806738 0.583480 0.093403
vn -0.959161 0.207512 -0.192220
vn -0.974318 0.204892 0.093403
vn -0.959161 0.207512 -0.192220
vn -0.960643 -0.200543 -0.192220
vn -0.974318 0.204892 0.093403
vn -0.974318 0.204892 0.093403
vn -0.960643 -0.200543 -0.192220
vn -0.973424 -0.209099 0.093403
vn -0.960643 -0.200543 -0.192220
vn -0.796019 -0.573938 -0.192220
vn -0.973424 -0.209099 0.093403
vn -0.973424 -0.209099 0.093403
vn -0.796019 -0.573938 -0.192220
vn -0.804213 -0.586956 0.093404
vn -0.796019 -0.573938 -0.192220
vn -0.493757 -0.848090 -0.192217
vn -0.804213 -0.586956 0.093404
vn -0.804213 -0.586956 0.093404
vn -0.493757 -0.848090 -0.192217
vn -0.495949 -0.863313 0.093405
vn -0.493757 -0.848090 -0.192217
vn -0.106132 -0.975596 -0.192221
vn -0.495949 -0.863313 0.093405
vn -0.495949 -0.863313 0.093405
vn -0.106132 -0.975596 -0.192221
vn -0.101944 -0.990396 0.093403
vn -0.106132 -0.975596 -0.192221
vn 0.299860 -0.934417 -0.192221
vn -0.101944 -0.990396 0.093403
vn -0.101944 -0.990396 0.093403
vn 0.299860 -0.934417 -0.192221
vn 0.309708 -0.946233 0.093403
vn 0.299860 -0.934417 -0.192221
vn 0.654005 -0.731662 -0.192220
vn 0.309708 -0.946233 0.093403
vn 0.309708 -0.946233 0.093403
vn 0.654005 -0.731662 -0.192220
vn 0.667808 -0.738450 0.093404
vn 0.654005 -0.731662 -0.192220
vn 0.895058 -0.402398 -0.192217
vn 0.667808 -0.738450 0.093404
vn 0.667808 -0.738450 0.093404
vn 0.895058 -0.402398 -0.192217
vn 0.910426 -0.402988 0.093404
vn 0.895058 -0.402398 -0.192217
vn 0.981345 -0.003569 -0.192221
vn 0.910426 -0.402988 0.093404
vn 0.910426 -0.402988 0.093404
vn 0.981345 -0.003569 -0.192221
vn 0.995626 0.002143 0.093401
vn 0.981345 -0.003569 -0.192221
vn 0.897952 0.395895 -0.192221
vn 0.995626 0.002143 0.093401
vn 0.995626 0.002143 0.093401
vn 0.897952 0.395895 -0.192221
vn 0.908674 0.406925 0.093403
vn 0.908674 0.406925 0.093403
vn 0.664600 0.741338 0.093403
vn 0.898045 0.405387 0.170814
vn 0.898045 0.405387 0.170814
vn 0.664600 0.741338 0.093403
vn 0.655522 0.735605 0.170813
vn 0.664600 0.741338 0.093403
vn 0.305623 0.947560 0.093401
vn 0.655522 0.735605 0.170813
vn 0.655522 0.735605 0.170813
vn 0.305623 0.947560 0.093401
vn 0.299658 0.938631 0.170812
vn 0.305623 0.947560 0.093401
vn -0.106216 0.989946 0.093403
vn 0.299658 0.938631 0.170812
vn 0.299658 0.938631 0.170812
vn -0.106216 0.989946 0.093403
vn -0.108036 0.979363 0.170813
vn -0.106216 0.989946 0.093403
vn -0.499670 0.861165 0.093403
vn -0.108036 0.979363 0.170813
vn -0.108036 0.979363 0.170813
vn -0.499670 0.861165 0.093403
vn -0.497026 0.850757 0.170813
vn -0.499670 0.861165 0.093403
vn -0.806738 0.583480 0.093403
vn -0.497026 0.850757 0.170813
vn -0.497026 0.850757 0.170813
vn -0.806738 0.583480 0.093403
vn -0.800089 0.575047 0.170815
vn -0.806738 0.583480 0.093403
vn -0.974318 0.204892 0.093403
vn -0.800089 0.575047 0.170815
vn -0.800089 0.575047 0.170815
vn -0.974318 0.204892 0.093403
vn -0.964814 0.199893 0.170814
vn -0.974318 0.204892 0.093403
vn -0.973424 -0.209099 0.093403
vn -0.964814 0.199893 0.170814
vn -0.964814 0.199893 0.170814
vn -0.973424 -0.209099 0.093403
vn -0.962708 -0.209800 0.170813
vn -0.973424 -0.209099 0.093403
vn -0.804213 -0.586956 0.093404
vn -0.962708 -0.209800 0.170813
vn -0.962708 -0.209800 0.170813
vn -0.804213 -0.586956 0.093404
vn -0.794137 -0.583241 0.170815
vn -0.804213 -0.586956 0.093404
vn -0.495949 -0.863313 0.093405
vn -0.794137 -0.583241 0.170815
vn -0.794137 -0.583241 0.170815
vn -0.495949 -0.863313 0.093405
vn -0.488259 -0.855819 0.170814
vn -0.495949 -0.863313 0.093405
vn -0.101944 -0.990396 0.093403
vn -0.488259 -0.855819 0.170814
vn -0.488259 -0.855819 0.170814
vn -0.101944 -0.990396 0.093403
vn -0.097968 -0.980421 0.170813
vn -0.101944 -0.990396 0.093403
vn 0.309708 -0.946233 0.093403
vn -0.097968 -0.980421 0.170813
vn -0.097968 -0.980421 0.170813
vn 0.309708 -0.946233 0.093403
vn 0.309287 -0.935502 0.170814
vn 0.309708 -0.946233 0.093403
vn 0.667808 -0.738450 0.093404
vn 0.309287 -0.935502 0.170814
vn 0.309287 -0.935502 0.170814
vn 0.667808 -0.738450 0.093404
vn 0.663059 -0.728818 0.170814
vn 0.667808 -0.738450 0.093404
vn 0.910426 -0.402988 0.093404
vn 0.663059 -0.728818 0.170814
vn 0.663059 -0.728818 0.170814
vn 0.910426 -0.402988 0.093404
vn 0.902169 -0.396124 0.170813
vn 0.910426 -0.402988 0.093404
vn 0.995626 0.002143 0.093401
vn 0.902169 -0.396124 0.170813
vn 0.902169 -0.396124 0.170813
vn 0.995626 0.002143 0.093401
vn 0.985291 0.005056 0.170812
vn 0.995626 0.002143 0.093401
vn 0.908674 0.406925 0.093403
vn 0.985291 0.005056 0.170812
vn 0.985291 0.005056 0.170812
vn 0.908674 0.406925 0.093403
vn 0.898045 0.405387 0.170814
vn 0.000000 -0.000000 -1.000000
vn 0.000000 -0.000010 -1.000000
vn 0.000000 -0.000000 -1.000000
vn 0.000000 -0.000010 -1.000000
vn 0.000000 0.000004 -1.000000
vn 0.000000 -0.000000 -1.000000
vn 0.000000 0.000004 -1.000000
vn 0.000000 0.000001 -1.000000
vn 0.000000 -0.000000 -1.000000
vn 0.000000 0.000001 -1.000000
vn 0.000000 0.000001 -1.000000
vn 0.000000 -0.000000 -1.000000
vn 0.000000 0.000001 -1.000000
vn 0.000000 -0.000000 -1.000000
vn 0.000000 -0.000000 -1.000000
vn 0.000000 -0.000000 -1.000000
vn 0.000000 -0.000000 -1.000000
vn 0.000000 -0.000000 -1.000000
vn 0.000000 -0.000000 -1.000000
vn 0.000000 0.000001 -1.000000
vn 0.000000 -0.000000 -1.000000
vn 0.000000 0.000001 -1.000000
vn 0.000000 -0.000000 -1.000000
vn 0.000000 -0.000000 -1.000000
vn 0.000000 -0.000000 -1.000000
vn 0.000000 -0.000003 -1.000000
vn 0.000000 -0.000000 -1.000000
vn 0.000000 -0.000003 -1.000000
vn 0.000000 0.000006 -1.000000
vn 0.000000 -0.000000 -1.000000
vn 0.000000 0.000006 -1.000000
vn 0.000000 -0.000000 -1.000000
vn 0.000000 -0.000000 -1.000000
vn 0.000000 -0.000000 -1.000000
vn 0.000000 -0.000000 -1.000000
vn 0.000000 -0.000000 -1.000000
vn 0.000000 -0.000000 -1.000000
vn 0.000000 -0.000000 -1.000000
vn 0.000000 -0.000000 -1.000000
s off
g cup_wine_glass1_Physx_3
usemtl GlassWine1_Physx_03:initialShadingGroup
f 46/1/1 47/2/2 48/3/3
f 47/2/4 49/4/5 48/3/6
f 49/4/7 50/5/8 48/3/9
f 50/5/10 51/6/11 48/3/12
f 51/6/13 52/7/14 48/3/15
f 52/7/16 53/8/17 48/3/18
f 53/8/19 54/9/20 48/3/21
f 54/9/22 55/10/23 48/3/24
f 55/10/25 56/11/26 48/3/27
f 56/11/28 57/12/29 48/3/30
f 57/12/31 58/13/32 48/3/33
f 58/13/34 59/14/35 48/3/36
f 59/14/37 60/15/38 48/3/39
f 60/15/40 61/16/41 48/3/42
f 61/16/43 46/1/44 48/3/45
f 62/17/46 63/18/47 1/19/48
f 1/19/49 63/18/50 2/20/51
f 63/18/52 64/21/53 2/20/54
f 2/20/55 64/21/56 3/22/57
f 64/21/58 65/23/59 3/22/60
f 3/22/61 65/23/62 4/24/63
f 65/23/64 66/25/65 4/24/66
f 4/24/67 66/25/68 5/26/69
f 66/25/70 67/27/71 5/26/72
f 5/26/73 67/27/74 6/28/75
f 67/27/76 68/29/77 6/28/78
f 6/28/79 68/29/80 7/30/81
f 68/29/82 69/31/83 7/30/84
f 7/30/85 69/31/86 8/32/87
f 69/31/88 70/33/89 8/32/90
f 8/32/91 70/33/92 9/34/93
f 70/33/94 71/35/95 9/34/96
f 9/34/97 71/35/98 10/36/99
f 71/35/100 72/37/101 10/36/102
f 10/36/103 72/37/104 11/38/105
f 72/37/106 73/39/107 11/38/108
f 11/38/109 73/39/110 12/40/111
f 73/39/112 74/41/113 12/40/114
f 12/40/115 74/41/116 13/42/117
f 74/41/118 75/43/119 13/42/120
f 13/42/121 75/43/122 14/44/123
f 75/43/124 76/45/125 14/44/126
f 14/44/127 76/45/128 15/46/129
f 76/45/130 62/17/131 15/46/132
f 15/46/133 62/17/134 1/19/135
f 1/19/136 2/20/137 16/47/138
f 16/47/139 2/20/140 17/48/141
f 2/20/142 3/22/143 17/48/144
f 17/48/145 3/22/146 18/49/147
f 3/22/148 4/24/149 18/49/150
f 18/49/151 4/24/152 19/50/153
f 4/24/154 5/26/155 19/50/156
f 19/50/157 5/26/158 20/51/159
f 5/26/160 6/28/161 20/51/162
f 20/51/163 6/28/164 21/52/165
f 6/28/166 7/30/167 21/52/168
f 21/52/169 7/30/170 22/53/171
f 7/30/172 8/32/173 22/53/174
f 22/53/175 8/32/176 23/54/177
f 8/32/178 9/34/179 23/54/180
f 23/54/181 9/34/182 24/55/183
f 9/34/184 10/36/185 24/55/186
f 24/55/187 10/36/188 25/56/189
f 10/36/190 11/38/191 25/56/192
f 25/56/193 11/38/194 26/57/195
f 11/38/196 12/40/197 26/57/198
f 26/57/199 12/40/200 27/58/201
f 12/40/202 13/42/203 27/58/204
f 27/58/205 13/42/206 28/59/207
f 13/42/208 14/44/209 28/59/210
f 28/59/211 14/44/212 29/60/213
f 14/44/214 15/46/215 29/60/216
f 29/60/217 15/46/218 30/61/219
f 15/46/220 1/19/221 30/61/222
f 30/61/223 1/19/224 16/47/225
f 16/47/226 17/48/227 31/62/228
f 31/62/229 17/48/230 32/63/231
f 17/48/232 18/49/233 32/63/234
f 32/63/235 18/49/236 33/64/237
f 18/49/238 19/50/239 33/64/240
f 33/64/241 19/50/242 34/65/243
f 19/50/244 20/51/245 34/65/246
f 34/65/247 20/51/248 35/66/249
f 20/51/250 21/52/251 35/66/252
f 35/66/253 21/52/254 36/67/255
f 21/52/256 22/53/257 36/67/258
f 36/67/259 22/53/260 37/68/261
f 22/53/262 23/54/263 37/68/264
f 37/68/265 23/54/266 38/69/267
f 23/54/268 24/55/269 38/69/270
f 38/69/271 24/55/272 39/70/273
f 24/55/274 25/56/275 39/70/276
f 39/70/277 25/56/278 40/71/279
f 25/56/280 26/57/281 40/71/282
f 40/71/283 26/57/284 41/72/285
f 26/57/286 27/58/287 41/72/288
f 41/72/289 27/58/290 42/73/291
f 27/58/292 28/59/293 42/73/294
f 42/73/295 28/59/296 43/74/297
f 28/59/298 29/60/299 43/74/300
f 43/74/301 29/60/302 44/75/303
f 29/60/304 30/61/305 44/75/306
f 44/75/307 30/61/308 45/76/309
f 30/61/310 16/47/311 45/76/312
f 45/76/313 16/47/314 31/62/315
f 31/62/316 32/63/317 46/1/318
f 46/1/319 32/63/320 47/2/321
f 32/63/322 33/64/323 47/2/324
f 47/2/325 33/64/326 49/4/327
f 33/64/328 34/65/329 49/4/330
f 49/4/331 34/65/332 50/5/333
f 34/65/334 35/66/335 50/5/336
f 50/5/337 35/66/338 51/6/339
f 35/66/340 36/67/341 51/6/342
f 51/6/343 36/67/344 52/7/345
f 36/67/346 37/68/347 52/7/348
f 52/7/349 37/68/350 53/8/351
f 37/68/352 38/69/353 53/8/354
f 53/8/355 38/69/356 54/9/357
f 38/69/358 39/70/359 54/9/360
f 54/9/361 39/70/362 55/10/363
f 39/70/364 40/71/365 55/10/366
f 55/10/367 40/71/368 56/11/369
f 40/71/370 41/72/371 56/11/372
f 56/11/373 41/72/374 57/12/375
f 41/72/376 42/73/377 57/12/378
f 57/12/379 42/73/380 58/13/381
f 42/73/382 43/74/383 58/13/384
f 58/13/385 43/74/386 59/14/387
f 43/74/388 44/75/389 59/14/390
f 59/14/391 44/75/392 60/15/393
f 44/75/394 45/76/395 60/15/396
f 60/15/397 45/76/398 61/16/399
f 45/76/400 31/62/401 61/16/402
f 61/16/403 31/62/404 46/1/405
f 63/18/406 62/17/407 64/21/408
f 62/17/409 76/45/410 64/21/411
f 76/45/412 75/43/413 64/21/414
f 75/43/415 74/41/416 64/21/417
f 74/41/418 73/39/419 64/21/420
f 73/39/421 72/37/422 64/21/423
f 72/37/424 71/35/425 64/21/426
f 71/35/427 70/33/428 64/21/429
f 70/33/430 69/31/431 64/21/432
f 69/31/433 68/29/434 64/21/435
f 68/29/436 67/27/437 64/21/438
f 67/27/439 66/25/440 64/21/441
f 66/25/442 65/23/443 64/21/444
