# This file uses centimeters as units for non-parametric coordinates.

mtllib mug1_Physx_22.mtl
g default
v -4.554712 0.000000 8.350255
v -4.013988 0.000000 8.078404
v -4.554712 0.399707 8.408354
v -4.013988 0.399707 8.155247
v -4.554712 0.646739 8.560459
v -4.013988 0.646739 8.356424
v -4.554712 0.646739 8.748470
v -4.013988 0.646739 8.605093
v -4.554712 0.399707 8.900575
v -4.013988 0.399707 8.806270
v -4.554712 0.000000 8.958673
v -4.013988 0.000000 8.883113
v -4.554712 -0.399707 8.900575
v -4.013988 -0.399707 8.806270
v -4.554712 -0.646739 8.748470
v -4.013988 -0.646739 8.605093
v -4.554712 -0.646739 8.560459
v -4.013988 -0.646739 8.356424
v -4.554712 -0.399707 8.408354
v -4.013988 -0.399707 8.155247
vt 0.700000 1.000000
vt 0.750000 1.000000
vt 0.700000 0.900000
vt 0.750000 0.900000
vt 0.700000 0.800000
vt 0.750000 0.800000
vt 0.700000 0.700000
vt 0.750000 0.700000
vt 0.700000 0.600000
vt 0.750000 0.600000
vt 0.700000 0.500000
vt 0.750000 0.500000
vt 0.700000 0.400000
vt 0.750000 0.400000
vt 0.700000 0.300000
vt 0.750000 0.300000
vt 0.700000 0.200000
vt 0.750000 0.200000
vt 0.700000 0.100000
vt 0.750000 0.100000
vt 0.700000 -0.000000
vt 0.750000 -0.000000
vn -0.442698 0.169283 -0.880546
vn -0.424268 0.137262 -0.895073
vn -0.439173 0.163086 -0.883476
vn -0.420317 0.130519 -0.897941
vn -0.341179 0.593580 -0.728876
vn -0.313476 0.518995 -0.795222
vn -0.336440 0.580562 -0.741456
vn -0.305908 0.499174 -0.810707
vn -0.000000 1.000000 -0.000000
vn -0.000000 1.000000 -0.000000
vn -0.000000 1.000000 -0.000000
vn -0.000000 1.000000 0.000000
vn 0.201392 0.618530 0.759514
vn 0.159423 0.542015 0.825109
vn 0.192857 0.603218 0.773908
vn 0.146899 0.518621 0.842290
vn 0.168810 0.186082 0.967924
vn 0.143097 0.150851 0.978145
vn 0.163097 0.178247 0.970375
vn 0.136982 0.142486 0.980272
vn 0.136982 -0.142486 0.980272
vn 0.143097 -0.150851 0.978145
vn 0.163097 -0.178247 0.970375
vn 0.168810 -0.186082 0.967924
vn 0.146898 -0.518620 0.842291
vn 0.159422 -0.542014 0.825109
vn 0.192857 -0.603217 0.773909
vn 0.201391 -0.618529 0.759515
vn 0.000000 -1.000000 0.000000
vn 0.000000 -1.000000 0.000000
vn 0.000000 -1.000000 0.000000
vn 0.000000 -1.000000 0.000001
vn -0.305908 -0.499174 -0.810707
vn -0.313476 -0.518995 -0.795222
vn -0.336440 -0.580562 -0.741456
vn -0.341179 -0.593580 -0.728876
vn -0.420317 -0.130519 -0.897941
vn -0.424268 -0.137262 -0.895073
vn -0.439173 -0.163085 -0.883476
vn -0.442698 -0.169283 -0.880546
vn -1.000000 0.000000 -0.000000
vn -1.000000 0.000000 -0.000000
vn -1.000000 -0.000000 -0.000000
vn -1.000000 0.000000 -0.000000
vn -1.000000 0.000000 -0.000000
vn -1.000000 -0.000000 -0.000000
vn -1.000000 -0.000000 -0.000000
vn -1.000000 0.000000 -0.000000
vn -1.000000 0.000000 -0.000000
vn -1.000000 0.000000 -0.000000
vn 1.000000 0.000000 0.000000
vn 1.000000 0.000000 0.000000
vn 1.000000 0.000000 0.000000
vn 1.000000 -0.000000 -0.000000
vn 1.000000 -0.000000 -0.000000
vn 1.000000 -0.000000 -0.000000
vn 1.000000 0.000000 -0.000000
vn 1.000000 0.000000 0.000000
vn 1.000000 0.000000 0.000000
vn 1.000000 0.000000 0.000000
s 1
g mug1_Physx_22
usemtl initialShadingGroup
f 2/2/1 1/1/2 4/4/3
f 4/4/3 1/1/2 3/3/4
s 2
f 4/4/5 3/3/6 6/6/7
f 6/6/7 3/3/6 5/5/8
s 3
f 6/6/9 5/5/10 8/8/11
f 8/8/11 5/5/10 7/7/12
s 4
f 8/8/13 7/7/14 10/10/15
f 10/10/15 7/7/14 9/9/16
s 5
f 10/10/17 9/9/18 12/12/19
f 12/12/19 9/9/18 11/11/20
s 6
f 11/11/21 13/13/22 12/12/23
f 12/12/23 13/13/22 14/14/24
s 7
f 13/13/25 15/15/26 14/14/27
f 14/14/27 15/15/26 16/16/28
s 8
f 15/15/29 17/17/30 16/16/31
f 16/16/31 17/17/30 18/18/32
s 9
f 17/17/33 19/19/34 18/18/35
f 18/18/35 19/19/34 20/20/36
s 10
f 19/19/37 1/21/38 20/20/39
f 20/20/39 1/21/38 2/22/40
s 11
f 3/3/41 1/21/42 5/5/43
f 1/21/42 19/19/44 5/5/43
f 19/19/44 17/17/45 5/5/43
f 17/17/45 15/15/46 5/5/43
f 15/15/46 13/13/47 5/5/43
f 13/13/47 11/11/48 5/5/43
f 11/11/48 9/9/49 5/5/43
f 9/9/49 7/7/50 5/5/43
s 12
f 12/12/51 14/14/52 10/10/53
f 10/10/53 14/14/52 8/8/54
f 14/14/52 16/16/55 8/8/54
f 8/8/54 16/16/55 6/6/56
f 16/16/55 18/18/57 6/6/56
f 6/6/56 18/18/57 4/4/58
f 18/18/57 20/20/59 4/4/58
f 4/4/58 20/20/59 2/2/60
