# This file uses centimeters as units for non-parametric coordinates.

mtllib mug1_Physx_32.mtl
g default
v -4.554712 0.000000 2.349591
v -5.430346 0.000000 2.508408
v -4.554712 0.399707 2.291492
v -5.446023 0.399707 2.453152
v -4.554712 0.646739 2.139388
v -5.487069 0.646739 2.308492
v -4.554712 0.646739 1.951376
v -5.537804 0.646739 2.129683
v -4.554712 0.399707 1.799272
v -5.578849 0.399707 1.985023
v -4.554712 0.000000 1.741173
v -5.594527 0.000000 1.929768
v -4.554712 -0.399707 1.799272
v -5.578849 -0.399707 1.985023
v -4.554712 -0.646739 1.951376
v -5.537804 -0.646739 2.129683
v -4.554712 -0.646739 2.139388
v -5.487069 -0.646739 2.308492
v -4.554712 -0.399707 2.291492
v -5.446023 -0.399707 2.453152
vt 0.200000 1.000000
vt 0.250000 1.000000
vt 0.200000 0.900000
vt 0.250000 0.900000
vt 0.200000 0.800000
vt 0.250000 0.800000
vt 0.200000 0.700000
vt 0.250000 0.700000
vt 0.200000 0.600000
vt 0.250000 0.600000
vt 0.200000 0.500000
vt 0.250000 0.500000
vt 0.200000 0.400000
vt 0.250000 0.400000
vt 0.200000 0.300000
vt 0.250000 0.300000
vt 0.200000 0.200000
vt 0.250000 0.200000
vt 0.200000 0.100000
vt 0.250000 0.100000
vt 0.200000 -0.000000
vt 0.250000 -0.000000
vn 0.176664 0.141579 0.974036
vn 0.176664 0.141580 0.974035
vn 0.176664 0.141579 0.974036
vn 0.176664 0.141580 0.974035
vn 0.152635 0.518166 0.841550
vn 0.152635 0.518166 0.841550
vn 0.152635 0.518166 0.841550
vn 0.152635 0.518165 0.841550
vn 0.000000 1.000000 0.000000
vn 0.000000 1.000000 0.000000
vn 0.000000 1.000000 0.000000
vn 0.000000 1.000000 0.000000
vn -0.152635 0.518166 -0.841550
vn -0.152634 0.518166 -0.841550
vn -0.152635 0.518166 -0.841550
vn -0.152634 0.518166 -0.841550
vn -0.176665 0.141579 -0.974036
vn -0.176665 0.141580 -0.974035
vn -0.176665 0.141579 -0.974035
vn -0.176665 0.141580 -0.974035
vn -0.176664 -0.141579 -0.974036
vn -0.176665 -0.141580 -0.974035
vn -0.176664 -0.141579 -0.974036
vn -0.176665 -0.141580 -0.974035
vn -0.152635 -0.518165 -0.841551
vn -0.152635 -0.518165 -0.841551
vn -0.152635 -0.518165 -0.841551
vn -0.152635 -0.518165 -0.841551
vn -0.000000 -1.000000 0.000000
vn -0.000000 -1.000000 -0.000001
vn -0.000000 -1.000000 -0.000000
vn -0.000000 -1.000000 -0.000001
vn 0.152635 -0.518166 0.841550
vn 0.152635 -0.518166 0.841550
vn 0.152635 -0.518166 0.841550
vn 0.152635 -0.518166 0.841550
vn 0.176664 -0.141579 0.974036
vn 0.176664 -0.141580 0.974035
vn 0.176664 -0.141579 0.974036
vn 0.176664 -0.141580 0.974035
vn 1.000000 0.000000 0.000000
vn 1.000000 0.000000 0.000000
vn 1.000000 0.000000 0.000000
vn 1.000000 0.000000 0.000000
vn 1.000000 0.000000 0.000000
vn 1.000000 0.000000 0.000000
vn 1.000000 0.000000 0.000000
vn 1.000000 0.000000 0.000000
vn 1.000000 0.000000 0.000000
vn 1.000000 0.000000 0.000000
vn -0.962025 0.000000 0.272961
vn -0.962025 0.000000 0.272961
vn -0.962025 0.000000 0.272961
vn -0.962025 -0.000000 0.272962
vn -0.962025 0.000000 0.272962
vn -0.962025 0.000000 0.272961
vn -0.962025 -0.000000 0.272961
vn -0.962025 0.000001 0.272961
vn -0.962025 0.000000 0.272962
vn -0.962025 0.000000 0.272961
s 1
g mug1_Physx_32
usemtl initialShadingGroup
f 2/2/1 1/1/2 4/4/3
f 4/4/3 1/1/2 3/3/4
s 2
f 4/4/5 3/3/6 6/6/7
f 6/6/7 3/3/6 5/5/8
s 3
f 6/6/9 5/5/10 8/8/11
f 8/8/11 5/5/10 7/7/12
s 4
f 8/8/13 7/7/14 10/10/15
f 10/10/15 7/7/14 9/9/16
s 5
f 10/10/17 9/9/18 12/12/19
f 12/12/19 9/9/18 11/11/20
s 6
f 12/12/21 11/11/22 14/14/23
f 14/14/23 11/11/22 13/13/24
s 7
f 14/14/25 13/13/26 16/16/27
f 16/16/27 13/13/26 15/15/28
s 8
f 16/16/29 15/15/30 18/18/31
f 18/18/31 15/15/30 17/17/32
s 9
f 18/18/33 17/17/34 20/20/35
f 20/20/35 17/17/34 19/19/36
s 10
f 20/20/37 19/19/38 2/22/39
f 2/22/39 19/19/38 1/21/40
s 11
f 3/3/41 1/21/42 5/5/43
f 1/21/42 19/19/44 5/5/43
f 19/19/44 17/17/45 5/5/43
f 17/17/45 15/15/46 5/5/43
f 15/15/46 13/13/47 5/5/43
f 13/13/47 11/11/48 5/5/43
f 11/11/48 9/9/49 5/5/43
f 9/9/49 7/7/50 5/5/43
s 12
f 4/4/51 6/6/52 2/2/53
f 6/6/52 8/8/54 2/2/53
f 8/8/54 10/10/55 2/2/53
f 10/10/55 12/12/56 2/2/53
f 12/12/56 14/14/57 2/2/53
f 14/14/57 16/16/58 2/2/53
f 16/16/58 18/18/59 2/2/53
f 18/18/59 20/20/60 2/2/53
