# This file uses centimeters as units for non-parametric coordinates.

mtllib table_round_Physx_2.mtl
g default
v 57.569595 16.903921 71.073738
v 50.475235 32.438423 71.073738
v 39.291672 45.344955 71.073738
v 24.924934 54.577908 71.073738
v 8.538925 59.389286 71.073738
v -8.538858 59.389297 71.073738
v -24.924873 54.577938 71.073738
v -39.291626 45.345001 71.073738
v -50.475204 32.438477 71.073738
v -57.569580 16.903978 71.073738
v -60.000008 0.000022 71.073738
v -57.569588 -16.903938 71.073738
v -50.475227 -32.438438 71.073738
v -39.291656 -45.344971 71.073738
v -24.924913 -54.577919 71.073738
v -8.538901 -59.389290 71.073738
v 8.538882 -59.389294 71.073738
v 24.924896 -54.577927 71.073738
v 39.291641 -45.344978 71.073738
v 50.475212 -32.438454 71.073738
v 57.569580 -16.903955 71.073738
v 60.000000 0.000000 71.073738
v 57.569595 16.903921 75.000000
v 50.475235 32.438423 75.000000
v 39.291672 45.344955 75.000000
v 24.924934 54.577908 75.000000
v 8.538925 59.389286 75.000000
v -8.538858 59.389297 75.000000
v -24.924873 54.577938 75.000000
v -39.291626 45.345001 75.000000
v -50.475204 32.438477 75.000000
v -57.569580 16.903978 75.000000
v -60.000008 0.000022 75.000000
v -57.569588 -16.903938 75.000000
v -50.475227 -32.438438 75.000000
v -39.291656 -45.344971 75.000000
v -24.924913 -54.577919 75.000000
v -8.538901 -59.389290 75.000000
v 8.538882 -59.389294 75.000000
v 24.924896 -54.577927 75.000000
v 39.291641 -45.344978 75.000000
v 50.475212 -32.438454 75.000000
v 57.569580 -16.903955 75.000000
v 60.000000 0.000000 75.000000
v 0.000000 0.000000 71.073738
v 0.000000 0.000000 75.000000
vt 0.375000 0.312500
vt 0.386364 0.312500
vt 0.375000 0.688440
vt 0.386364 0.688440
vt 0.397727 0.312500
vt 0.397727 0.688440
vt 0.409091 0.312500
vt 0.409091 0.688440
vt 0.420455 0.312500
vt 0.420455 0.688440
vt 0.431818 0.312500
vt 0.431818 0.688440
vt 0.443182 0.312500
vt 0.443182 0.688440
vt 0.454545 0.312500
vt 0.454545 0.688440
vt 0.465909 0.312500
vt 0.465909 0.688440
vt 0.477273 0.312500
vt 0.477273 0.688440
vt 0.488636 0.312500
vt 0.488636 0.688440
vt 0.500000 0.312500
vt 0.500000 0.688440
vt 0.511364 0.312500
vt 0.511364 0.688440
vt 0.522727 0.312500
vt 0.522727 0.688440
vt 0.534091 0.312500
vt 0.534091 0.688440
vt 0.545454 0.312500
vt 0.545454 0.688440
vt 0.556818 0.312500
vt 0.556818 0.688440
vt 0.568182 0.312500
vt 0.568182 0.688440
vt 0.579545 0.312500
vt 0.579545 0.688440
vt 0.590909 0.312500
vt 0.590909 0.688440
vt 0.602273 0.312500
vt 0.602273 0.688440
vt 0.613636 0.312500
vt 0.613636 0.688440
vt 0.625000 0.312500
vt 0.625000 0.688440
vt 0.631446 0.071775
vt 0.649921 0.112229
vt 0.500000 0.150000
vt 0.602322 0.038164
vt 0.564909 0.014120
vt 0.522237 0.001590
vt 0.477763 0.001590
vt 0.435091 0.014120
vt 0.397678 0.038164
vt 0.368554 0.071775
vt 0.350079 0.112229
vt 0.343750 0.156250
vt 0.350079 0.200271
vt 0.368554 0.240725
vt 0.397678 0.274336
vt 0.435091 0.298380
vt 0.477763 0.310910
vt 0.522237 0.310910
vt 0.564909 0.298380
vt 0.602322 0.274336
vt 0.631446 0.240725
vt 0.649921 0.200271
vt 0.656250 0.156250
vt 0.649921 0.887771
vt 0.631446 0.928225
vt 0.500000 0.837500
vt 0.602322 0.961836
vt 0.564909 0.985880
vt 0.522237 0.998410
vt 0.477763 0.998410
vt 0.435091 0.985880
vt 0.397678 0.961836
vt 0.368554 0.928225
vt 0.350079 0.887771
vt 0.343750 0.843750
vt 0.350079 0.799729
vt 0.368554 0.759275
vt 0.397678 0.725664
vt 0.435091 0.701620
vt 0.477763 0.689090
vt 0.522237 0.689090
vt 0.564909 0.701620
vt 0.602322 0.725664
vt 0.631446 0.759275
vt 0.649921 0.799729
vt 0.656250 0.843750
vn 0.959493 0.281732 0.000000
vn 0.841254 0.540640 0.000000
vn 0.959493 0.281732 0.000000
vn 0.959493 0.281732 0.000000
vn 0.841254 0.540640 0.000000
vn 0.841254 0.540640 0.000000
vn 0.841254 0.540640 0.000000
vn 0.654862 0.755749 0.000000
vn 0.841254 0.540640 0.000000
vn 0.841254 0.540640 0.000000
vn 0.654862 0.755749 0.000000
vn 0.654862 0.755749 0.000000
vn 0.654862 0.755749 0.000000
vn 0.415416 0.909632 0.000000
vn 0.654862 0.755749 0.000000
vn 0.654862 0.755749 0.000000
vn 0.415416 0.909632 0.000000
vn 0.415416 0.909632 0.000000
vn 0.415416 0.909632 0.000000
vn 0.142316 0.989821 0.000000
vn 0.415416 0.909632 0.000000
vn 0.415416 0.909632 0.000000
vn 0.142316 0.989821 0.000000
vn 0.142316 0.989821 0.000000
vn 0.142316 0.989821 0.000000
vn -0.142314 0.989822 0.000000
vn 0.142316 0.989821 0.000000
vn 0.142316 0.989821 0.000000
vn -0.142314 0.989822 0.000000
vn -0.142314 0.989822 0.000000
vn -0.142314 0.989822 0.000000
vn -0.415415 0.909632 0.000000
vn -0.142314 0.989822 0.000000
vn -0.142314 0.989822 0.000000
vn -0.415415 0.909632 0.000000
vn -0.415415 0.909632 0.000000
vn -0.415415 0.909632 0.000000
vn -0.654860 0.755750 0.000000
vn -0.415415 0.909632 0.000000
vn -0.415415 0.909632 0.000000
vn -0.654860 0.755750 0.000000
vn -0.654860 0.755750 0.000000
vn -0.654860 0.755750 0.000000
vn -0.841253 0.540641 0.000000
vn -0.654860 0.755750 0.000000
vn -0.654860 0.755750 0.000000
vn -0.841253 0.540641 0.000000
vn -0.841253 0.540641 0.000000
vn -0.841253 0.540641 0.000000
vn -0.959493 0.281733 0.000000
vn -0.841253 0.540641 0.000000
vn -0.841253 0.540641 0.000000
vn -0.959493 0.281733 0.000000
vn -0.959493 0.281733 0.000000
vn -0.959493 0.281733 0.000000
vn -1.000000 0.000000 0.000000
vn -0.959493 0.281733 0.000000
vn -0.959493 0.281733 0.000000
vn -1.000000 0.000000 0.000000
vn -1.000000 0.000000 0.000000
vn -1.000000 0.000000 0.000000
vn -0.959493 -0.281732 0.000000
vn -1.000000 0.000000 0.000000
vn -1.000000 0.000000 0.000000
vn -0.959493 -0.281732 0.000000
vn -0.959493 -0.281732 0.000000
vn -0.959493 -0.281732 0.000000
vn -0.841254 -0.540641 0.000000
vn -0.959493 -0.281732 0.000000
vn -0.959493 -0.281732 0.000000
vn -0.841254 -0.540641 0.000000
vn -0.841254 -0.540641 0.000000
vn -0.841254 -0.540641 0.000000
vn -0.654861 -0.755749 0.000000
vn -0.841254 -0.540641 0.000000
vn -0.841254 -0.540641 0.000000
vn -0.654861 -0.755749 0.000000
vn -0.654861 -0.755749 0.000000
vn -0.654861 -0.755749 0.000000
vn -0.415415 -0.909632 0.000000
vn -0.654861 -0.755749 0.000000
vn -0.654861 -0.755749 0.000000
vn -0.415415 -0.909632 0.000000
vn -0.415415 -0.909632 0.000000
vn -0.415415 -0.909632 0.000000
vn -0.142315 -0.989821 0.000000
vn -0.415415 -0.909632 0.000000
vn -0.415415 -0.909632 0.000000
vn -0.142315 -0.989821 0.000000
vn -0.142315 -0.989821 0.000000
vn -0.142315 -0.989821 0.000000
vn 0.142315 -0.989821 0.000000
vn -0.142315 -0.989821 0.000000
vn -0.142315 -0.989821 0.000000
vn 0.142315 -0.989821 0.000000
vn 0.142315 -0.989821 0.000000
vn 0.142315 -0.989821 0.000000
vn 0.415415 -0.909632 0.000000
vn 0.142315 -0.989821 0.000000
vn 0.142315 -0.989821 0.000000
vn 0.415415 -0.909632 0.000000
vn 0.415415 -0.909632 0.000000
vn 0.415415 -0.909632 0.000000
vn 0.654861 -0.755749 0.000000
vn 0.415415 -0.909632 0.000000
vn 0.415415 -0.909632 0.000000
vn 0.654861 -0.755749 0.000000
vn 0.654861 -0.755749 0.000000
vn 0.654861 -0.755749 0.000000
vn 0.841254 -0.540641 0.000000
vn 0.654861 -0.755749 0.000000
vn 0.654861 -0.755749 0.000000
vn 0.841254 -0.540641 0.000000
vn 0.841254 -0.540641 0.000000
vn 0.841254 -0.540641 0.000000
vn 0.959493 -0.281732 0.000000
vn 0.841254 -0.540641 0.000000
vn 0.841254 -0.540641 0.000000
vn 0.959493 -0.281732 0.000000
vn 0.959493 -0.281732 0.000000
vn 0.959493 -0.281732 0.000000
vn 1.000000 -0.000001 0.000000
vn 0.959493 -0.281732 0.000000
vn 0.959493 -0.281732 0.000000
vn 1.000000 -0.000001 0.000000
vn 1.000000 -0.000001 0.000000
vn 1.000000 -0.000001 0.000000
vn 0.959493 0.281732 0.000000
vn 1.000000 -0.000001 0.000000
vn 1.000000 -0.000001 0.000000
vn 0.959493 0.281732 0.000000
vn 0.959493 0.281732 0.000000
vn 0.000000 0.000000 -1.000000
vn 0.000000 0.000000 -1.000000
vn 0.000000 0.000000 -1.000000
vn 0.000000 0.000000 -1.000000
vn 0.000000 0.000000 -1.000000
vn 0.000000 0.000000 -1.000000
vn 0.000000 0.000000 -1.000000
vn 0.000000 0.000000 -1.000000
vn 0.000000 0.000000 -1.000000
vn 0.000000 0.000000 -1.000000
vn 0.000000 0.000000 -1.000000
vn 0.000000 0.000000 -1.000000
vn 0.000000 0.000000 -1.000000
vn 0.000000 0.000000 -1.000000
vn 0.000000 0.000000 -1.000000
vn 0.000000 0.000000 -1.000000
vn 0.000000 0.000000 -1.000000
vn 0.000000 0.000000 -1.000000
vn 0.000000 0.000000 -1.000000
vn 0.000000 0.000000 -1.000000
vn 0.000000 0.000000 -1.000000
vn 0.000000 0.000000 -1.000000
vn 0.000000 0.000000 -1.000000
vn 0.000000 0.000000 -1.000000
vn 0.000000 0.000000 -1.000000
vn 0.000000 0.000000 -1.000000
vn 0.000000 0.000000 -1.000000
vn 0.000000 0.000000 -1.000000
vn 0.000000 0.000000 -1.000000
vn 0.000000 0.000000 -1.000000
vn 0.000000 0.000000 -1.000000
vn 0.000000 0.000000 -1.000000
vn 0.000000 0.000000 -1.000000
vn 0.000000 0.000000 -1.000000
vn 0.000000 0.000000 -1.000000
vn 0.000000 0.000000 -1.000000
vn 0.000000 0.000000 -1.000000
vn 0.000000 0.000000 -1.000000
vn 0.000000 0.000000 -1.000000
vn 0.000000 0.000000 -1.000000
vn 0.000000 0.000000 -1.000000
vn 0.000000 0.000000 -1.000000
vn 0.000000 0.000000 -1.000000
vn 0.000000 0.000000 -1.000000
vn 0.000000 0.000000 -1.000000
vn 0.000000 0.000000 -1.000000
vn 0.000000 0.000000 -1.000000
vn 0.000000 0.000000 -1.000000
vn 0.000000 0.000000 -1.000000
vn 0.000000 0.000000 -1.000000
vn 0.000000 0.000000 -1.000000
vn 0.000000 0.000000 -1.000000
vn 0.000000 0.000000 -1.000000
vn 0.000000 0.000000 -1.000000
vn 0.000000 0.000000 -1.000000
vn 0.000000 0.000000 -1.000000
vn 0.000000 0.000000 -1.000000
vn 0.000000 0.000000 -1.000000
vn 0.000000 0.000000 -1.000000
vn 0.000000 0.000000 -1.000000
vn 0.000000 0.000000 -1.000000
vn 0.000000 0.000000 -1.000000
vn 0.000000 0.000000 -1.000000
vn 0.000000 0.000000 -1.000000
vn 0.000000 0.000000 -1.000000
vn 0.000000 0.000000 -1.000000
vn 0.000000 0.000000 1.000000
vn 0.000000 0.000000 1.000000
vn 0.000000 0.000000 1.000000
vn 0.000000 0.000000 1.000000
vn 0.000000 0.000000 1.000000
vn 0.000000 0.000000 1.000000
vn 0.000000 0.000000 1.000000
vn 0.000000 0.000000 1.000000
vn 0.000000 0.000000 1.000000
vn 0.000000 0.000000 1.000000
vn 0.000000 0.000000 1.000000
vn 0.000000 0.000000 1.000000
vn 0.000000 0.000000 1.000000
vn 0.000000 0.000000 1.000000
vn 0.000000 0.000000 1.000000
vn 0.000000 0.000000 1.000000
vn 0.000000 0.000000 1.000000
vn 0.000000 0.000000 1.000000
vn 0.000000 0.000000 1.000000
vn 0.000000 0.000000 1.000000
vn 0.000000 0.000000 1.000000
vn 0.000000 0.000000 1.000000
vn 0.000000 0.000000 1.000000
vn 0.000000 0.000000 1.000000
vn 0.000000 0.000000 1.000000
vn 0.000000 0.000000 1.000000
vn 0.000000 0.000000 1.000000
vn 0.000000 0.000000 1.000000
vn 0.000000 0.000000 1.000000
vn 0.000000 0.000000 1.000000
vn 0.000000 0.000000 1.000000
vn 0.000000 0.000000 1.000000
vn 0.000000 0.000000 1.000000
vn 0.000000 0.000000 1.000000
vn 0.000000 0.000000 1.000000
vn 0.000000 0.000000 1.000000
vn 0.000000 0.000000 1.000000
vn 0.000000 0.000000 1.000000
vn 0.000000 0.000000 1.000000
vn 0.000000 0.000000 1.000000
vn 0.000000 0.000000 1.000000
vn 0.000000 0.000000 1.000000
vn 0.000000 0.000000 1.000000
vn 0.000000 0.000000 1.000000
vn 0.000000 0.000000 1.000000
vn 0.000000 0.000000 1.000000
vn 0.000000 0.000000 1.000000
vn 0.000000 0.000000 1.000000
vn 0.000000 0.000000 1.000000
vn 0.000000 0.000000 1.000000
vn 0.000000 0.000000 1.000000
vn 0.000000 0.000000 1.000000
vn 0.000000 0.000000 1.000000
vn 0.000000 0.000000 1.000000
vn 0.000000 0.000000 1.000000
vn 0.000000 0.000000 1.000000
vn 0.000000 0.000000 1.000000
vn 0.000000 0.000000 1.000000
vn 0.000000 0.000000 1.000000
vn 0.000000 0.000000 1.000000
vn 0.000000 0.000000 1.000000
vn 0.000000 0.000000 1.000000
vn 0.000000 0.000000 1.000000
vn 0.000000 0.000000 1.000000
vn 0.000000 0.000000 1.000000
vn 0.000000 0.000000 1.000000
s off
g table_round_Physx_2
usemtl table_round_Physx_2_initialShadingGroup
f 1/1/1 2/2/2 23/3/3
f 23/3/4 2/2/5 24/4/6
f 2/2/7 3/5/8 24/4/9
f 24/4/10 3/5/11 25/6/12
f 3/5/13 4/7/14 25/6/15
f 25/6/16 4/7/17 26/8/18
f 4/7/19 5/9/20 26/8/21
f 26/8/22 5/9/23 27/10/24
f 5/9/25 6/11/26 27/10/27
f 27/10/28 6/11/29 28/12/30
f 6/11/31 7/13/32 28/12/33
f 28/12/34 7/13/35 29/14/36
f 7/13/37 8/15/38 29/14/39
f 29/14/40 8/15/41 30/16/42
f 8/15/43 9/17/44 30/16/45
f 30/16/46 9/17/47 31/18/48
f 9/17/49 10/19/50 31/18/51
f 31/18/52 10/19/53 32/20/54
f 10/19/55 11/21/56 32/20/57
f 32/20/58 11/21/59 33/22/60
f 11/21/61 12/23/62 33/22/63
f 33/22/64 12/23/65 34/24/66
f 12/23/67 13/25/68 34/24/69
f 34/24/70 13/25/71 35/26/72
f 13/25/73 14/27/74 35/26/75
f 35/26/76 14/27/77 36/28/78
f 14/27/79 15/29/80 36/28/81
f 36/28/82 15/29/83 37/30/84
f 15/29/85 16/31/86 37/30/87
f 37/30/88 16/31/89 38/32/90
f 16/31/91 17/33/92 38/32/93
f 38/32/94 17/33/95 39/34/96
f 17/33/97 18/35/98 39/34/99
f 39/34/100 18/35/101 40/36/102
f 18/35/103 19/37/104 40/36/105
f 40/36/106 19/37/107 41/38/108
f 19/37/109 20/39/110 41/38/111
f 41/38/112 20/39/113 42/40/114
f 20/39/115 21/41/116 42/40/117
f 42/40/118 21/41/119 43/42/120
f 21/41/121 22/43/122 43/42/123
f 43/42/124 22/43/125 44/44/126
f 22/43/127 1/45/128 44/44/129
f 44/44/130 1/45/131 23/46/132
f 2/47/133 1/48/134 45/49/135
f 3/50/136 2/47/137 45/49/138
f 4/51/139 3/50/140 45/49/141
f 5/52/142 4/51/143 45/49/144
f 6/53/145 5/52/146 45/49/147
f 7/54/148 6/53/149 45/49/150
f 8/55/151 7/54/152 45/49/153
f 9/56/154 8/55/155 45/49/156
f 10/57/157 9/56/158 45/49/159
f 11/58/160 10/57/161 45/49/162
f 12/59/163 11/58/164 45/49/165
f 13/60/166 12/59/167 45/49/168
f 14/61/169 13/60/170 45/49/171
f 15/62/172 14/61/173 45/49/174
f 16/63/175 15/62/176 45/49/177
f 17/64/178 16/63/179 45/49/180
f 18/65/181 17/64/182 45/49/183
f 19/66/184 18/65/185 45/49/186
f 20/67/187 19/66/188 45/49/189
f 21/68/190 20/67/191 45/49/192
f 22/69/193 21/68/194 45/49/195
f 1/48/196 22/69/197 45/49/198
f 23/70/199 24/71/200 46/72/201
f 24/71/202 25/73/203 46/72/204
f 25/73/205 26/74/206 46/72/207
f 26/74/208 27/75/209 46/72/210
f 27/75/211 28/76/212 46/72/213
f 28/76/214 29/77/215 46/72/216
f 29/77/217 30/78/218 46/72/219
f 30/78/220 31/79/221 46/72/222
f 31/79/223 32/80/224 46/72/225
f 32/80/226 33/81/227 46/72/228
f 33/81/229 34/82/230 46/72/231
f 34/82/232 35/83/233 46/72/234
f 35/83/235 36/84/236 46/72/237
f 36/84/238 37/85/239 46/72/240
f 37/85/241 38/86/242 46/72/243
f 38/86/244 39/87/245 46/72/246
f 39/87/247 40/88/248 46/72/249
f 40/88/250 41/89/251 46/72/252
f 41/89/253 42/90/254 46/72/255
f 42/90/256 43/91/257 46/72/258
f 43/91/259 44/92/260 46/72/261
f 44/92/262 23/70/263 46/72/264
