# This file uses centimeters as units for non-parametric coordinates.

mtllib bottle_redbull_aluminum_Physx_1.mtl
g default
v 2.370723 1.055513 0.000000
v 1.736447 1.928519 0.000000
v 0.801924 2.468067 0.000000
v -0.271259 2.580863 0.000000
v -1.297539 2.247405 0.000000
v -2.099463 1.525349 0.000000
v -2.538371 0.539548 0.000000
v -2.538371 -0.539547 0.000000
v -2.099463 -1.525349 0.000000
v -1.297540 -2.247405 0.000000
v -0.271260 -2.580863 0.000000
v 0.801924 -2.468067 0.000000
v 1.736447 -1.928520 0.000000
v 2.370723 -1.055514 0.000000
v 2.595080 0.000000 0.000000
v 2.370723 1.055513 13.479408
v 1.736447 1.928519 13.479408
v 0.801924 2.468067 13.479408
v -0.271259 2.580863 13.479409
v -1.297539 2.247405 13.479408
v -2.099463 1.525349 13.479408
v -2.538371 0.539548 13.479408
v -2.538371 -0.539547 13.479408
v -2.099463 -1.525349 13.479408
v -1.297540 -2.247405 13.479408
v -0.271260 -2.580862 13.479408
v 0.801924 -2.468067 13.479408
v 1.736447 -1.928520 13.479408
v 2.370723 -1.055514 13.479408
v 2.595080 0.000000 13.479408
v 0.000000 0.000000 0.000000
v 0.000000 0.000000 13.479408
vt 0.375000 0.312500
vt 0.391667 0.312500
vt 0.375000 0.688440
vt 0.391667 0.688440
vt 0.408333 0.312500
vt 0.408333 0.688440
vt 0.425000 0.312500
vt 0.425000 0.688440
vt 0.441667 0.312500
vt 0.441667 0.688440
vt 0.458333 0.312500
vt 0.458333 0.688440
vt 0.475000 0.312500
vt 0.475000 0.688440
vt 0.491667 0.312500
vt 0.491667 0.688440
vt 0.508333 0.312500
vt 0.508333 0.688440
vt 0.525000 0.312500
vt 0.525000 0.688440
vt 0.541667 0.312500
vt 0.541667 0.688440
vt 0.558333 0.312500
vt 0.558333 0.688440
vt 0.575000 0.312500
vt 0.575000 0.688440
vt 0.591667 0.312500
vt 0.591667 0.688440
vt 0.608333 0.312500
vt 0.608333 0.688440
vt 0.625000 0.312500
vt 0.625000 0.688440
vt 0.604552 0.040134
vt 0.642741 0.092697
vt 0.500000 0.150000
vt 0.548284 0.007647
vt 0.483667 0.000856
vt 0.421875 0.020934
vt 0.373591 0.064409
vt 0.347164 0.123764
vt 0.347164 0.188736
vt 0.373591 0.248091
vt 0.421875 0.291566
vt 0.483667 0.311644
vt 0.548284 0.304853
vt 0.604552 0.272366
vt 0.642741 0.219803
vt 0.656250 0.156250
vt 0.642741 0.907303
vt 0.604552 0.959866
vt 0.500000 0.837500
vt 0.548284 0.992353
vt 0.483667 0.999144
vt 0.421875 0.979066
vt 0.373591 0.935591
vt 0.347164 0.876236
vt 0.347164 0.811264
vt 0.373591 0.751909
vt 0.421875 0.708434
vt 0.483667 0.688356
vt 0.548284 0.695147
vt 0.604552 0.727634
vt 0.642741 0.780197
vt 0.656250 0.843750
vn 0.913545 0.406737 -0.000000
vn 0.669131 0.743145 -0.000000
vn 0.913545 0.406737 -0.000000
vn 0.913545 0.406737 -0.000000
vn 0.669131 0.743145 -0.000000
vn 0.669131 0.743145 -0.000000
vn 0.669131 0.743145 -0.000000
vn 0.309017 0.951056 -0.000000
vn 0.669131 0.743145 -0.000000
vn 0.669131 0.743145 -0.000000
vn 0.309017 0.951056 -0.000000
vn 0.309017 0.951056 -0.000000
vn 0.309017 0.951056 -0.000000
vn -0.104528 0.994522 -0.000000
vn 0.309017 0.951056 -0.000000
vn 0.309017 0.951056 -0.000000
vn -0.104528 0.994522 -0.000000
vn -0.104528 0.994522 -0.000000
vn -0.104528 0.994522 -0.000000
vn -0.500000 0.866025 -0.000000
vn -0.104528 0.994522 -0.000000
vn -0.104528 0.994522 -0.000000
vn -0.500000 0.866025 -0.000000
vn -0.500000 0.866026 -0.000000
vn -0.500000 0.866025 -0.000000
vn -0.809017 0.587785 -0.000000
vn -0.500000 0.866026 -0.000000
vn -0.500000 0.866026 -0.000000
vn -0.809017 0.587785 -0.000000
vn -0.809017 0.587785 -0.000000
vn -0.809017 0.587785 -0.000000
vn -0.978148 0.207912 -0.000000
vn -0.809017 0.587785 -0.000000
vn -0.809017 0.587785 -0.000000
vn -0.978148 0.207912 -0.000000
vn -0.978148 0.207912 -0.000000
vn -0.978148 0.207912 -0.000000
vn -0.978148 -0.207912 0.000000
vn -0.978148 0.207912 -0.000000
vn -0.978148 0.207912 -0.000000
vn -0.978148 -0.207912 0.000000
vn -0.978148 -0.207912 0.000000
vn -0.978148 -0.207912 0.000000
vn -0.809017 -0.587785 0.000000
vn -0.978148 -0.207912 0.000000
vn -0.978148 -0.207912 0.000000
vn -0.809017 -0.587785 0.000000
vn -0.809017 -0.587785 0.000000
vn -0.809017 -0.587785 0.000000
vn -0.500000 -0.866025 0.000000
vn -0.809017 -0.587785 0.000000
vn -0.809017 -0.587785 0.000000
vn -0.500000 -0.866025 0.000000
vn -0.500000 -0.866026 0.000000
vn -0.500000 -0.866025 0.000000
vn -0.104529 -0.994522 0.000000
vn -0.500000 -0.866026 0.000000
vn -0.500000 -0.866026 0.000000
vn -0.104529 -0.994522 0.000000
vn -0.104529 -0.994522 0.000000
vn -0.104529 -0.994522 0.000000
vn 0.309017 -0.951057 0.000000
vn -0.104529 -0.994522 0.000000
vn -0.104529 -0.994522 0.000000
vn 0.309017 -0.951057 0.000000
vn 0.309017 -0.951057 0.000000
vn 0.309017 -0.951057 0.000000
vn 0.669131 -0.743145 0.000000
vn 0.309017 -0.951057 0.000000
vn 0.309017 -0.951057 0.000000
vn 0.669131 -0.743145 0.000000
vn 0.669131 -0.743145 0.000000
vn 0.669131 -0.743145 0.000000
vn 0.913545 -0.406737 0.000000
vn 0.669131 -0.743145 0.000000
vn 0.669131 -0.743145 0.000000
vn 0.913545 -0.406737 0.000000
vn 0.913545 -0.406737 0.000000
vn 0.913545 -0.406737 0.000000
vn 1.000000 0.000000 0.000000
vn 0.913545 -0.406737 0.000000
vn 0.913545 -0.406737 0.000000
vn 1.000000 0.000000 0.000000
vn 1.000000 0.000000 0.000000
vn 1.000000 0.000000 0.000000
vn 0.913545 0.406737 -0.000000
vn 1.000000 0.000000 0.000000
vn 1.000000 0.000000 0.000000
vn 0.913545 0.406737 -0.000000
vn 0.913545 0.406737 -0.000000
vn 0.000000 -0.000000 -1.000000
vn 0.000000 -0.000000 -1.000000
vn 0.000000 -0.000000 -1.000000
vn 0.000000 -0.000000 -1.000000
vn 0.000000 -0.000000 -1.000000
vn 0.000000 -0.000000 -1.000000
vn 0.000000 -0.000000 -1.000000
vn 0.000000 -0.000000 -1.000000
vn 0.000000 -0.000000 -1.000000
vn 0.000000 -0.000000 -1.000000
vn 0.000000 -0.000000 -1.000000
vn 0.000000 -0.000000 -1.000000
vn 0.000000 -0.000000 -1.000000
vn 0.000000 -0.000000 -1.000000
vn 0.000000 -0.000000 -1.000000
vn 0.000000 -0.000000 -1.000000
vn 0.000000 -0.000000 -1.000000
vn 0.000000 -0.000000 -1.000000
vn 0.000000 -0.000000 -1.000000
vn 0.000000 -0.000000 -1.000000
vn 0.000000 -0.000000 -1.000000
vn 0.000000 -0.000000 -1.000000
vn 0.000000 -0.000000 -1.000000
vn 0.000000 -0.000000 -1.000000
vn 0.000000 -0.000000 -1.000000
vn 0.000000 -0.000000 -1.000000
vn 0.000000 -0.000000 -1.000000
vn 0.000000 -0.000000 -1.000000
vn 0.000000 -0.000000 -1.000000
vn 0.000000 -0.000000 -1.000000
vn 0.000000 -0.000000 -1.000000
vn 0.000000 -0.000000 -1.000000
vn 0.000000 -0.000000 -1.000000
vn 0.000000 -0.000000 -1.000000
vn 0.000000 -0.000000 -1.000000
vn 0.000000 -0.000000 -1.000000
vn 0.000000 -0.000000 -1.000000
vn 0.000000 -0.000000 -1.000000
vn 0.000000 -0.000000 -1.000000
vn 0.000000 -0.000000 -1.000000
vn 0.000000 -0.000000 -1.000000
vn 0.000000 -0.000000 -1.000000
vn 0.000000 -0.000000 -1.000000
vn 0.000000 -0.000000 -1.000000
vn 0.000000 -0.000000 -1.000000
vn 0.000000 0.000000 1.000000
vn 0.000000 0.000000 1.000000
vn 0.000000 0.000000 1.000000
vn 0.000000 0.000000 1.000000
vn 0.000000 0.000000 1.000000
vn 0.000000 0.000000 1.000000
vn 0.000000 0.000000 1.000000
vn 0.000000 0.000000 1.000000
vn 0.000000 0.000000 1.000000
vn 0.000000 0.000000 1.000000
vn 0.000000 0.000000 1.000000
vn 0.000000 0.000000 1.000000
vn 0.000000 0.000000 1.000000
vn 0.000000 0.000000 1.000000
vn 0.000000 0.000000 1.000000
vn 0.000000 0.000000 1.000000
vn 0.000000 0.000000 1.000000
vn 0.000000 0.000000 1.000000
vn 0.000000 0.000000 1.000000
vn 0.000000 0.000000 1.000000
vn 0.000000 0.000000 1.000000
vn 0.000000 0.000000 1.000000
vn 0.000000 0.000000 1.000000
vn 0.000000 0.000000 1.000000
vn 0.000000 0.000000 1.000000
vn 0.000000 0.000001 1.000000
vn 0.000000 0.000000 1.000000
vn 0.000000 0.000001 1.000000
vn 0.000000 0.000001 1.000000
vn 0.000000 0.000000 1.000000
vn 0.000000 0.000001 1.000000
vn 0.000000 0.000000 1.000000
vn 0.000000 0.000000 1.000000
vn 0.000000 0.000000 1.000000
vn 0.000000 0.000000 1.000000
vn 0.000000 0.000000 1.000000
vn 0.000000 0.000000 1.000000
vn 0.000000 0.000000 1.000000
vn 0.000000 0.000000 1.000000
vn 0.000000 0.000000 1.000000
vn 0.000000 0.000000 1.000000
vn 0.000000 0.000000 1.000000
vn 0.000000 0.000000 1.000000
vn 0.000000 0.000000 1.000000
vn 0.000000 0.000000 1.000000
s off
g bottle_redbull_aluminum_Physx_1
usemtl BottleMetalRedbull_Physx_01:initialShadingGroup
f 1/1/1 2/2/2 16/3/3
f 16/3/4 2/2/5 17/4/6
f 2/2/7 3/5/8 17/4/9
f 17/4/10 3/5/11 18/6/12
f 3/5/13 4/7/14 18/6/15
f 18/6/16 4/7/17 19/8/18
f 4/7/19 5/9/20 19/8/21
f 19/8/22 5/9/23 20/10/24
f 5/9/25 6/11/26 20/10/27
f 20/10/28 6/11/29 21/12/30
f 6/11/31 7/13/32 21/12/33
f 21/12/34 7/13/35 22/14/36
f 7/13/37 8/15/38 22/14/39
f 22/14/40 8/15/41 23/16/42
f 8/15/43 9/17/44 23/16/45
f 23/16/46 9/17/47 24/18/48
f 9/17/49 10/19/50 24/18/51
f 24/18/52 10/19/53 25/20/54
f 10/19/55 11/21/56 25/20/57
f 25/20/58 11/21/59 26/22/60
f 11/21/61 12/23/62 26/22/63
f 26/22/64 12/23/65 27/24/66
f 12/23/67 13/25/68 27/24/69
f 27/24/70 13/25/71 28/26/72
f 13/25/73 14/27/74 28/26/75
f 28/26/76 14/27/77 29/28/78
f 14/27/79 15/29/80 29/28/81
f 29/28/82 15/29/83 30/30/84
f 15/29/85 1/31/86 30/30/87
f 30/30/88 1/31/89 16/32/90
f 2/33/91 1/34/92 31/35/93
f 3/36/94 2/33/95 31/35/96
f 4/37/97 3/36/98 31/35/99
f 5/38/100 4/37/101 31/35/102
f 6/39/103 5/38/104 31/35/105
f 7/40/106 6/39/107 31/35/108
f 8/41/109 7/40/110 31/35/111
f 9/42/112 8/41/113 31/35/114
f 10/43/115 9/42/116 31/35/117
f 11/44/118 10/43/119 31/35/120
f 12/45/121 11/44/122 31/35/123
f 13/46/124 12/45/125 31/35/126
f 14/47/127 13/46/128 31/35/129
f 15/48/130 14/47/131 31/35/132
f 1/34/133 15/48/134 31/35/135
f 16/49/136 17/50/137 32/51/138
f 17/50/139 18/52/140 32/51/141
f 18/52/142 19/53/143 32/51/144
f 19/53/145 20/54/146 32/51/147
f 20/54/148 21/55/149 32/51/150
f 21/55/151 22/56/152 32/51/153
f 22/56/154 23/57/155 32/51/156
f 23/57/157 24/58/158 32/51/159
f 24/58/160 25/59/161 32/51/162
f 25/59/163 26/60/164 32/51/165
f 26/60/166 27/61/167 32/51/168
f 27/61/169 28/62/170 32/51/171
f 28/62/172 29/63/173 32/51/174
f 29/63/175 30/64/176 32/51/177
f 30/64/178 16/49/179 32/51/180
