# This file uses centimeters as units for non-parametric coordinates.

mtllib bottle_cola_plastic1_Physx_1.mtl
g default
v 4.469688 1.989740 1.669115
v 3.274020 3.635437 1.669115
v 1.512357 4.652534 1.669115
v -0.510693 4.865166 1.669115
v -2.445325 4.236566 1.669115
v -3.957026 2.875425 1.669115
v -4.784407 1.017097 1.669115
v -4.784407 -1.017096 1.669115
v -3.957026 -2.875424 1.669115
v -2.445327 -4.236566 1.669115
v -0.510694 -4.865166 1.669115
v 1.512356 -4.652535 1.669115
v 3.274020 -3.635438 1.669115
v 4.469688 -1.989742 1.669115
v 4.892622 0.000000 1.669115
v 4.523881 2.014160 3.409740
v 3.313538 3.680055 3.409740
v 1.530254 4.709635 3.409740
v -0.517624 4.924876 3.409739
v -2.476001 4.288561 3.409740
v -4.006255 2.910715 3.409740
v -4.843791 1.029580 3.409740
v -4.843791 -1.029579 3.409740
v -4.006256 -2.910715 3.409740
v -2.476002 -4.288561 3.409740
v -0.517626 -4.924876 3.409740
v 1.530253 -4.709636 3.409740
v 3.313538 -3.680056 3.409740
v 4.523881 -2.014162 3.409740
v 4.952004 0.000000 3.409740
v 3.672800 1.634990 0.000000
v 2.690310 2.987281 0.000000
v 0.000000 0.000000 0.000000
v 1.242734 3.823048 0.000000
v -0.419633 3.997780 0.000000
v -2.009354 3.481256 0.000000
v -3.251548 2.362788 0.000000
v -3.931426 0.835768 0.000000
v -3.931427 -0.835767 0.000000
v -3.251549 -2.362788 0.000000
v -2.009355 -3.481256 0.000000
v -0.419634 -3.997780 0.000000
v 1.242733 -3.823049 0.000000
v 2.690310 -2.987282 0.000000
v 3.672801 -1.634992 0.000000
v 4.020327 0.000000 0.000000
v 3.052447 3.390084 6.444757
v 4.167421 1.855454 6.444757
v 1.409678 4.338539 6.444757
v -0.476838 4.536819 6.444757
v -2.280904 3.950644 6.444757
v -3.690581 2.681365 6.444757
v -4.462124 0.948454 6.444757
v -4.462124 -0.948453 6.444757
v -3.690583 -2.681365 6.444757
v -2.280905 -3.950643 6.444757
v -0.476839 -4.536820 6.444757
v 1.409677 -4.338540 6.444757
v 3.052447 -3.390086 6.444757
v 4.167421 -1.855455 6.444757
v 4.561810 0.000000 6.444757
vt 0.375000 0.312500
vt 0.391667 0.312500
vt 0.375000 0.688440
vt 0.391667 0.688440
vt 0.408333 0.312500
vt 0.408333 0.688440
vt 0.425000 0.312500
vt 0.425000 0.688440
vt 0.441667 0.312500
vt 0.441667 0.688440
vt 0.458333 0.312500
vt 0.458333 0.688440
vt 0.475000 0.312500
vt 0.475000 0.688440
vt 0.491667 0.312500
vt 0.491667 0.688440
vt 0.508333 0.312500
vt 0.508333 0.688440
vt 0.525000 0.312500
vt 0.525000 0.688440
vt 0.541667 0.312500
vt 0.541667 0.688440
vt 0.558333 0.312500
vt 0.558333 0.688440
vt 0.575000 0.312500
vt 0.575000 0.688440
vt 0.591667 0.312500
vt 0.591667 0.688440
vt 0.608333 0.312500
vt 0.608333 0.688440
vt 0.625000 0.312500
vt 0.625000 0.688440
vt 0.604552 0.040134
vt 0.642741 0.092697
vt 0.500000 0.150000
vt 0.548284 0.007647
vt 0.483667 0.000856
vt 0.421875 0.020934
vt 0.373591 0.064409
vt 0.347164 0.123764
vt 0.347164 0.188736
vt 0.373591 0.248091
vt 0.421875 0.291566
vt 0.483667 0.311644
vt 0.548284 0.304853
vt 0.604552 0.272366
vt 0.642741 0.219803
vt 0.656250 0.156250
vt 0.604552 0.040134
vt 0.642741 0.092697
vt 0.548284 0.007647
vt 0.483667 0.000856
vt 0.421875 0.020934
vt 0.373591 0.064409
vt 0.347164 0.123764
vt 0.347164 0.188736
vt 0.373591 0.248091
vt 0.421875 0.291566
vt 0.483667 0.311644
vt 0.548284 0.304853
vt 0.604552 0.272366
vt 0.642741 0.219803
vt 0.656250 0.156250
vt 0.642741 0.907303
vt 0.604552 0.959866
vt 0.642741 0.907303
vt 0.604552 0.959866
vt 0.548284 0.992353
vt 0.548284 0.992353
vt 0.483667 0.999144
vt 0.483667 0.999144
vt 0.421875 0.979066
vt 0.421875 0.979066
vt 0.373591 0.935591
vt 0.373591 0.935591
vt 0.347164 0.876236
vt 0.347164 0.876236
vt 0.347164 0.811264
vt 0.347164 0.811264
vt 0.373591 0.751909
vt 0.373591 0.751909
vt 0.421875 0.708434
vt 0.421875 0.708434
vt 0.483667 0.688356
vt 0.483667 0.688356
vt 0.548284 0.695147
vt 0.548284 0.695147
vt 0.604552 0.727634
vt 0.604552 0.727634
vt 0.642741 0.780197
vt 0.642741 0.780197
vt 0.656250 0.843750
vt 0.656250 0.843750
vn 0.886083 0.389610 -0.251121
vn 0.651009 0.716315 -0.251157
vn 0.910750 0.407285 0.068221
vn 0.910750 0.407285 0.068221
vn 0.651009 0.716315 -0.251157
vn 0.666350 0.742514 0.068188
vn 0.651009 0.716315 -0.251157
vn 0.303377 0.919160 -0.251210
vn 0.666350 0.742514 0.068188
vn 0.666350 0.742514 0.068188
vn 0.303377 0.919160 -0.251210
vn 0.306731 0.949354 0.068138
vn 0.303377 0.919160 -0.251210
vn -0.096705 0.963074 -0.251271
vn 0.306731 0.949354 0.068138
vn 0.306731 0.949354 0.068138
vn -0.096705 0.963074 -0.251271
vn -0.105926 0.992041 0.068082
vn -0.096705 0.963074 -0.251271
vn -0.480058 0.840463 -0.251330
vn -0.105926 0.992041 0.068082
vn -0.105926 0.992041 0.068082
vn -0.480058 0.840463 -0.251330
vn -0.500267 0.863195 0.068028
vn -0.480058 0.840463 -0.251330
vn -0.780397 0.572530 -0.251376
vn -0.500267 0.863195 0.068028
vn -0.500267 0.863195 0.068028
vn -0.780397 0.572530 -0.251376
vn -0.808109 0.585096 0.067986
vn -0.780397 0.572530 -0.251376
vn -0.945793 0.205604 -0.251401
vn -0.808109 0.585096 0.067986
vn -0.808109 0.585096 0.067986
vn -0.945793 0.205604 -0.251401
vn -0.976225 0.205832 0.067962
vn -0.945793 0.205604 -0.251401
vn -0.947649 -0.196873 -0.251401
vn -0.976225 0.205832 0.067962
vn -0.976225 0.205832 0.067962
vn -0.947649 -0.196873 -0.251401
vn -0.975546 -0.209022 0.067962
vn -0.947649 -0.196873 -0.251401
vn -0.785644 -0.565309 -0.251376
vn -0.975546 -0.209022 0.067962
vn -0.975546 -0.209022 0.067962
vn -0.785644 -0.565309 -0.251376
vn -0.806192 -0.587735 0.067986
vn -0.785644 -0.565309 -0.251376
vn -0.487788 -0.836000 -0.251330
vn -0.806192 -0.587735 0.067986
vn -0.806192 -0.587735 0.067986
vn -0.487788 -0.836000 -0.251330
vn -0.497442 -0.864826 0.068028
vn -0.487788 -0.836000 -0.251330
vn -0.105583 -0.962141 -0.251272
vn -0.497442 -0.864826 0.068028
vn -0.497442 -0.864826 0.068028
vn -0.105583 -0.962141 -0.251272
vn -0.102682 -0.992382 0.068082
vn -0.105583 -0.962141 -0.251272
vn 0.294886 -0.921919 -0.251211
vn -0.102682 -0.992382 0.068082
vn -0.102682 -0.992382 0.068082
vn 0.294886 -0.921919 -0.251211
vn 0.309833 -0.948346 0.068138
vn 0.294886 -0.921919 -0.251211
vn 0.644375 -0.722288 -0.251158
vn 0.309833 -0.948346 0.068138
vn 0.309833 -0.948346 0.068138
vn 0.644375 -0.722288 -0.251158
vn 0.668774 -0.740332 0.068187
vn 0.644375 -0.722288 -0.251158
vn 0.882452 -0.397765 -0.251121
vn 0.668774 -0.740332 0.068187
vn 0.668774 -0.740332 0.068187
vn 0.882452 -0.397765 -0.251121
vn 0.912076 -0.404306 0.068221
vn 0.882452 -0.397765 -0.251121
vn 0.967949 -0.004464 -0.251109
vn 0.912076 -0.404306 0.068221
vn 0.912076 -0.404306 0.068221
vn 0.967949 -0.004464 -0.251109
vn 0.997668 0.001631 0.068233
vn 0.967949 -0.004464 -0.251109
vn 0.886083 0.389610 -0.251121
vn 0.997668 0.001631 0.068233
vn 0.997668 0.001631 0.068233
vn 0.886083 0.389610 -0.251121
vn 0.910750 0.407285 0.068221
vn 0.000000 -0.000000 -1.000000
vn 0.000000 -0.000000 -1.000000
vn 0.000000 -0.000000 -1.000000
vn 0.000000 -0.000000 -1.000000
vn 0.000000 -0.000000 -1.000000
vn 0.000000 -0.000000 -1.000000
vn 0.000000 -0.000000 -1.000000
vn 0.000000 -0.000000 -1.000000
vn 0.000000 -0.000000 -1.000000
vn 0.000000 -0.000000 -1.000000
vn 0.000000 -0.000000 -1.000000
vn 0.000000 -0.000000 -1.000000
vn 0.000000 -0.000000 -1.000000
vn 0.000000 -0.000000 -1.000000
vn 0.000000 -0.000000 -1.000000
vn 0.000000 -0.000000 -1.000000
vn 0.000000 -0.000000 -1.000000
vn 0.000000 -0.000000 -1.000000
vn 0.000000 -0.000000 -1.000000
vn 0.000000 -0.000000 -1.000000
vn 0.000000 -0.000000 -1.000000
vn 0.000000 -0.000000 -1.000000
vn 0.000000 -0.000000 -1.000000
vn 0.000000 -0.000000 -1.000000
vn 0.000000 -0.000000 -1.000000
vn 0.000000 -0.000000 -1.000000
vn 0.000000 -0.000000 -1.000000
vn 0.000000 -0.000000 -1.000000
vn 0.000000 -0.000000 -1.000000
vn 0.000000 -0.000000 -1.000000
vn 0.000000 -0.000000 -1.000000
vn 0.000000 -0.000000 -1.000000
vn 0.000000 -0.000000 -1.000000
vn 0.000000 -0.000000 -1.000000
vn 0.000000 -0.000000 -1.000000
vn 0.000000 -0.000000 -1.000000
vn 0.000000 -0.000000 -1.000000
vn 0.000000 -0.000000 -1.000000
vn 0.000000 -0.000000 -1.000000
vn 0.000000 -0.000000 -1.000000
vn 0.000000 -0.000000 -1.000000
vn 0.000000 -0.000000 -1.000000
vn 0.000000 -0.000000 -1.000000
vn 0.000000 -0.000000 -1.000000
vn 0.000000 -0.000000 -1.000000
vn 0.651009 0.716315 -0.251157
vn 0.886083 0.389610 -0.251121
vn 0.600553 0.651802 -0.463131
vn 0.600553 0.651802 -0.463131
vn 0.886083 0.389610 -0.251121
vn 0.813738 0.351181 -0.463144
vn 0.303377 0.919160 -0.251210
vn 0.651009 0.716315 -0.251157
vn 0.283523 0.839727 -0.463113
vn 0.283523 0.839727 -0.463113
vn 0.651009 0.716315 -0.251157
vn 0.600553 0.651802 -0.463131
vn -0.096705 0.963074 -0.251271
vn 0.303377 0.919160 -0.251210
vn -0.082538 0.882460 -0.463090
vn -0.082538 0.882460 -0.463090
vn 0.303377 0.919160 -0.251210
vn 0.283523 0.839727 -0.463113
vn -0.480058 0.840463 -0.251330
vn -0.096705 0.963074 -0.251271
vn -0.434337 0.772605 -0.463069
vn -0.434337 0.772605 -0.463069
vn -0.096705 0.963074 -0.251271
vn -0.082538 0.882460 -0.463090
vn -0.780397 0.572530 -0.251376
vn -0.480058 0.840463 -0.251330
vn -0.711040 0.529155 -0.463052
vn -0.711040 0.529155 -0.463052
vn -0.480058 0.840463 -0.251330
vn -0.434337 0.772605 -0.463069
vn -0.945793 0.205604 -0.251401
vn -0.780397 0.572530 -0.251376
vn -0.864798 0.194204 -0.463043
vn -0.864798 0.194204 -0.463043
vn -0.780397 0.572530 -0.251376
vn -0.711040 0.529155 -0.463052
vn -0.947649 -0.196873 -0.251401
vn -0.945793 0.205604 -0.251401
vn -0.869023 -0.174330 -0.463042
vn -0.869023 -0.174330 -0.463042
vn -0.945793 0.205604 -0.251401
vn -0.864798 0.194204 -0.463043
vn -0.785644 -0.565309 -0.251376
vn -0.947649 -0.196873 -0.251401
vn -0.722983 -0.512718 -0.463051
vn -0.722983 -0.512718 -0.463051
vn -0.947649 -0.196873 -0.251401
vn -0.869023 -0.174330 -0.463042
vn -0.487788 -0.836000 -0.251330
vn -0.785644 -0.565309 -0.251376
vn -0.451933 -0.762447 -0.463067
vn -0.451933 -0.762447 -0.463067
vn -0.785644 -0.565309 -0.251376
vn -0.722983 -0.512718 -0.463051
vn -0.105583 -0.962141 -0.251272
vn -0.487788 -0.836000 -0.251330
vn -0.102745 -0.880337 -0.463087
vn -0.102745 -0.880337 -0.463087
vn -0.487788 -0.836000 -0.251330
vn -0.451933 -0.762447 -0.463067
vn 0.294886 -0.921919 -0.251211
vn -0.105583 -0.962141 -0.251272
vn 0.264200 -0.846007 -0.463110
vn 0.264200 -0.846007 -0.463110
vn -0.105583 -0.962141 -0.251272
vn -0.102745 -0.880337 -0.463087
vn 0.644375 -0.722288 -0.251158
vn 0.294886 -0.921919 -0.251211
vn 0.585454 -0.665398 -0.463129
vn 0.585454 -0.665398 -0.463129
vn 0.294886 -0.921919 -0.251211
vn 0.264200 -0.846007 -0.463110
vn 0.882452 -0.397765 -0.251121
vn 0.644375 -0.722288 -0.251158
vn 0.805475 -0.369742 -0.463143
vn 0.805475 -0.369742 -0.463143
vn 0.644375 -0.722288 -0.251158
vn 0.585454 -0.665398 -0.463129
vn 0.967949 -0.004464 -0.251109
vn 0.882452 -0.397765 -0.251121
vn 0.886223 -0.010159 -0.463148
vn 0.886223 -0.010159 -0.463148
vn 0.882452 -0.397765 -0.251121
vn 0.805475 -0.369742 -0.463143
vn 0.886083 0.389610 -0.251121
vn 0.967949 -0.004464 -0.251109
vn 0.813738 0.351181 -0.463144
vn 0.813738 0.351181 -0.463144
vn 0.967949 -0.004464 -0.251109
vn 0.886223 -0.010159 -0.463148
vn 0.910750 0.407285 0.068221
vn 0.666350 0.742514 0.068188
vn 0.904726 0.406462 0.127514
vn 0.904726 0.406462 0.127514
vn 0.666350 0.742514 0.068188
vn 0.661186 0.739306 0.127514
vn 0.666350 0.742514 0.068188
vn 0.306731 0.949354 0.068138
vn 0.661186 0.739306 0.127514
vn 0.661186 0.739306 0.127514
vn 0.306731 0.949354 0.068138
vn 0.303320 0.944318 0.127514
vn 0.306731 0.949354 0.068138
vn -0.105926 0.992041 0.068082
vn 0.303320 0.944318 0.127514
vn 0.303320 0.944318 0.127514
vn -0.105926 0.992041 0.068082
vn -0.106992 0.986049 0.127514
vn -0.105926 0.992041 0.068082
vn -0.500267 0.863195 0.068028
vn -0.106992 0.986049 0.127514
vn -0.106992 0.986049 0.127514
vn -0.500267 0.863195 0.068028
vn -0.498804 0.857283 0.127514
vn -0.500267 0.863195 0.068028
vn -0.808109 0.585096 0.067986
vn -0.498804 0.857283 0.127514
vn -0.498804 0.857283 0.127514
vn -0.808109 0.585096 0.067986
vn -0.804369 0.580285 0.127514
vn -0.808109 0.585096 0.067986
vn -0.976225 0.205832 0.067962
vn -0.804369 0.580285 0.127514
vn -0.804369 0.580285 0.127514
vn -0.976225 0.205832 0.067962
vn -0.970851 0.202950 0.127514
vn -0.976225 0.205832 0.067962
vn -0.975546 -0.209022 0.067962
vn -0.970851 0.202950 0.127514
vn -0.970851 0.202950 0.127514
vn -0.975546 -0.209022 0.067962
vn -0.969464 -0.209476 0.127514
vn -0.975546 -0.209022 0.067962
vn -0.806192 -0.587735 0.067986
vn -0.969464 -0.209476 0.127514
vn -0.969464 -0.209476 0.127514
vn -0.806192 -0.587735 0.067986
vn -0.800447 -0.585683 0.127514
vn -0.806192 -0.587735 0.067986
vn -0.497442 -0.864826 0.068028
vn -0.800447 -0.585683 0.127514
vn -0.800447 -0.585683 0.127514
vn -0.497442 -0.864826 0.068028
vn -0.493026 -0.860619 0.127514
vn -0.497442 -0.864826 0.068028
vn -0.102682 -0.992382 0.068082
vn -0.493026 -0.860619 0.127514
vn -0.493026 -0.860619 0.127514
vn -0.102682 -0.992382 0.068082
vn -0.100357 -0.986747 0.127514
vn -0.102682 -0.992382 0.068082
vn 0.309833 -0.948346 0.068138
vn -0.100357 -0.986747 0.127514
vn -0.100357 -0.986747 0.127514
vn 0.309833 -0.948346 0.068138
vn 0.309665 -0.942257 0.127514
vn 0.309833 -0.948346 0.068138
vn 0.668774 -0.740332 0.068187
vn 0.309665 -0.942257 0.127514
vn 0.309665 -0.942257 0.127514
vn 0.668774 -0.740332 0.068187
vn 0.666144 -0.734842 0.127514
vn 0.668774 -0.740332 0.068187
vn 0.912076 -0.404306 0.068221
vn 0.666144 -0.734842 0.127514
vn 0.666144 -0.734842 0.127514
vn 0.912076 -0.404306 0.068221
vn 0.907440 -0.400366 0.127514
vn 0.912076 -0.404306 0.068221
vn 0.997668 0.001631 0.068233
vn 0.907440 -0.400366 0.127514
vn 0.907440 -0.400366 0.127514
vn 0.997668 0.001631 0.068233
vn 0.991831 0.003336 0.127514
vn 0.997668 0.001631 0.068233
vn 0.910750 0.407285 0.068221
vn 0.991831 0.003336 0.127514
vn 0.991831 0.003336 0.127514
vn 0.910750 0.407285 0.068221
vn 0.904726 0.406462 0.127514
vn 0.000001 0.000003 1.000000
vn 0.000000 0.000000 1.000000
vn 0.000000 0.000000 1.000000
vn 0.000000 0.000000 1.000000
vn 0.000000 0.000000 1.000000
vn 0.000000 0.000000 1.000000
vn 0.000000 0.000000 1.000000
vn 0.000000 0.000000 1.000000
vn 0.000000 0.000000 1.000000
vn 0.000000 0.000000 1.000000
vn 0.000000 0.000000 1.000000
vn 0.000000 0.000000 1.000000
vn 0.000000 0.000000 1.000000
vn 0.000000 0.000000 1.000000
vn 0.000000 0.000000 1.000000
vn 0.000000 0.000000 1.000000
vn 0.000000 0.000000 1.000000
vn 0.000000 0.000000 1.000000
vn 0.000000 0.000000 1.000000
vn 0.000000 0.000000 1.000000
vn 0.000000 0.000000 1.000000
vn 0.000000 0.000000 1.000000
vn 0.000000 0.000000 1.000000
vn 0.000000 0.000000 1.000000
vn 0.000000 0.000000 1.000000
vn 0.000000 0.000000 1.000000
vn 0.000000 0.000000 1.000000
vn 0.000000 0.000000 1.000000
vn 0.000000 0.000000 1.000000
vn 0.000000 0.000000 1.000000
vn 0.000000 0.000000 1.000000
vn 0.000000 0.000000 1.000000
vn 0.000000 0.000000 1.000000
vn 0.000000 0.000000 1.000000
vn 0.000000 0.000000 1.000000
vn 0.000000 0.000000 1.000000
vn 0.000000 0.000000 1.000000
vn 0.000000 0.000000 1.000000
vn 0.000000 0.000000 1.000000
s off
g bottle_cola_plastic1_Physx_1
usemtl BottlePlasticColaBig_Physx_01:initialShadingGroup
f 1/1/1 2/2/2 16/3/3
f 16/3/4 2/2/5 17/4/6
f 2/2/7 3/5/8 17/4/9
f 17/4/10 3/5/11 18/6/12
f 3/5/13 4/7/14 18/6/15
f 18/6/16 4/7/17 19/8/18
f 4/7/19 5/9/20 19/8/21
f 19/8/22 5/9/23 20/10/24
f 5/9/25 6/11/26 20/10/27
f 20/10/28 6/11/29 21/12/30
f 6/11/31 7/13/32 21/12/33
f 21/12/34 7/13/35 22/14/36
f 7/13/37 8/15/38 22/14/39
f 22/14/40 8/15/41 23/16/42
f 8/15/43 9/17/44 23/16/45
f 23/16/46 9/17/47 24/18/48
f 9/17/49 10/19/50 24/18/51
f 24/18/52 10/19/53 25/20/54
f 10/19/55 11/21/56 25/20/57
f 25/20/58 11/21/59 26/22/60
f 11/21/61 12/23/62 26/22/63
f 26/22/64 12/23/65 27/24/66
f 12/23/67 13/25/68 27/24/69
f 27/24/70 13/25/71 28/26/72
f 13/25/73 14/27/74 28/26/75
f 28/26/76 14/27/77 29/28/78
f 14/27/79 15/29/80 29/28/81
f 29/28/82 15/29/83 30/30/84
f 15/29/85 1/31/86 30/30/87
f 30/30/88 1/31/89 16/32/90
f 32/33/91 31/34/92 33/35/93
f 34/36/94 32/33/95 33/35/96
f 35/37/97 34/36/98 33/35/99
f 36/38/100 35/37/101 33/35/102
f 37/39/103 36/38/104 33/35/105
f 38/40/106 37/39/107 33/35/108
f 39/41/109 38/40/110 33/35/111
f 40/42/112 39/41/113 33/35/114
f 41/43/115 40/42/116 33/35/117
f 42/44/118 41/43/119 33/35/120
f 43/45/121 42/44/122 33/35/123
f 44/46/124 43/45/125 33/35/126
f 45/47/127 44/46/128 33/35/129
f 46/48/130 45/47/131 33/35/132
f 31/34/133 46/48/134 33/35/135
f 2/49/136 1/50/137 32/33/138
f 32/33/139 1/50/140 31/34/141
f 3/51/142 2/49/143 34/36/144
f 34/36/145 2/49/146 32/33/147
f 4/52/148 3/51/149 35/37/150
f 35/37/151 3/51/152 34/36/153
f 5/53/154 4/52/155 36/38/156
f 36/38/157 4/52/158 35/37/159
f 6/54/160 5/53/161 37/39/162
f 37/39/163 5/53/164 36/38/165
f 7/55/166 6/54/167 38/40/168
f 38/40/169 6/54/170 37/39/171
f 8/56/172 7/55/173 39/41/174
f 39/41/175 7/55/176 38/40/177
f 9/57/178 8/56/179 40/42/180
f 40/42/181 8/56/182 39/41/183
f 10/58/184 9/57/185 41/43/186
f 41/43/187 9/57/188 40/42/189
f 11/59/190 10/58/191 42/44/192
f 42/44/193 10/58/194 41/43/195
f 12/60/196 11/59/197 43/45/198
f 43/45/199 11/59/200 42/44/201
f 13/61/202 12/60/203 44/46/204
f 44/46/205 12/60/206 43/45/207
f 14/62/208 13/61/209 45/47/210
f 45/47/211 13/61/212 44/46/213
f 15/63/214 14/62/215 46/48/216
f 46/48/217 14/62/218 45/47/219
f 1/50/220 15/63/221 31/34/222
f 31/34/223 15/63/224 46/48/225
f 16/64/226 17/65/227 48/66/228
f 48/66/229 17/65/230 47/67/231
f 17/65/232 18/68/233 47/67/234
f 47/67/235 18/68/236 49/69/237
f 18/68/238 19/70/239 49/69/240
f 49/69/241 19/70/242 50/71/243
f 19/70/244 20/72/245 50/71/246
f 50/71/247 20/72/248 51/73/249
f 20/72/250 21/74/251 51/73/252
f 51/73/253 21/74/254 52/75/255
f 21/74/256 22/76/257 52/75/258
f 52/75/259 22/76/260 53/77/261
f 22/76/262 23/78/263 53/77/264
f 53/77/265 23/78/266 54/79/267
f 23/78/268 24/80/269 54/79/270
f 54/79/271 24/80/272 55/81/273
f 24/80/274 25/82/275 55/81/276
f 55/81/277 25/82/278 56/83/279
f 25/82/280 26/84/281 56/83/282
f 56/83/283 26/84/284 57/85/285
f 26/84/286 27/86/287 57/85/288
f 57/85/289 27/86/290 58/87/291
f 27/86/292 28/88/293 58/87/294
f 58/87/295 28/88/296 59/89/297
f 28/88/298 29/90/299 59/89/300
f 59/89/301 29/90/302 60/91/303
f 29/90/304 30/92/305 60/91/306
f 60/91/307 30/92/308 61/93/309
f 30/92/310 16/64/311 61/93/312
f 61/93/313 16/64/314 48/66/315
f 47/67/316 49/69/317 48/66/318
f 49/69/319 50/71/320 48/66/321
f 50/71/322 51/73/323 48/66/324
f 51/73/325 52/75/326 48/66/327
f 52/75/328 53/77/329 48/66/330
f 53/77/331 54/79/332 48/66/333
f 54/79/334 55/81/335 48/66/336
f 55/81/337 56/83/338 48/66/339
f 56/83/340 57/85/341 48/66/342
f 57/85/343 58/87/344 48/66/345
f 58/87/346 59/89/347 48/66/348
f 59/89/349 60/91/350 48/66/351
f 60/91/352 61/93/353 48/66/354
