# This file uses centimeters as units for non-parametric coordinates.

mtllib bottle_wine_glass1_Physx_2.mtl
g default
v 1.584807 0.705601 23.678434
v 1.160800 1.289198 23.678434
v 0.536079 1.649883 23.678438
v -0.181334 1.725288 23.678440
v -0.867394 1.502369 23.678434
v -1.403473 1.019686 23.678438
v -1.696879 0.360689 23.678434
v -1.696879 -0.360683 23.678434
v -1.403473 -1.019684 23.678434
v -0.867394 -1.502371 23.678434
v -0.181335 -1.725285 23.678434
v 0.536079 -1.649883 23.678434
v 1.160800 -1.289202 23.678434
v 1.584808 -0.705603 23.678434
v 1.734788 0.000000 23.678434
v 1.187236 0.528591 31.004139
v 0.869611 0.965773 31.004143
v 0.000001 -0.000008 31.004143
v 0.401619 1.235958 31.004143
v -0.135861 1.292446 31.004147
v -0.649804 1.125479 31.004145
v -1.051378 0.763872 31.004145
v -1.271197 0.270182 31.004143
v -1.271193 -0.270201 31.004139
v -1.051392 -0.763880 31.004139
v -0.649796 -1.125481 31.004139
v -0.135844 -1.292477 31.004143
v 0.401596 -1.235989 31.004143
v 0.869597 -0.965788 31.004139
v 1.187236 -0.528591 31.004139
v 1.299591 0.000000 31.004139
vt 0.642741 0.907303
vt 0.604552 0.959866
vt 0.500000 0.837500
vt 0.548284 0.992353
vt 0.483667 0.999144
vt 0.421875 0.979066
vt 0.373591 0.935591
vt 0.347164 0.876236
vt 0.347164 0.811264
vt 0.373591 0.751909
vt 0.421875 0.708434
vt 0.483667 0.688356
vt 0.548284 0.695147
vt 0.604552 0.727634
vt 0.642741 0.780197
vt 0.656250 0.843750
vt 0.642741 0.907303
vt 0.604552 0.959866
vt 0.548284 0.992353
vt 0.483667 0.999144
vt 0.421875 0.979066
vt 0.373591 0.935591
vt 0.347164 0.876236
vt 0.347164 0.811264
vt 0.373591 0.751909
vt 0.421875 0.708434
vt 0.483667 0.688356
vt 0.548284 0.695147
vt 0.604552 0.727634
vt 0.642741 0.780197
vt 0.656250 0.843750
vn 0.000004 -0.000006 1.000000
vn 0.000004 -0.000008 1.000000
vn 0.000001 -0.000001 1.000000
vn 0.000004 -0.000008 1.000000
vn 0.000001 -0.000003 1.000000
vn 0.000001 -0.000001 1.000000
vn 0.000001 -0.000003 1.000000
vn 0.000000 -0.000001 1.000000
vn 0.000001 -0.000001 1.000000
vn 0.000000 -0.000001 1.000000
vn 0.000001 -0.000001 1.000000
vn 0.000001 -0.000001 1.000000
vn 0.000001 -0.000001 1.000000
vn 0.000000 0.000000 1.000000
vn 0.000001 -0.000001 1.000000
vn 0.000000 0.000000 1.000000
vn -0.000001 -0.000006 1.000000
vn 0.000001 -0.000001 1.000000
vn -0.000001 -0.000006 1.000000
vn -0.000002 -0.000006 1.000000
vn 0.000001 -0.000001 1.000000
vn -0.000002 -0.000006 1.000000
vn -0.000002 0.000000 1.000000
vn 0.000001 -0.000001 1.000000
vn -0.000002 0.000000 1.000000
vn -0.000005 0.000000 1.000000
vn 0.000001 -0.000001 1.000000
vn -0.000005 0.000000 1.000000
vn -0.000004 0.000000 1.000000
vn 0.000001 -0.000001 1.000000
vn -0.000004 0.000000 1.000000
vn 0.000003 0.000001 1.000000
vn 0.000001 -0.000001 1.000000
vn 0.000003 0.000001 1.000000
vn 0.000005 0.000004 1.000000
vn 0.000001 -0.000001 1.000000
vn 0.000005 0.000004 1.000000
vn 0.000003 0.000003 1.000000
vn 0.000001 -0.000001 1.000000
vn 0.000003 0.000003 1.000000
vn 0.000003 0.000000 1.000000
vn 0.000001 -0.000001 1.000000
vn 0.000003 0.000000 1.000000
vn 0.000004 -0.000006 1.000000
vn 0.000001 -0.000001 1.000000
vn 0.911424 0.407173 0.059302
vn 0.667016 0.742679 0.059302
vn 0.911053 0.408003 0.059302
vn 0.911053 0.408003 0.059302
vn 0.667016 0.742679 0.059302
vn 0.666330 0.743295 0.059303
vn 0.667016 0.742679 0.059302
vn 0.307276 0.949771 0.059304
vn 0.666330 0.743295 0.059303
vn 0.666330 0.743295 0.059303
vn 0.307276 0.949771 0.059304
vn 0.306381 0.950060 0.059305
vn 0.307276 0.949771 0.059304
vn -0.105602 0.992638 0.059306
vn 0.306381 0.950060 0.059305
vn 0.306381 0.950060 0.059305
vn -0.105602 0.992638 0.059306
vn -0.106486 0.992544 0.059304
vn -0.105602 0.992638 0.059306
vn -0.500212 0.863870 0.059303
vn -0.106486 0.992544 0.059304
vn -0.106486 0.992544 0.059304
vn -0.500212 0.863870 0.059303
vn -0.501005 0.863410 0.059303
vn -0.500212 0.863870 0.059303
vn -0.808332 0.585732 0.059303
vn -0.501005 0.863410 0.059303
vn -0.501005 0.863410 0.059303
vn -0.808332 0.585732 0.059303
vn -0.808880 0.584976 0.059304
vn -0.808332 0.585732 0.059303
vn -0.976688 0.206312 0.059303
vn -0.808880 0.584976 0.059304
vn -0.808880 0.584976 0.059304
vn -0.976688 0.206312 0.059303
vn -0.976874 0.205428 0.059303
vn -0.976688 0.206312 0.059303
vn -0.976163 -0.208779 0.059302
vn -0.976874 0.205428 0.059303
vn -0.976874 0.205428 0.059303
vn -0.976163 -0.208779 0.059302
vn -0.975969 -0.209684 0.059302
vn -0.976163 -0.208779 0.059302
vn -0.806851 -0.587771 0.059302
vn -0.975969 -0.209684 0.059302
vn -0.975969 -0.209684 0.059302
vn -0.806851 -0.587771 0.059302
vn -0.806311 -0.588512 0.059302
vn -0.806851 -0.587771 0.059302
vn -0.498028 -0.865131 0.059302
vn -0.806311 -0.588512 0.059302
vn -0.806311 -0.588512 0.059302
vn -0.498028 -0.865131 0.059302
vn -0.497234 -0.865588 0.059302
vn -0.498028 -0.865131 0.059302
vn -0.103092 -0.992903 0.059302
vn -0.497234 -0.865588 0.059302
vn -0.497234 -0.865588 0.059302
vn -0.103092 -0.992903 0.059302
vn -0.102182 -0.992997 0.059302
vn -0.103092 -0.992903 0.059302
vn 0.309671 -0.948993 0.059302
vn -0.102182 -0.992997 0.059302
vn -0.102182 -0.992997 0.059302
vn 0.309671 -0.948993 0.059302
vn 0.310545 -0.948707 0.059302
vn 0.309671 -0.948993 0.059302
vn 0.668890 -0.740992 0.059302
vn 0.310545 -0.948707 0.059302
vn 0.310545 -0.948707 0.059302
vn 0.668890 -0.740992 0.059302
vn 0.669573 -0.740375 0.059302
vn 0.668890 -0.740992 0.059302
vn 0.912451 -0.404867 0.059302
vn 0.669573 -0.740375 0.059302
vn 0.669573 -0.740375 0.059302
vn 0.912451 -0.404867 0.059302
vn 0.912822 -0.404029 0.059302
vn 0.912451 -0.404867 0.059302
vn 0.998239 0.001262 0.059302
vn 0.912822 -0.404029 0.059302
vn 0.912822 -0.404029 0.059302
vn 0.998239 0.001262 0.059302
vn 0.998238 0.002179 0.059302
vn 0.998239 0.001262 0.059302
vn 0.911424 0.407173 0.059302
vn 0.998238 0.002179 0.059302
vn 0.998238 0.002179 0.059302
vn 0.911424 0.407173 0.059302
vn 0.911053 0.408003 0.059302
vn -0.000011 -0.000018 -1.000000
vn -0.000005 -0.000001 -1.000000
vn -0.000000 0.000001 -1.000000
vn -0.000005 -0.000001 -1.000000
vn -0.000003 -0.000003 -1.000000
vn -0.000000 0.000001 -1.000000
vn -0.000003 -0.000003 -1.000000
vn -0.000002 0.000001 -1.000000
vn -0.000000 0.000001 -1.000000
vn -0.000002 0.000001 -1.000000
vn -0.000001 0.000001 -1.000000
vn -0.000000 0.000001 -1.000000
vn -0.000001 0.000001 -1.000000
vn -0.000000 0.000001 -1.000000
vn -0.000000 0.000001 -1.000000
vn -0.000000 0.000001 -1.000000
vn 0.000000 0.000001 -1.000000
vn -0.000000 0.000001 -1.000000
vn 0.000000 0.000001 -1.000000
vn 0.000001 0.000001 -1.000000
vn -0.000000 0.000001 -1.000000
vn 0.000001 0.000001 -1.000000
vn 0.000001 0.000003 -1.000000
vn -0.000000 0.000001 -1.000000
vn 0.000001 0.000003 -1.000000
vn 0.000001 0.000005 -1.000000
vn -0.000000 0.000001 -1.000000
vn 0.000001 0.000005 -1.000000
vn 0.000001 -0.000000 -1.000000
vn -0.000000 0.000001 -1.000000
vn 0.000001 -0.000000 -1.000000
vn -0.000002 -0.000001 -1.000000
vn -0.000000 0.000001 -1.000000
vn -0.000002 -0.000001 -1.000000
vn 0.000004 -0.000011 -1.000000
vn -0.000000 0.000001 -1.000000
vn 0.000004 -0.000011 -1.000000
vn 0.000000 0.000036 -1.000000
vn -0.000000 0.000001 -1.000000
s off
g bottle_wine_glass1_Physx_2
usemtl BottleGlassWine1_Physx_02:initialShadingGroup
f 16/1/1 17/2/2 18/3/3
f 17/2/4 19/4/5 18/3/6
f 19/4/7 20/5/8 18/3/9
f 20/5/10 21/6/11 18/3/12
f 21/6/13 22/7/14 18/3/15
f 22/7/16 23/8/17 18/3/18
f 23/8/19 24/9/20 18/3/21
f 24/9/22 25/10/23 18/3/24
f 25/10/25 26/11/26 18/3/27
f 26/11/28 27/12/29 18/3/30
f 27/12/31 28/13/32 18/3/33
f 28/13/34 29/14/35 18/3/36
f 29/14/37 30/15/38 18/3/39
f 30/15/40 31/16/41 18/3/42
f 31/16/43 16/1/44 18/3/45
f 1/17/46 2/18/47 16/1/48
f 16/1/49 2/18/50 17/2/51
f 2/18/52 3/19/53 17/2/54
f 17/2/55 3/19/56 19/4/57
f 3/19/58 4/20/59 19/4/60
f 19/4/61 4/20/62 20/5/63
f 4/20/64 5/21/65 20/5/66
f 20/5/67 5/21/68 21/6/69
f 5/21/70 6/22/71 21/6/72
f 21/6/73 6/22/74 22/7/75
f 6/22/76 7/23/77 22/7/78
f 22/7/79 7/23/80 23/8/81
f 7/23/82 8/24/83 23/8/84
f 23/8/85 8/24/86 24/9/87
f 8/24/88 9/25/89 24/9/90
f 24/9/91 9/25/92 25/10/93
f 9/25/94 10/26/95 25/10/96
f 25/10/97 10/26/98 26/11/99
f 10/26/100 11/27/101 26/11/102
f 26/11/103 11/27/104 27/12/105
f 11/27/106 12/28/107 27/12/108
f 27/12/109 12/28/110 28/13/111
f 12/28/112 13/29/113 28/13/114
f 28/13/115 13/29/116 29/14/117
f 13/29/118 14/30/119 29/14/120
f 29/14/121 14/30/122 30/15/123
f 14/30/124 15/31/125 30/15/126
f 30/15/127 15/31/128 31/16/129
f 15/31/130 1/17/131 31/16/132
f 31/16/133 1/17/134 16/1/135
f 2/18/136 1/17/137 3/19/138
f 1/17/139 15/31/140 3/19/141
f 15/31/142 14/30/143 3/19/144
f 14/30/145 13/29/146 3/19/147
f 13/29/148 12/28/149 3/19/150
f 12/28/151 11/27/152 3/19/153
f 11/27/154 10/26/155 3/19/156
f 10/26/157 9/25/158 3/19/159
f 9/25/160 8/24/161 3/19/162
f 8/24/163 7/23/164 3/19/165
f 7/23/166 6/22/167 3/19/168
f 6/22/169 5/21/170 3/19/171
f 5/21/172 4/20/173 3/19/174
