# This file uses centimeters as units for non-parametric coordinates.

mtllib bottle_water_glass3_Physx_03.mtl
g default
v 1.141597 0.508272 26.275932
v 0.836168 0.928661 26.275932
v 0.386158 1.188473 26.275932
v -0.130622 1.242790 26.275932
v -0.624816 1.082224 26.275932
v -1.010974 0.734516 26.275932
v -1.222325 0.259809 26.275932
v -1.222325 -0.259813 26.275932
v -1.010974 -0.734510 26.275932
v -0.624817 -1.082214 26.275932
v -0.130622 -1.242794 26.275932
v 0.386158 -1.188480 26.275932
v 0.836167 -0.928658 26.275932
v 1.141597 -0.508266 26.275932
v 1.249633 -0.000002 26.275932
v 1.141599 0.508265 28.990784
v 0.836169 0.928654 28.990784
v 0.000000 0.000002 28.990784
v 0.386157 1.188477 28.990784
v -0.130622 1.242790 28.990784
v -0.624814 1.082220 28.990784
v -1.010974 0.734501 28.990784
v -1.222326 0.259792 28.990784
v -1.222326 -0.259796 28.990784
v -1.010974 -0.734488 28.990784
v -0.624814 -1.082207 28.990784
v -0.130622 -1.242798 28.990784
v 0.386156 -1.188478 28.990784
v 0.836168 -0.928646 28.990784
v 1.141599 -0.508259 28.990784
v 1.249633 -0.000002 28.990784
vt 0.642741 0.907303
vt 0.604552 0.959866
vt 0.500000 0.837500
vt 0.548284 0.992353
vt 0.483667 0.999144
vt 0.421875 0.979066
vt 0.373591 0.935591
vt 0.347164 0.876236
vt 0.347164 0.811264
vt 0.373591 0.751909
vt 0.421875 0.708434
vt 0.483667 0.688356
vt 0.548284 0.695147
vt 0.604552 0.727634
vt 0.642741 0.780197
vt 0.656250 0.843750
vt 0.642741 0.907303
vt 0.604552 0.959866
vt 0.548284 0.992353
vt 0.483667 0.999144
vt 0.421875 0.979066
vt 0.373591 0.935591
vt 0.347164 0.876236
vt 0.347164 0.811264
vt 0.373591 0.751909
vt 0.421875 0.708434
vt 0.483667 0.688356
vt 0.548284 0.695147
vt 0.604552 0.727634
vt 0.642741 0.780197
vt 0.656250 0.843750
vn 0.000000 0.000000 1.000000
vn 0.000000 0.000000 1.000000
vn 0.000000 -0.000001 1.000000
vn 0.000000 0.000000 1.000000
vn 0.000000 -0.000002 1.000000
vn 0.000000 -0.000001 1.000000
vn 0.000000 -0.000002 1.000000
vn 0.000000 -0.000001 1.000000
vn 0.000000 -0.000001 1.000000
vn 0.000000 -0.000001 1.000000
vn 0.000000 0.000001 1.000000
vn 0.000000 -0.000001 1.000000
vn 0.000000 0.000001 1.000000
vn 0.000000 -0.000003 1.000000
vn 0.000000 -0.000001 1.000000
vn 0.000000 -0.000003 1.000000
vn 0.000000 -0.000003 1.000000
vn 0.000000 -0.000001 1.000000
vn 0.000000 -0.000003 1.000000
vn 0.000000 0.000000 1.000000
vn 0.000000 -0.000001 1.000000
vn 0.000000 0.000000 1.000000
vn 0.000000 0.000000 1.000000
vn 0.000000 -0.000001 1.000000
vn 0.000000 0.000000 1.000000
vn 0.000000 0.000000 1.000000
vn 0.000000 -0.000001 1.000000
vn 0.000000 0.000000 1.000000
vn 0.000000 0.000000 1.000000
vn 0.000000 -0.000001 1.000000
vn 0.000000 0.000000 1.000000
vn 0.000000 0.000000 1.000000
vn 0.000000 -0.000001 1.000000
vn 0.000000 0.000000 1.000000
vn 0.000000 0.000003 1.000000
vn 0.000000 -0.000001 1.000000
vn 0.000000 0.000003 1.000000
vn 0.000000 -0.000003 1.000000
vn 0.000000 -0.000001 1.000000
vn 0.000000 -0.000003 1.000000
vn 0.000000 -0.000006 1.000000
vn 0.000000 -0.000001 1.000000
vn 0.000000 -0.000006 1.000000
vn 0.000000 0.000000 1.000000
vn 0.000000 -0.000001 1.000000
vn 0.913546 0.406736 0.000001
vn 0.669130 0.743145 0.000002
vn 0.913545 0.406738 0.000001
vn 0.913545 0.406738 0.000001
vn 0.669130 0.743145 0.000002
vn 0.669135 0.743141 -0.000000
vn 0.669130 0.743145 0.000002
vn 0.309018 0.951056 -0.000000
vn 0.669135 0.743141 -0.000000
vn 0.669135 0.743141 -0.000000
vn 0.309018 0.951056 -0.000000
vn 0.309025 0.951054 -0.000001
vn 0.309018 0.951056 -0.000000
vn -0.104521 0.994523 -0.000001
vn 0.309025 0.951054 -0.000001
vn 0.309025 0.951054 -0.000001
vn -0.104521 0.994523 -0.000001
vn -0.104527 0.994522 -0.000000
vn -0.104521 0.994523 -0.000001
vn -0.500002 0.866024 0.000001
vn -0.104527 0.994522 -0.000000
vn -0.104527 0.994522 -0.000000
vn -0.500002 0.866024 0.000001
vn -0.500013 0.866018 0.000003
vn -0.500002 0.866024 0.000001
vn -0.809022 0.587778 0.000002
vn -0.500013 0.866018 0.000003
vn -0.500013 0.866018 0.000003
vn -0.809022 0.587778 0.000002
vn -0.809026 0.587773 0.000003
vn -0.809022 0.587778 0.000002
vn -0.978148 0.207912 0.000001
vn -0.809026 0.587773 0.000003
vn -0.809026 0.587773 0.000003
vn -0.978148 0.207912 0.000001
vn -0.978146 0.207917 0.000001
vn -0.978148 0.207912 0.000001
vn -0.978147 -0.207914 0.000001
vn -0.978146 0.207917 0.000001
vn -0.978146 0.207917 0.000001
vn -0.978147 -0.207914 0.000001
vn -0.978146 -0.207921 0.000002
vn -0.978147 -0.207914 0.000001
vn -0.809016 -0.587786 0.000005
vn -0.978146 -0.207921 0.000002
vn -0.978146 -0.207921 0.000002
vn -0.809016 -0.587786 0.000005
vn -0.809019 -0.587783 0.000004
vn -0.809016 -0.587786 0.000005
vn -0.500011 -0.866019 0.000005
vn -0.809019 -0.587783 0.000004
vn -0.809019 -0.587783 0.000004
vn -0.500011 -0.866019 0.000005
vn -0.500028 -0.866009 0.000001
vn -0.500011 -0.866019 0.000005
vn -0.104538 -0.994521 0.000001
vn -0.500028 -0.866009 0.000001
vn -0.500028 -0.866009 0.000001
vn -0.104538 -0.994521 0.000001
vn -0.104543 -0.994520 0.000000
vn -0.104538 -0.994521 0.000001
vn 0.309024 -0.951054 0.000000
vn -0.104543 -0.994520 0.000000
vn -0.104543 -0.994520 0.000000
vn 0.309024 -0.951054 0.000000
vn 0.309036 -0.951050 0.000002
vn 0.309024 -0.951054 0.000000
vn 0.669138 -0.743139 0.000002
vn 0.309036 -0.951050 0.000002
vn 0.309036 -0.951050 0.000002
vn 0.669138 -0.743139 0.000002
vn 0.669140 -0.743137 0.000003
vn 0.669138 -0.743139 0.000002
vn 0.913545 -0.406738 0.000001
vn 0.669140 -0.743137 0.000003
vn 0.669140 -0.743137 0.000003
vn 0.913545 -0.406738 0.000001
vn 0.913544 -0.406741 0.000001
vn 0.913545 -0.406738 0.000001
vn 1.000000 0.000000 0.000000
vn 0.913544 -0.406741 0.000001
vn 0.913544 -0.406741 0.000001
vn 1.000000 0.000000 0.000000
vn 1.000000 0.000001 -0.000000
vn 1.000000 0.000000 0.000000
vn 0.913546 0.406736 0.000001
vn 1.000000 0.000001 -0.000000
vn 1.000000 0.000001 -0.000000
vn 0.913546 0.406736 0.000001
vn 0.913545 0.406738 0.000001
vn 0.000000 -0.000017 -1.000000
vn 0.000000 0.000011 -1.000000
vn 0.000000 -0.000000 -1.000000
vn 0.000000 0.000011 -1.000000
vn 0.000000 -0.000005 -1.000000
vn 0.000000 -0.000000 -1.000000
vn 0.000000 -0.000005 -1.000000
vn 0.000000 0.000003 -1.000000
vn 0.000000 -0.000000 -1.000000
vn 0.000000 0.000003 -1.000000
vn 0.000000 0.000001 -1.000000
vn 0.000000 -0.000000 -1.000000
vn 0.000000 0.000001 -1.000000
vn 0.000000 -0.000000 -1.000000
vn 0.000000 -0.000000 -1.000000
vn 0.000000 -0.000000 -1.000000
vn 0.000000 -0.000001 -1.000000
vn 0.000000 -0.000000 -1.000000
vn 0.000000 -0.000001 -1.000000
vn 0.000000 -0.000001 -1.000000
vn 0.000000 -0.000000 -1.000000
vn 0.000000 -0.000001 -1.000000
vn 0.000000 -0.000000 -1.000000
vn 0.000000 -0.000000 -1.000000
vn 0.000000 -0.000000 -1.000000
vn 0.000000 -0.000000 -1.000000
vn 0.000000 -0.000000 -1.000000
vn 0.000000 -0.000000 -1.000000
vn 0.000000 -0.000000 -1.000000
vn 0.000000 -0.000000 -1.000000
vn 0.000000 -0.000000 -1.000000
vn 0.000000 -0.000000 -1.000000
vn 0.000000 -0.000000 -1.000000
vn 0.000000 -0.000000 -1.000000
vn 0.000000 -0.000000 -1.000000
vn 0.000000 -0.000000 -1.000000
vn 0.000000 -0.000000 -1.000000
vn 0.000000 -0.000000 -1.000000
vn 0.000000 -0.000000 -1.000000
s off
g bottle_water_glass3_Physx_03
usemtl BottleGlassWater1_Physx_03:initialShadingGroup
f 16/1/1 17/2/2 18/3/3
f 17/2/4 19/4/5 18/3/6
f 19/4/7 20/5/8 18/3/9
f 20/5/10 21/6/11 18/3/12
f 21/6/13 22/7/14 18/3/15
f 22/7/16 23/8/17 18/3/18
f 23/8/19 24/9/20 18/3/21
f 24/9/22 25/10/23 18/3/24
f 25/10/25 26/11/26 18/3/27
f 26/11/28 27/12/29 18/3/30
f 27/12/31 28/13/32 18/3/33
f 28/13/34 29/14/35 18/3/36
f 29/14/37 30/15/38 18/3/39
f 30/15/40 31/16/41 18/3/42
f 31/16/43 16/1/44 18/3/45
f 1/17/46 2/18/47 16/1/48
f 16/1/49 2/18/50 17/2/51
f 2/18/52 3/19/53 17/2/54
f 17/2/55 3/19/56 19/4/57
f 3/19/58 4/20/59 19/4/60
f 19/4/61 4/20/62 20/5/63
f 4/20/64 5/21/65 20/5/66
f 20/5/67 5/21/68 21/6/69
f 5/21/70 6/22/71 21/6/72
f 21/6/73 6/22/74 22/7/75
f 6/22/76 7/23/77 22/7/78
f 22/7/79 7/23/80 23/8/81
f 7/23/82 8/24/83 23/8/84
f 23/8/85 8/24/86 24/9/87
f 8/24/88 9/25/89 24/9/90
f 24/9/91 9/25/92 25/10/93
f 9/25/94 10/26/95 25/10/96
f 25/10/97 10/26/98 26/11/99
f 10/26/100 11/27/101 26/11/102
f 26/11/103 11/27/104 27/12/105
f 11/27/106 12/28/107 27/12/108
f 27/12/109 12/28/110 28/13/111
f 12/28/112 13/29/113 28/13/114
f 28/13/115 13/29/116 29/14/117
f 13/29/118 14/30/119 29/14/120
f 29/14/121 14/30/122 30/15/123
f 14/30/124 15/31/125 30/15/126
f 30/15/127 15/31/128 31/16/129
f 15/31/130 1/17/131 31/16/132
f 31/16/133 1/17/134 16/1/135
f 2/18/136 1/17/137 3/19/138
f 1/17/139 15/31/140 3/19/141
f 15/31/142 14/30/143 3/19/144
f 14/30/145 13/29/146 3/19/147
f 13/29/148 12/28/149 3/19/150
f 12/28/151 11/27/152 3/19/153
f 11/27/154 10/26/155 3/19/156
f 10/26/157 9/25/158 3/19/159
f 9/25/160 8/24/161 3/19/162
f 8/24/163 7/23/164 3/19/165
f 7/23/166 6/22/167 3/19/168
f 6/22/169 5/21/170 3/19/171
f 5/21/172 4/20/173 3/19/174
