# This file uses centimeters as units for non-parametric coordinates.

mtllib cup_coffee_paper3_Physx_1.mtl
g default
v 2.467892 1.098776 0.000000
v 1.807619 2.007564 0.000000
v 0.834793 2.569226 0.000000
v -0.282377 2.686645 0.000000
v -1.350722 2.339519 0.000000
v -2.185514 1.587869 0.000000
v -2.642411 0.561662 0.000000
v -2.642411 -0.561662 0.000000
v -2.185514 -1.587869 0.000000
v -1.350722 -2.339519 0.000000
v -0.282378 -2.686645 0.000000
v 0.834792 -2.569226 0.000000
v 1.807619 -2.007564 0.000000
v 2.467892 -1.098776 0.000000
v 2.701444 0.000000 0.000000
v 3.830389 1.712741 8.805915
v 2.801173 3.129335 8.805914
v 1.284758 4.004838 8.805915
v -0.456655 4.187868 8.805915
v -2.121960 3.646778 8.805915
v -3.423211 2.475127 8.805915
v -4.135410 0.875503 8.805915
v -4.135410 -0.875502 8.805915
v -3.423212 -2.475126 8.805915
v -2.121961 -3.646777 8.805915
v -0.456656 -4.187868 8.805915
v 1.284758 -4.004838 8.805915
v 2.801173 -3.129336 8.805915
v 3.830389 -1.712742 8.805915
v 4.194444 0.000000 8.805915
v 0.000000 0.000000 0.000000
v 3.183653 1.430933 9.528343
v 2.328104 2.614357 9.615246
v 0.000127 0.000000 9.851709
v 1.067669 3.345616 9.743275
v -0.379628 3.498319 9.890284
v -1.763516 3.046155 10.030852
v -2.844767 2.067386 10.140679
v -3.436516 0.731261 10.200787
v -3.436517 -0.731259 10.200787
v -2.844768 -2.067385 10.140679
v -1.763517 -3.046154 10.030852
v -0.379628 -3.498318 9.890284
v 1.067669 -3.345617 9.743275
v 2.328104 -2.614358 9.615246
v 3.183653 -1.430934 9.528343
v 3.486293 0.000000 9.497603
vt 0.375000 0.312500
vt 0.391667 0.312500
vt 0.375000 0.688440
vt 0.391667 0.688440
vt 0.408333 0.312500
vt 0.408333 0.688440
vt 0.425000 0.312500
vt 0.425000 0.688440
vt 0.441667 0.312500
vt 0.441667 0.688440
vt 0.458333 0.312500
vt 0.458333 0.688440
vt 0.475000 0.312500
vt 0.475000 0.688440
vt 0.491667 0.312500
vt 0.491667 0.688440
vt 0.508333 0.312500
vt 0.508333 0.688440
vt 0.525000 0.312500
vt 0.525000 0.688440
vt 0.541667 0.312500
vt 0.541667 0.688440
vt 0.558333 0.312500
vt 0.558333 0.688440
vt 0.575000 0.312500
vt 0.575000 0.688440
vt 0.591667 0.312500
vt 0.591667 0.688440
vt 0.608333 0.312500
vt 0.608333 0.688440
vt 0.625000 0.312500
vt 0.625000 0.688440
vt 0.604552 0.040134
vt 0.642741 0.092697
vt 0.500000 0.150000
vt 0.548284 0.007647
vt 0.483667 0.000856
vt 0.421875 0.020934
vt 0.373591 0.064409
vt 0.347164 0.123764
vt 0.347164 0.188736
vt 0.373591 0.248091
vt 0.421875 0.291566
vt 0.483667 0.311644
vt 0.548284 0.304853
vt 0.604552 0.272366
vt 0.642741 0.219803
vt 0.656250 0.156250
vt 0.642741 0.907303
vt 0.604552 0.959866
vt 0.500000 0.837500
vt 0.548284 0.992353
vt 0.483667 0.999144
vt 0.421875 0.979066
vt 0.373591 0.935591
vt 0.347164 0.876236
vt 0.347164 0.811264
vt 0.373591 0.751909
vt 0.421875 0.708434
vt 0.483667 0.688356
vt 0.548284 0.695147
vt 0.604552 0.727634
vt 0.642741 0.780197
vt 0.656250 0.843750
vt 0.642741 0.907303
vt 0.604552 0.959866
vt 0.548284 0.992353
vt 0.483667 0.999144
vt 0.421875 0.979066
vt 0.373591 0.935591
vt 0.347164 0.876236
vt 0.347164 0.811264
vt 0.373591 0.751909
vt 0.421875 0.708434
vt 0.483667 0.688356
vt 0.548284 0.695147
vt 0.604552 0.727634
vt 0.642741 0.780197
vt 0.656250 0.843750
vn 0.903479 0.394633 -0.167305
vn 0.664864 0.727887 -0.167740
vn 0.901879 0.398272 -0.167312
vn 0.901879 0.398272 -0.167312
vn 0.664864 0.727887 -0.167740
vn 0.661804 0.730668 -0.167749
vn 0.664864 0.727887 -0.167740
vn 0.311335 0.935263 -0.168383
vn 0.661804 0.730668 -0.167749
vn 0.661804 0.730668 -0.167749
vn 0.311335 0.935263 -0.168383
vn 0.307315 0.936590 -0.168394
vn 0.311335 0.935263 -0.168383
vn -0.095966 0.980912 -0.169124
vn 0.307315 0.936590 -0.168394
vn 0.307315 0.936590 -0.168394
vn -0.095966 0.980912 -0.169124
vn -0.100197 0.980487 -0.169135
vn -0.095966 0.980912 -0.169124
vn -0.486609 0.856953 -0.169835
vn -0.100197 0.980487 -0.169135
vn -0.100197 0.980487 -0.169135
vn -0.486609 0.856953 -0.169835
vn -0.490246 0.854875 -0.169845
vn -0.486609 0.856953 -0.169835
vn -0.793054 0.584834 -0.170392
vn -0.490246 0.854875 -0.169845
vn -0.490246 0.854875 -0.169845
vn -0.793054 0.584834 -0.170392
vn -0.795453 0.581565 -0.170400
vn -0.793054 0.584834 -0.170392
vn -0.962332 0.211611 -0.170700
vn -0.795453 0.581565 -0.170400
vn -0.795453 0.581565 -0.170400
vn -0.962332 0.211611 -0.170700
vn -0.963155 0.207828 -0.170705
vn -0.962332 0.211611 -0.170700
vn -0.963781 -0.204906 -0.170707
vn -0.963155 0.207828 -0.170705
vn -0.963155 0.207828 -0.170705
vn -0.963781 -0.204906 -0.170707
vn -0.963801 -0.204810 -0.170707
vn -0.793055 -0.584834 -0.170392
vn -0.795453 -0.581565 -0.170400
vn -0.963781 -0.204906 -0.170707
vn -0.963781 -0.204906 -0.170707
vn -0.795453 -0.581565 -0.170400
vn -0.963801 -0.204810 -0.170707
vn -0.486609 -0.856953 -0.169835
vn -0.490247 -0.854875 -0.169845
vn -0.793055 -0.584834 -0.170392
vn -0.793055 -0.584834 -0.170392
vn -0.490247 -0.854875 -0.169845
vn -0.795453 -0.581565 -0.170400
vn -0.095967 -0.980912 -0.169124
vn -0.100198 -0.980487 -0.169135
vn -0.486609 -0.856953 -0.169835
vn -0.486609 -0.856953 -0.169835
vn -0.100198 -0.980487 -0.169135
vn -0.490247 -0.854875 -0.169845
vn 0.311335 -0.935264 -0.168383
vn 0.307315 -0.936590 -0.168394
vn -0.095967 -0.980912 -0.169124
vn -0.095967 -0.980912 -0.169124
vn 0.307315 -0.936590 -0.168394
vn -0.100198 -0.980487 -0.169135
vn 0.664864 -0.727887 -0.167740
vn 0.661804 -0.730668 -0.167749
vn 0.311335 -0.935264 -0.168383
vn 0.311335 -0.935264 -0.168383
vn 0.661804 -0.730668 -0.167749
vn 0.307315 -0.936590 -0.168394
vn 0.900706 -0.400916 -0.167315
vn 0.900626 -0.401097 -0.167315
vn 0.664864 -0.727887 -0.167740
vn 0.664864 -0.727887 -0.167740
vn 0.900626 -0.401097 -0.167315
vn 0.661804 -0.730668 -0.167749
vn 0.900706 -0.400916 -0.167315
vn 0.985907 -0.006870 -0.167156
vn 0.900626 -0.401097 -0.167315
vn 0.900626 -0.401097 -0.167315
vn 0.985907 -0.006870 -0.167156
vn 0.985925 -0.003089 -0.167159
vn 0.985907 -0.006870 -0.167156
vn 0.903479 0.394633 -0.167305
vn 0.985925 -0.003089 -0.167159
vn 0.985925 -0.003089 -0.167159
vn 0.903479 0.394633 -0.167305
vn 0.901879 0.398272 -0.167312
vn 0.000000 -0.000000 -1.000000
vn 0.000000 -0.000000 -1.000000
vn 0.000000 -0.000000 -1.000000
vn 0.000000 -0.000000 -1.000000
vn 0.000000 -0.000000 -1.000000
vn 0.000000 -0.000000 -1.000000
vn 0.000000 -0.000000 -1.000000
vn 0.000000 -0.000000 -1.000000
vn 0.000000 -0.000000 -1.000000
vn 0.000000 -0.000000 -1.000000
vn 0.000000 -0.000000 -1.000000
vn 0.000000 -0.000000 -1.000000
vn 0.000000 -0.000000 -1.000000
vn 0.000000 -0.000000 -1.000000
vn 0.000000 -0.000000 -1.000000
vn 0.000000 -0.000000 -1.000000
vn 0.000000 -0.000000 -1.000000
vn 0.000000 -0.000000 -1.000000
vn 0.000000 -0.000000 -1.000000
vn 0.000000 -0.000000 -1.000000
vn 0.000000 -0.000000 -1.000000
vn 0.000000 -0.000000 -1.000000
vn 0.000000 -0.000000 -1.000000
vn 0.000000 -0.000000 -1.000000
vn 0.000000 -0.000000 -1.000000
vn 0.000000 -0.000000 -1.000000
vn 0.000000 -0.000000 -1.000000
vn 0.000000 -0.000000 -1.000000
vn 0.000000 -0.000000 -1.000000
vn 0.000000 -0.000000 -1.000000
vn 0.000000 -0.000000 -1.000000
vn 0.000000 -0.000000 -1.000000
vn 0.000000 -0.000000 -1.000000
vn 0.000000 -0.000000 -1.000000
vn 0.000000 -0.000000 -1.000000
vn 0.000000 -0.000000 -1.000000
vn 0.000000 -0.000000 -1.000000
vn 0.000000 -0.000000 -1.000000
vn 0.000000 -0.000000 -1.000000
vn 0.000000 -0.000000 -1.000000
vn 0.000000 -0.000000 -1.000000
vn 0.000000 -0.000000 -1.000000
vn 0.000000 -0.000000 -1.000000
vn 0.000000 -0.000000 -1.000000
vn 0.000000 -0.000000 -1.000000
vn 0.101055 0.000000 0.994881
vn 0.101055 0.000000 0.994881
vn 0.101055 0.000000 0.994881
vn 0.101055 0.000000 0.994881
vn 0.101055 0.000000 0.994881
vn 0.101055 0.000000 0.994881
vn 0.101055 0.000000 0.994881
vn 0.101055 0.000000 0.994881
vn 0.101055 0.000000 0.994881
vn 0.101055 0.000000 0.994881
vn 0.101055 0.000000 0.994881
vn 0.101055 0.000000 0.994881
vn 0.101055 0.000000 0.994881
vn 0.101055 0.000000 0.994881
vn 0.101055 0.000000 0.994881
vn 0.101055 0.000000 0.994881
vn 0.101055 0.000000 0.994881
vn 0.101055 0.000000 0.994881
vn 0.101055 0.000000 0.994881
vn 0.101055 0.000000 0.994881
vn 0.101055 0.000000 0.994881
vn 0.101055 0.000000 0.994881
vn 0.101055 0.000000 0.994881
vn 0.101055 0.000000 0.994881
vn 0.101055 0.000000 0.994881
vn 0.101055 0.000000 0.994881
vn 0.101055 0.000000 0.994881
vn 0.101055 0.000000 0.994881
vn 0.101055 0.000000 0.994881
vn 0.101055 0.000000 0.994881
vn 0.101055 0.000000 0.994881
vn 0.101055 0.000000 0.994881
vn 0.101055 0.000000 0.994881
vn 0.101055 0.000000 0.994881
vn 0.101055 0.000000 0.994881
vn 0.101055 0.000000 0.994881
vn 0.101055 0.000000 0.994881
vn 0.101055 0.000000 0.994881
vn 0.101055 0.000000 0.994881
vn 0.101055 0.000000 0.994881
vn 0.101055 0.000000 0.994881
vn 0.101055 0.000000 0.994881
vn 0.101055 0.000000 0.994881
vn 0.101055 0.000000 0.994881
vn 0.101055 0.000000 0.994881
vn 0.648842 0.293906 0.701871
vn 0.501139 0.556764 0.662475
vn 0.660706 0.295657 0.689967
vn 0.660706 0.295657 0.689967
vn 0.501139 0.556764 0.662475
vn 0.520011 0.564607 0.640943
vn 0.501139 0.556764 0.662475
vn 0.246479 0.755705 0.606761
vn 0.520011 0.564607 0.640943
vn 0.520011 0.564607 0.640943
vn 0.246479 0.755705 0.606761
vn 0.263440 0.770064 0.581034
vn 0.246479 0.755705 0.606761
vn -0.088158 0.829914 0.550881
vn 0.263440 0.770064 0.581034
vn 0.263440 0.770064 0.581034
vn -0.088158 0.829914 0.550881
vn -0.077424 0.846436 0.526832
vn -0.088158 0.829914 0.550881
vn -0.434422 0.745179 0.505951
vn -0.077424 0.846436 0.526832
vn -0.077424 0.846436 0.526832
vn -0.434422 0.745179 0.505951
vn -0.430043 0.759886 0.487479
vn -0.434422 0.745179 0.505951
vn -0.715007 0.512399 0.475618
vn -0.430043 0.759886 0.487479
vn -0.430043 0.759886 0.487479
vn -0.715007 0.512399 0.475618
vn -0.715102 0.522495 0.464357
vn -0.715007 0.512399 0.475618
vn -0.870313 0.177987 0.459213
vn -0.715102 0.522495 0.464357
vn -0.715102 0.522495 0.464357
vn -0.870313 0.177987 0.459213
vn -0.871476 0.181900 0.455459
vn -0.870313 0.177987 0.459213
vn -0.868616 -0.185711 0.459367
vn -0.871476 0.181900 0.455459
vn -0.871476 0.181900 0.455459
vn -0.868616 -0.185711 0.459367
vn -0.869406 -0.191622 0.455428
vn -0.715007 -0.512399 0.475618
vn -0.715102 -0.522495 0.464357
vn -0.868616 -0.185711 0.459367
vn -0.868616 -0.185711 0.459367
vn -0.715102 -0.522495 0.464357
vn -0.869406 -0.191622 0.455428
vn -0.434422 -0.745178 0.505951
vn -0.430043 -0.759886 0.487480
vn -0.715007 -0.512399 0.475618
vn -0.715007 -0.512399 0.475618
vn -0.430043 -0.759886 0.487480
vn -0.715102 -0.522495 0.464357
vn -0.088159 -0.829914 0.550882
vn -0.077424 -0.846436 0.526832
vn -0.434422 -0.745178 0.505951
vn -0.434422 -0.745178 0.505951
vn -0.077424 -0.846436 0.526832
vn -0.430043 -0.759886 0.487480
vn 0.246478 -0.755705 0.606761
vn 0.263440 -0.770064 0.581034
vn -0.088159 -0.829914 0.550882
vn -0.088159 -0.829914 0.550882
vn 0.263440 -0.770064 0.581034
vn -0.077424 -0.846436 0.526832
vn 0.501139 -0.556764 0.662475
vn 0.520011 -0.564608 0.640943
vn 0.246478 -0.755705 0.606761
vn 0.246478 -0.755705 0.606761
vn 0.520011 -0.564608 0.640943
vn 0.263440 -0.770064 0.581034
vn 0.648841 -0.293906 0.701872
vn 0.660706 -0.295657 0.689967
vn 0.501139 -0.556764 0.662475
vn 0.501139 -0.556764 0.662475
vn 0.660706 -0.295657 0.689967
vn 0.520011 -0.564608 0.640943
vn 0.698743 0.000000 0.715373
vn 0.704386 0.000000 0.709817
vn 0.648841 -0.293906 0.701872
vn 0.648841 -0.293906 0.701872
vn 0.704386 0.000000 0.709817
vn 0.660706 -0.295657 0.689967
vn 0.698743 0.000000 0.715373
vn 0.648842 0.293906 0.701871
vn 0.704386 0.000000 0.709817
vn 0.704386 0.000000 0.709817
vn 0.648842 0.293906 0.701871
vn 0.660706 0.295657 0.689967
s off
g cup_coffee_paper3_Physx_1
usemtl CupPaperCoffee3_Physx_01:initialShadingGroup
f 1/1/1 2/2/2 16/3/3
f 16/3/4 2/2/5 17/4/6
f 2/2/7 3/5/8 17/4/9
f 17/4/10 3/5/11 18/6/12
f 3/5/13 4/7/14 18/6/15
f 18/6/16 4/7/17 19/8/18
f 4/7/19 5/9/20 19/8/21
f 19/8/22 5/9/23 20/10/24
f 5/9/25 6/11/26 20/10/27
f 20/10/28 6/11/29 21/12/30
f 6/11/31 7/13/32 21/12/33
f 21/12/34 7/13/35 22/14/36
f 7/13/37 8/15/38 22/14/39
f 22/14/40 8/15/41 23/16/42
f 9/17/43 24/18/44 8/15/45
f 8/15/46 24/18/47 23/16/48
f 10/19/49 25/20/50 9/17/51
f 9/17/52 25/20/53 24/18/54
f 11/21/55 26/22/56 10/19/57
f 10/19/58 26/22/59 25/20/60
f 12/23/61 27/24/62 11/21/63
f 11/21/64 27/24/65 26/22/66
f 13/25/67 28/26/68 12/23/69
f 12/23/70 28/26/71 27/24/72
f 14/27/73 29/28/74 13/25/75
f 13/25/76 29/28/77 28/26/78
f 14/27/79 15/29/80 29/28/81
f 29/28/82 15/29/83 30/30/84
f 15/29/85 1/31/86 30/30/87
f 30/30/88 1/31/89 16/32/90
f 2/33/91 1/34/92 31/35/93
f 3/36/94 2/33/95 31/35/96
f 4/37/97 3/36/98 31/35/99
f 5/38/100 4/37/101 31/35/102
f 6/39/103 5/38/104 31/35/105
f 7/40/106 6/39/107 31/35/108
f 8/41/109 7/40/110 31/35/111
f 9/42/112 8/41/113 31/35/114
f 10/43/115 9/42/116 31/35/117
f 11/44/118 10/43/119 31/35/120
f 12/45/121 11/44/122 31/35/123
f 13/46/124 12/45/125 31/35/126
f 14/47/127 13/46/128 31/35/129
f 15/48/130 14/47/131 31/35/132
f 1/34/133 15/48/134 31/35/135
f 32/49/136 33/50/137 34/51/138
f 33/50/139 35/52/140 34/51/141
f 35/52/142 36/53/143 34/51/144
f 36/53/145 37/54/146 34/51/147
f 37/54/148 38/55/149 34/51/150
f 38/55/151 39/56/152 34/51/153
f 39/56/154 40/57/155 34/51/156
f 40/57/157 41/58/158 34/51/159
f 41/58/160 42/59/161 34/51/162
f 42/59/163 43/60/164 34/51/165
f 43/60/166 44/61/167 34/51/168
f 44/61/169 45/62/170 34/51/171
f 45/62/172 46/63/173 34/51/174
f 46/63/175 47/64/176 34/51/177
f 47/64/178 32/49/179 34/51/180
f 16/65/181 17/66/182 32/49/183
f 32/49/184 17/66/185 33/50/186
f 17/66/187 18/67/188 33/50/189
f 33/50/190 18/67/191 35/52/192
f 18/67/193 19/68/194 35/52/195
f 35/52/196 19/68/197 36/53/198
f 19/68/199 20/69/200 36/53/201
f 36/53/202 20/69/203 37/54/204
f 20/69/205 21/70/206 37/54/207
f 37/54/208 21/70/209 38/55/210
f 21/70/211 22/71/212 38/55/213
f 38/55/214 22/71/215 39/56/216
f 22/71/217 23/72/218 39/56/219
f 39/56/220 23/72/221 40/57/222
f 24/73/223 41/58/224 23/72/225
f 23/72/226 41/58/227 40/57/228
f 25/74/229 42/59/230 24/73/231
f 24/73/232 42/59/233 41/58/234
f 26/75/235 43/60/236 25/74/237
f 25/74/238 43/60/239 42/59/240
f 27/76/241 44/61/242 26/75/243
f 26/75/244 44/61/245 43/60/246
f 28/77/247 45/62/248 27/76/249
f 27/76/250 45/62/251 44/61/252
f 29/78/253 46/63/254 28/77/255
f 28/77/256 46/63/257 45/62/258
f 30/79/259 47/64/260 29/78/261
f 29/78/262 47/64/263 46/63/264
f 30/79/265 16/65/266 47/64/267
f 47/64/268 16/65/269 32/49/270
