# This file uses centimeters as units for non-parametric coordinates.

mtllib mug1_Physx_29.mtl
g default
v -6.730690 0.000000 3.384391
v -7.016715 0.000000 4.288965
v -6.771735 0.399707 3.350241
v -7.064966 0.399707 4.271012
v -6.879193 0.646739 3.260837
v -7.191291 0.646739 4.224009
v -7.012018 0.646739 3.150326
v -7.347436 0.646739 4.165910
v -7.119476 0.399707 3.060921
v -7.473761 0.399707 4.118907
v -7.160522 0.000000 3.026772
v -7.522012 0.000000 4.100954
v -7.119476 -0.399707 3.060921
v -7.473761 -0.399707 4.118907
v -7.012019 -0.646739 3.150326
v -7.347436 -0.646739 4.165910
v -6.879193 -0.646739 3.260837
v -7.191291 -0.646739 4.224009
v -6.771735 -0.399707 3.350241
v -7.064966 -0.399707 4.271012
vt 0.350000 1.000000
vt 0.400000 1.000000
vt 0.350000 0.900000
vt 0.400000 0.900000
vt 0.350000 0.800000
vt 0.400000 0.800000
vt 0.350000 0.700000
vt 0.400000 0.700000
vt 0.350000 0.600000
vt 0.400000 0.600000
vt 0.350000 0.500000
vt 0.400000 0.500000
vt 0.350000 0.400000
vt 0.400000 0.400000
vt 0.350000 0.300000
vt 0.400000 0.300000
vt 0.350000 0.200000
vt 0.400000 0.200000
vt 0.350000 0.100000
vt 0.400000 0.100000
vt 0.350000 -0.000000
vt 0.400000 -0.000000
vn 0.945678 0.127592 0.299021
vn 0.945639 0.123380 0.300906
vn 0.945674 0.126997 0.299288
vn 0.945633 0.122835 0.301149
vn 0.836664 0.478540 0.266446
vn 0.841606 0.466463 0.272234
vn 0.837354 0.476882 0.267247
vn 0.842153 0.465094 0.272884
vn 0.000000 1.000000 0.000000
vn 0.000000 1.000000 0.000000
vn 0.000000 1.000000 0.000000
vn 0.000000 1.000000 0.000000
vn -0.833682 0.478707 -0.275341
vn -0.838283 0.467632 -0.280359
vn -0.834260 0.477341 -0.275965
vn -0.838744 0.466501 -0.280867
vn -0.940485 0.127680 -0.314937
vn -0.940501 0.124018 -0.316350
vn -0.940488 0.127247 -0.315104
vn -0.940502 0.123620 -0.316504
vn -0.940502 -0.123620 -0.316504
vn -0.940501 -0.124018 -0.316350
vn -0.940488 -0.127247 -0.315104
vn -0.940485 -0.127680 -0.314937
vn -0.838744 -0.466499 -0.280867
vn -0.838284 -0.467631 -0.280359
vn -0.834260 -0.477339 -0.275965
vn -0.833683 -0.478706 -0.275341
vn -0.000000 -1.000000 0.000000
vn -0.000000 -1.000000 -0.000000
vn -0.000000 -1.000000 -0.000000
vn -0.000000 -1.000000 -0.000000
vn 0.842153 -0.465094 0.272884
vn 0.841606 -0.466463 0.272234
vn 0.837354 -0.476882 0.267247
vn 0.836664 -0.478539 0.266446
vn 0.945633 -0.122835 0.301149
vn 0.945639 -0.123380 0.300906
vn 0.945674 -0.126997 0.299288
vn 0.945678 -0.127591 0.299021
vn 0.639579 0.000001 -0.768725
vn 0.639580 0.000000 -0.768725
vn 0.639578 -0.000000 -0.768726
vn 0.639578 0.000000 -0.768727
vn 0.639578 0.000000 -0.768726
vn 0.639578 -0.000000 -0.768726
vn 0.639578 0.000000 -0.768726
vn 0.639578 0.000000 -0.768726
vn 0.639579 -0.000001 -0.768725
vn 0.639577 0.000000 -0.768727
vn -0.348725 -0.000000 0.937225
vn -0.348724 -0.000000 0.937226
vn -0.348723 0.000000 0.937226
vn -0.348723 -0.000000 0.937226
vn -0.348723 0.000000 0.937226
vn -0.348723 0.000000 0.937226
vn -0.348723 0.000000 0.937226
vn -0.348724 0.000001 0.937226
vn -0.348724 0.000001 0.937226
vn -0.348723 0.000001 0.937226
s 1
g mug1_Physx_29
usemtl initialShadingGroup
f 2/2/1 1/1/2 4/4/3
f 4/4/3 1/1/2 3/3/4
s 2
f 4/4/5 3/3/6 6/6/7
f 6/6/7 3/3/6 5/5/8
s 3
f 6/6/9 5/5/10 8/8/11
f 8/8/11 5/5/10 7/7/12
s 4
f 8/8/13 7/7/14 10/10/15
f 10/10/15 7/7/14 9/9/16
s 5
f 10/10/17 9/9/18 12/12/19
f 12/12/19 9/9/18 11/11/20
s 6
f 11/11/21 13/13/22 12/12/23
f 12/12/23 13/13/22 14/14/24
s 7
f 13/13/25 15/15/26 14/14/27
f 14/14/27 15/15/26 16/16/28
s 8
f 15/15/29 17/17/30 16/16/31
f 16/16/31 17/17/30 18/18/32
s 9
f 17/17/33 19/19/34 18/18/35
f 18/18/35 19/19/34 20/20/36
s 10
f 19/19/37 1/21/38 20/20/39
f 20/20/39 1/21/38 2/22/40
s 11
f 3/3/41 1/21/42 5/5/43
f 1/21/42 19/19/44 5/5/43
f 19/19/44 17/17/45 5/5/43
f 17/17/45 15/15/46 5/5/43
f 15/15/46 13/13/47 5/5/43
f 13/13/47 11/11/48 5/5/43
f 11/11/48 9/9/49 5/5/43
f 9/9/49 7/7/50 5/5/43
s 12
f 4/4/51 6/6/52 2/2/53
f 6/6/52 8/8/54 2/2/53
f 8/8/54 10/10/55 2/2/53
f 10/10/55 12/12/56 2/2/53
f 12/12/56 14/14/57 2/2/53
f 14/14/57 16/16/58 2/2/53
f 16/16/58 18/18/59 2/2/53
f 18/18/59 20/20/60 2/2/53
