# This file uses centimeters as units for non-parametric coordinates.

mtllib mug1_Physx_14.mtl
g default
v -2.186341 3.009240 0.400000
v -3.009240 2.186341 0.400000
v -2.186341 3.009240 9.500000
v -3.009240 2.186341 9.500000
v -2.352360 3.237747 0.400000
v -2.352361 3.237747 9.500000
v -3.237746 2.352360 0.400000
v -3.237746 2.352360 9.500000
vt 0.450000 0.312500
vt 0.462500 0.312500
vt 0.462500 0.688440
vt 0.450000 0.688440
vt 0.450000 0.312500
vt 0.450000 0.688440
vt 0.462500 0.688440
vt 0.462500 0.312500
vt 0.450000 0.312500
vt 0.462500 0.312500
vt 0.462500 0.688440
vt 0.450000 0.688440
vn -0.707107 0.707107 -0.000000
vn -0.707107 0.707107 -0.000000
vn -0.707107 0.707107 -0.000000
vn -0.707107 0.707107 0.000000
vn 0.707107 -0.707107 0.000000
vn 0.707107 -0.707107 0.000000
vn 0.707107 -0.707107 0.000000
vn 0.707107 -0.707107 0.000000
vn 0.000000 0.000000 -1.000000
vn 0.000000 0.000000 -1.000000
vn 0.000000 0.000000 -1.000000
vn 0.000000 0.000000 -1.000000
vn -0.000002 0.000000 1.000000
vn -0.000000 0.000000 1.000000
vn -0.000002 0.000000 1.000000
vn 0.000000 0.000000 1.000000
vn 0.809017 0.587786 0.000000
vn 0.809018 0.587784 0.000000
vn 0.809017 0.587786 0.000000
vn 0.809018 0.587784 0.000000
vn -0.587785 -0.809017 0.000000
vn -0.587785 -0.809018 0.000000
vn -0.587785 -0.809018 0.000000
vn -0.587785 -0.809017 0.000000
s 1
g mug1_Physx_14
usemtl initialShadingGroup
f 5/1/1 7/2/2 6/4/3
f 6/4/3 7/2/2 8/3/4
s 2
f 1/5/5 3/6/6 2/8/7
f 2/8/7 3/6/6 4/7/8
s 3
f 1/9/9 2/10/10 5/1/11
f 5/1/11 2/10/10 7/2/12
s 4
f 4/11/13 3/12/14 8/3/15
f 8/3/15 3/12/14 6/4/16
s 5
f 3/6/17 1/9/18 6/4/19
f 6/4/19 1/9/18 5/1/20
s 6
f 4/11/21 8/3/22 2/8/23
f 2/8/23 8/3/22 7/2/24
