# This file uses centimeters as units for non-parametric coordinates.

mtllib mug1_Physx_27.mtl
g default
v -7.085525 0.000000 5.291694
v -7.016715 0.000000 6.154671
v -7.136260 0.399707 5.291694
v -7.064966 0.399707 6.172624
v -7.269086 0.646739 5.291694
v -7.191291 0.646739 6.219627
v -7.433267 0.646739 5.291694
v -7.347436 0.646739 6.277726
v -7.566092 0.399707 5.291694
v -7.473761 0.399707 6.324729
v -7.616827 0.000000 5.291694
v -7.522012 0.000000 6.342682
v -7.566092 -0.399707 5.291694
v -7.473761 -0.399707 6.324729
v -7.433267 -0.646739 5.291694
v -7.347436 -0.646739 6.277726
v -7.269086 -0.646739 5.291694
v -7.191291 -0.646739 6.219627
v -7.136260 -0.399707 5.291694
v -7.064966 -0.399707 6.172624
vt 0.450000 1.000000
vt 0.500000 1.000000
vt 0.450000 0.900000
vt 0.500000 0.900000
vt 0.450000 0.800000
vt 0.500000 0.800000
vt 0.450000 0.700000
vt 0.500000 0.700000
vt 0.450000 0.600000
vt 0.500000 0.600000
vt 0.450000 0.500000
vt 0.500000 0.500000
vt 0.450000 0.400000
vt 0.500000 0.400000
vt 0.450000 0.300000
vt 0.500000 0.300000
vt 0.450000 0.200000
vt 0.500000 0.200000
vt 0.450000 0.100000
vt 0.500000 0.100000
vt 0.450000 -0.000000
vt 0.500000 -0.000000
vn 0.988951 0.125527 -0.078856
vn 0.988983 0.125175 -0.079023
vn 0.989144 0.123327 -0.079901
vn 0.989172 0.123007 -0.080054
vn 0.878528 0.472369 -0.071099
vn 0.879042 0.471351 -0.071504
vn 0.881727 0.465978 -0.073633
vn 0.882129 0.465165 -0.073955
vn 0.000000 1.000000 0.000000
vn 0.000000 1.000000 0.000000
vn 0.000000 1.000000 0.000000
vn 0.000000 1.000000 0.000000
vn -0.878180 0.472183 0.076442
vn -0.878594 0.471363 0.076739
vn -0.881093 0.466376 0.078543
vn -0.881420 0.465718 0.078780
vn -0.988164 0.125427 0.088321
vn -0.988186 0.125180 0.088420
vn -0.988333 0.123544 0.089074
vn -0.988353 0.123317 0.089164
vn -0.988353 -0.123317 0.089164
vn -0.988186 -0.125180 0.088420
vn -0.988333 -0.123544 0.089074
vn -0.988164 -0.125427 0.088321
vn -0.881420 -0.465718 0.078780
vn -0.878595 -0.471362 0.076740
vn -0.881093 -0.466376 0.078543
vn -0.878181 -0.472182 0.076442
vn -0.000000 -1.000000 -0.000000
vn -0.000000 -1.000000 0.000000
vn -0.000000 -1.000000 -0.000000
vn -0.000000 -1.000000 0.000000
vn 0.882129 -0.465165 -0.073955
vn 0.879042 -0.471351 -0.071504
vn 0.881727 -0.465978 -0.073633
vn 0.878528 -0.472369 -0.071099
vn 0.989172 -0.123007 -0.080054
vn 0.988983 -0.125175 -0.079023
vn 0.989144 -0.123327 -0.079901
vn 0.988951 -0.125527 -0.078856
vn 0.000000 0.000000 -1.000000
vn -0.000000 0.000000 -1.000000
vn -0.000000 0.000000 -1.000000
vn -0.000000 0.000000 -1.000000
vn -0.000000 0.000000 -1.000000
vn -0.000000 0.000000 -1.000000
vn 0.000000 0.000000 -1.000000
vn -0.000000 0.000000 -1.000000
vn -0.000000 0.000000 -1.000000
vn 0.000000 0.000000 -1.000000
vn 0.348726 0.000000 0.937225
vn 0.348723 0.000000 0.937226
vn 0.348724 -0.000000 0.937226
vn 0.348723 0.000000 0.937226
vn 0.348724 0.000000 0.937226
vn 0.348724 0.000000 0.937226
vn 0.348724 -0.000000 0.937226
vn 0.348723 -0.000001 0.937226
vn 0.348723 0.000000 0.937226
vn 0.348726 0.000000 0.937225
s 1
g mug1_Physx_27
usemtl initialShadingGroup
f 1/1/1 3/3/2 2/2/3
f 2/2/3 3/3/2 4/4/4
s 2
f 3/3/5 5/5/6 4/4/7
f 4/4/7 5/5/6 6/6/8
s 3
f 5/5/9 7/7/10 6/6/11
f 6/6/11 7/7/10 8/8/12
s 4
f 7/7/13 9/9/14 8/8/15
f 8/8/15 9/9/14 10/10/16
s 5
f 9/9/17 11/11/18 10/10/19
f 10/10/19 11/11/18 12/12/20
s 6
f 12/12/21 11/11/22 14/14/23
f 14/14/23 11/11/22 13/13/24
s 7
f 14/14/25 13/13/26 16/16/27
f 16/16/27 13/13/26 15/15/28
s 8
f 16/16/29 15/15/30 18/18/31
f 18/18/31 15/15/30 17/17/32
s 9
f 18/18/33 17/17/34 20/20/35
f 20/20/35 17/17/34 19/19/36
s 10
f 20/20/37 19/19/38 2/22/39
f 2/22/39 19/19/38 1/21/40
s 11
f 3/3/41 1/21/42 5/5/43
f 1/21/42 19/19/44 5/5/43
f 19/19/44 17/17/45 5/5/43
f 17/17/45 15/15/46 5/5/43
f 15/15/46 13/13/47 5/5/43
f 13/13/47 11/11/48 5/5/43
f 11/11/48 9/9/49 5/5/43
f 9/9/49 7/7/50 5/5/43
s 12
f 4/4/51 6/6/52 2/2/53
f 6/6/52 8/8/54 2/2/53
f 8/8/54 10/10/55 2/2/53
f 10/10/55 12/12/56 2/2/53
f 12/12/56 14/14/57 2/2/53
f 14/14/57 16/16/58 2/2/53
f 16/16/58 18/18/59 2/2/53
f 18/18/59 20/20/60 2/2/53
