# This file uses centimeters as units for non-parametric coordinates.

mtllib mug1_Physx_26.mtl
g default
v -7.016715 0.000000 6.154671
v -6.777274 0.000000 7.245580
v -7.064966 0.399707 6.172624
v -6.818319 0.399707 7.279730
v -7.191291 0.646739 6.219627
v -6.925777 0.646739 7.369135
v -7.347436 0.646739 6.277726
v -7.058602 0.646739 7.479645
v -7.473761 0.399707 6.324729
v -7.166060 0.399707 7.569050
v -7.522012 0.000000 6.342682
v -7.207106 0.000000 7.603199
v -7.473761 -0.399707 6.324729
v -7.166060 -0.399707 7.569050
v -7.347436 -0.646739 6.277726
v -7.058602 -0.646739 7.479645
v -7.191291 -0.646739 6.219627
v -6.925777 -0.646739 7.369135
v -7.064966 -0.399707 6.172624
v -6.818319 -0.399707 7.279730
vt 0.500000 1.000000
vt 0.550000 1.000000
vt 0.500000 0.900000
vt 0.550000 0.900000
vt 0.500000 0.800000
vt 0.550000 0.800000
vt 0.500000 0.700000
vt 0.550000 0.700000
vt 0.500000 0.600000
vt 0.550000 0.600000
vt 0.500000 0.500000
vt 0.550000 0.500000
vt 0.500000 0.400000
vt 0.550000 0.400000
vt 0.500000 0.300000
vt 0.550000 0.300000
vt 0.500000 0.200000
vt 0.550000 0.200000
vt 0.500000 0.100000
vt 0.550000 0.100000
vt 0.500000 -0.000000
vt 0.550000 -0.000000
vn 0.968901 0.126515 -0.212662
vn 0.968942 0.125618 -0.213007
vn 0.969223 0.118810 -0.215618
vn 0.969254 0.117980 -0.215936
vn 0.858667 0.475495 -0.191299
vn 0.859790 0.473073 -0.192258
vn 0.868723 0.453098 -0.200055
vn 0.869635 0.450984 -0.200869
vn 0.000000 1.000000 -0.000000
vn 0.000000 1.000000 -0.000000
vn 0.000000 1.000000 0.000000
vn 0.000000 1.000000 0.000000
vn -0.854951 0.476286 0.205454
vn -0.855908 0.474222 0.206239
vn -0.864302 0.455527 0.213255
vn -0.865083 0.453729 0.213921
vn -0.962907 0.126935 0.238111
vn -0.962940 0.126249 0.238344
vn -0.963208 0.120108 0.240424
vn -0.963234 0.119472 0.240639
vn -0.963234 -0.119472 0.240639
vn -0.962940 -0.126249 0.238344
vn -0.963208 -0.120108 0.240424
vn -0.962907 -0.126935 0.238111
vn -0.865083 -0.453729 0.213921
vn -0.855908 -0.474221 0.206240
vn -0.864302 -0.455527 0.213256
vn -0.854951 -0.476285 0.205454
vn -0.000000 -1.000000 0.000000
vn -0.000000 -1.000000 0.000000
vn -0.000000 -1.000000 0.000000
vn -0.000000 -1.000000 0.000000
vn 0.869635 -0.450984 -0.200869
vn 0.859790 -0.473073 -0.192258
vn 0.868723 -0.453098 -0.200055
vn 0.858667 -0.475495 -0.191299
vn 0.969254 -0.117980 -0.215936
vn 0.968942 -0.125618 -0.213007
vn 0.969223 -0.118810 -0.215618
vn 0.968901 -0.126515 -0.212661
vn -0.348726 0.000000 -0.937225
vn -0.348723 0.000000 -0.937226
vn -0.348724 0.000000 -0.937226
vn -0.348723 0.000000 -0.937226
vn -0.348725 0.000000 -0.937225
vn -0.348725 0.000000 -0.937225
vn -0.348723 0.000000 -0.937226
vn -0.348723 0.000000 -0.937226
vn -0.348725 0.000000 -0.937225
vn -0.348724 0.000000 -0.937225
vn 0.639576 -0.000001 0.768728
vn 0.639578 -0.000000 0.768727
vn 0.639578 0.000000 0.768726
vn 0.639579 0.000000 0.768725
vn 0.639578 0.000000 0.768726
vn 0.639578 0.000000 0.768726
vn 0.639578 0.000000 0.768726
vn 0.639578 0.000001 0.768726
vn 0.639579 -0.000001 0.768726
vn 0.639573 0.000001 0.768730
s 1
g mug1_Physx_26
usemtl initialShadingGroup
f 1/1/1 3/3/2 2/2/3
f 2/2/3 3/3/2 4/4/4
s 2
f 3/3/5 5/5/6 4/4/7
f 4/4/7 5/5/6 6/6/8
s 3
f 5/5/9 7/7/10 6/6/11
f 6/6/11 7/7/10 8/8/12
s 4
f 7/7/13 9/9/14 8/8/15
f 8/8/15 9/9/14 10/10/16
s 5
f 9/9/17 11/11/18 10/10/19
f 10/10/19 11/11/18 12/12/20
s 6
f 12/12/21 11/11/22 14/14/23
f 14/14/23 11/11/22 13/13/24
s 7
f 14/14/25 13/13/26 16/16/27
f 16/16/27 13/13/26 15/15/28
s 8
f 16/16/29 15/15/30 18/18/31
f 18/18/31 15/15/30 17/17/32
s 9
f 18/18/33 17/17/34 20/20/35
f 20/20/35 17/17/34 19/19/36
s 10
f 20/20/37 19/19/38 2/22/39
f 2/22/39 19/19/38 1/21/40
s 11
f 3/3/41 1/21/42 5/5/43
f 1/21/42 19/19/44 5/5/43
f 19/19/44 17/17/45 5/5/43
f 17/17/45 15/15/46 5/5/43
f 15/15/46 13/13/47 5/5/43
f 13/13/47 11/11/48 5/5/43
f 11/11/48 9/9/49 5/5/43
f 9/9/49 7/7/50 5/5/43
s 12
f 4/4/51 6/6/52 2/2/53
f 6/6/52 8/8/54 2/2/53
f 8/8/54 10/10/55 2/2/53
f 10/10/55 12/12/56 2/2/53
f 12/12/56 14/14/57 2/2/53
f 14/14/57 16/16/58 2/2/53
f 16/16/58 18/18/59 2/2/53
f 18/18/59 20/20/60 2/2/53
