# This file uses centimeters as units for non-parametric coordinates.

mtllib table_curved.mtl
g default
v -81.300156 -27.100029 0.000000
v -76.300163 -27.100029 0.000000
v -81.300156 -27.100029 0.999999
v -76.300163 -27.100029 0.999999
v -81.300156 35.220634 1.632902
v -76.300163 35.220634 1.632902
v -81.300156 34.833862 1.125160
v -76.300163 34.833862 1.125160
v -76.300163 34.144264 0.632903
v -81.300156 34.144264 0.632903
v -81.300156 34.073940 1.773548
v -76.300163 34.073940 1.773548
v -81.300156 -27.100027 73.886360
v -76.300163 -27.100027 73.886360
v -81.300156 -27.100027 74.886360
v -76.300163 -27.100027 74.886360
v -81.300156 34.802780 73.800095
v -76.300163 34.802780 73.800095
v -81.300156 35.331234 72.800095
v -76.300163 35.331234 72.800095
v -76.300163 34.039112 73.090263
v -81.300156 34.039112 73.090263
v -81.300156 33.931919 74.504692
v -76.300163 33.931919 74.504692
v -81.300156 32.077232 0.999999
v -81.300156 32.077236 0.000000
v -76.300163 32.077236 0.000000
v -76.300163 32.077232 0.999999
v -81.300156 32.288155 73.886360
v -81.300156 32.288155 74.886360
v -76.300163 32.288155 74.886360
v -76.300163 32.288155 73.886360
v -81.300156 34.636524 71.432480
v -81.300156 35.712891 71.432487
v -76.300163 35.712891 71.432487
v -76.300163 34.636524 71.432480
v -81.300156 34.636520 3.388318
v -81.300156 35.712891 3.388319
v -76.300163 35.712891 3.388319
v -76.300163 34.636520 3.388318
v 76.625786 -9.287107 0.000000
v 81.625778 -9.287107 0.000000
v 76.625786 -9.287107 1.000000
v 81.625778 -9.287107 1.000000
v 76.625786 35.220634 1.632902
v 81.625778 35.220634 1.632902
v 76.625786 34.833862 1.125160
v 81.625778 34.833862 1.125160
v 81.625778 34.144264 0.632903
v 76.625786 34.144264 0.632903
v 76.625786 34.073940 1.773548
v 81.625778 34.073940 1.773548
v 76.625786 -9.287107 73.886360
v 81.625778 -9.287107 73.886360
v 76.625786 -9.287107 74.886360
v 81.625778 -9.287107 74.886360
v 76.625786 34.802780 73.800095
v 81.625778 34.802780 73.800095
v 76.625786 35.331234 72.800095
v 81.625778 35.331234 72.800095
v 81.625778 34.039112 73.090263
v 76.625786 34.039112 73.090263
v 76.625786 33.931919 74.504692
v 81.625778 33.931919 74.504692
v 76.625786 32.077232 0.999999
v 76.625786 32.077236 0.000000
v 81.625778 32.077236 0.000000
v 81.625778 32.077232 0.999999
v 76.625786 32.288155 73.886360
v 76.625786 32.288155 74.886360
v 81.625778 32.288155 74.886360
v 81.625778 32.288155 73.886360
v 76.625786 34.636524 71.432480
v 76.625786 35.712891 71.432487
v 81.625778 35.712891 71.432487
v 81.625778 34.636524 71.432480
v 76.625786 34.636520 3.388318
v 76.625786 35.712891 3.388319
v 81.625778 35.712891 3.388319
v 81.625778 34.636520 3.388318
v -85.000000 -40.295650 75.000000
v 85.000000 -17.920107 75.000000
v -85.000000 -40.295650 77.999992
v 85.000000 -17.920107 77.999992
v -85.000000 40.000000 77.999992
v 85.000000 40.000000 77.999992
v -85.000000 40.000004 75.000000
v 85.000000 40.000004 75.000000
v -40.111023 -39.704361 77.999992
v -40.111023 40.000000 77.999992
v -40.111023 40.000004 75.000000
v -40.111023 -39.704361 75.000000
v -32.664379 -30.400097 75.000000
v -32.664379 -30.400097 77.999992
v -32.664379 40.000000 77.999992
v -32.664379 40.000004 75.000000
v -22.564796 -22.370075 77.999992
v -22.564796 40.000000 77.999992
v -22.564796 40.000004 75.000000
v -22.564796 -22.370083 75.000000
v -12.313996 -18.810099 77.999992
v -12.313996 40.000000 77.999992
v -12.313996 40.000004 75.000000
v -12.313996 -18.810099 75.000000
v -1.311952 -17.920107 77.999992
v -1.311952 40.000000 77.999992
v -1.311952 40.000004 75.000000
v -1.311952 -17.920107 75.000000
v -41.891777 -40.295650 77.999992
v -41.891777 40.000000 77.999992
v -41.891777 40.000004 75.000000
v -41.891777 -40.295650 75.000000
vt 0.375000 0.000000
vt 0.625000 0.000000
vt 0.375000 0.250000
vt 0.625000 0.250000
vt 0.250000 0.375000
vt 0.750000 0.375000
vt 0.375000 0.750000
vt 0.625000 0.750000
vt 0.375000 1.000000
vt 0.625000 1.000000
vt 0.875000 0.000000
vt 0.125000 0.000000
vt 0.625000 0.759053
vt 0.865947 0.000000
vt 0.134053 0.000000
vt 0.375000 0.759053
vt 0.254527 0.370473
vt 0.745473 0.370473
vt 0.375000 0.000000
vt 0.625000 0.000000
vt 0.625000 0.250000
vt 0.375000 0.250000
vt 0.375000 0.490947
vt 0.625000 0.490947
vt 0.625000 0.500000
vt 0.375000 0.500000
vt 0.750000 0.375000
vt 0.250000 0.375000
vt 0.865947 0.250000
vt 0.745473 0.379527
vt 0.875000 0.250000
vt 0.254527 0.379527
vt 0.134053 0.250000
vt 0.125000 0.250000
vt 0.625000 1.000000
vt 0.375000 1.000000
vt 0.261546 0.363454
vt 0.148092 0.000000
vt 0.375000 0.773092
vt 0.625000 0.773092
vt 0.851908 0.000000
vt 0.738454 0.363454
vt 0.259518 0.363801
vt 0.259518 0.405235
vt 0.144036 0.250000
vt 0.375000 0.480964
vt 0.625000 0.480964
vt 0.855964 0.250000
vt 0.740482 0.405235
vt 0.740482 0.363801
vt 0.254527 0.379331
vt 0.250000 0.375000
vt 0.750000 0.375000
vt 0.745473 0.379331
vt 0.254527 0.370678
vt 0.250000 0.375000
vt 0.750000 0.375000
vt 0.745473 0.370678
vt 0.375000 0.000000
vt 0.625000 0.000000
vt 0.625000 0.250000
vt 0.375000 0.250000
vt 0.250000 0.375000
vt 0.750000 0.375000
vt 0.625000 0.750000
vt 0.375000 0.750000
vt 0.625000 0.759053
vt 0.375000 0.759053
vt 0.745473 0.370473
vt 0.865947 0.000000
vt 0.875000 0.000000
vt 0.125000 0.000000
vt 0.134053 0.000000
vt 0.254527 0.370473
vt 0.375000 0.773092
vt 0.625000 0.773092
vt 0.625000 1.000000
vt 0.375000 1.000000
vt 0.261546 0.363454
vt 0.148092 0.000000
vt 0.738454 0.363454
vt 0.851908 0.000000
vt 0.375000 0.000000
vt 0.625000 0.000000
vt 0.625000 0.250000
vt 0.375000 0.250000
vt 0.375000 0.490947
vt 0.625000 0.490947
vt 0.625000 0.500000
vt 0.375000 0.500000
vt 0.750000 0.375000
vt 0.250000 0.375000
vt 0.865947 0.250000
vt 0.745473 0.379527
vt 0.875000 0.250000
vt 0.254527 0.379527
vt 0.134053 0.250000
vt 0.125000 0.250000
vt 0.740482 0.405235
vt 0.259518 0.405235
vt 0.259518 0.363801
vt 0.144036 0.250000
vt 0.375000 0.480964
vt 0.625000 0.480964
vt 0.740482 0.363801
vt 0.855964 0.250000
vt 0.745473 0.370678
vt 0.254527 0.370678
vt 0.250000 0.375000
vt 0.750000 0.375000
vt 0.625000 1.000000
vt 0.375000 1.000000
vt 0.250000 0.375000
vt 0.254527 0.379331
vt 0.750000 0.375000
vt 0.745473 0.379331
vt 0.375000 0.000000
vt 0.444216 0.000000
vt 0.444216 0.250000
vt 0.375000 0.250000
vt 0.444216 0.500000
vt 0.375000 0.500000
vt 0.444216 0.750000
vt 0.375000 0.750000
vt 0.444216 1.000000
vt 0.375000 1.000000
vt 0.625000 0.000000
vt 0.875000 0.000000
vt 0.875000 0.250000
vt 0.625000 0.250000
vt 0.125000 0.000000
vt 0.125000 0.250000
vt 0.446243 0.250000
vt 0.459214 0.250000
vt 0.459214 0.500000
vt 0.446243 0.500000
vt 0.446243 0.750000
vt 0.459214 0.750000
vt 0.446243 1.000000
vt 0.459214 1.000000
vt 0.446243 0.000000
vt 0.459214 0.000000
vt 0.476046 0.000000
vt 0.476046 0.250000
vt 0.476046 0.500000
vt 0.476046 0.750000
vt 0.476046 1.000000
vt 0.493131 0.250000
vt 0.493131 0.500000
vt 0.493131 0.750000
vt 0.493131 1.000000
vt 0.493131 0.000000
vt 0.509863 0.250000
vt 0.509863 0.500000
vt 0.509863 0.750000
vt 0.509863 1.000000
vt 0.509863 0.000000
vt 0.625000 0.500000
vt 0.625000 0.750000
vt 0.625000 1.000000
vn 0.000000 -1.000000 0.000000
vn 0.000000 -1.000000 0.000000
vn 0.000000 -1.000000 0.000000
vn 0.000000 -1.000000 0.000000
vn 0.000000 0.932156 -0.362056
vn 0.000000 0.932156 -0.362056
vn 0.000000 0.795491 -0.605966
vn 0.000000 0.795494 -0.605961
vn 0.000000 0.580992 -0.813909
vn 0.000000 0.580992 -0.813909
vn 0.000000 0.377898 -0.925847
vn 0.000000 0.377899 -0.925847
vn 1.000000 -0.000001 0.000000
vn 1.000000 0.000008 0.000000
vn 1.000000 -0.000001 0.000000
vn 1.000000 -0.000001 0.000000
vn -1.000000 0.000001 0.000000
vn -1.000000 -0.000003 0.000000
vn -1.000000 -0.000010 0.000000
vn -1.000000 -0.000006 0.000000
vn 0.000000 0.010334 -0.999947
vn 0.000000 0.010334 -0.999947
vn 0.000000 0.000000 -1.000000
vn 0.000000 0.000000 -1.000000
vn -1.000000 0.000000 0.000000
vn -1.000000 0.000000 0.000000
vn -1.000000 0.000000 0.000000
vn -1.000000 0.000000 0.000000
vn 0.000000 -0.000000 1.000000
vn 0.000000 -0.000000 1.000000
vn 0.000000 -0.012644 0.999920
vn 0.000000 -0.012644 0.999920
vn 1.000000 0.000000 0.000000
vn 1.000000 0.000000 0.000000
vn 1.000000 0.000000 0.000000
vn 1.000000 0.000000 0.000000
vn 0.000000 -1.000000 0.000000
vn 0.000000 -1.000000 0.000000
vn 0.000000 -1.000000 0.000000
vn 0.000000 -1.000000 0.000000
vn 0.000000 0.396561 0.918009
vn 0.000000 0.396560 0.918009
vn 0.000000 0.628992 0.777412
vn 0.000000 0.628987 0.777416
vn 0.000000 0.884138 0.467227
vn 0.000000 0.884139 0.467224
vn 0.000000 0.933412 0.358806
vn 0.000000 0.933413 0.358803
vn 1.000000 0.000000 0.000000
vn 1.000000 0.000000 0.000000
vn 1.000000 0.000000 0.000000
vn 1.000000 0.000001 0.000000
vn -1.000000 0.000003 0.000000
vn -1.000000 -0.000000 0.000000
vn -1.000000 -0.000003 0.000000
vn -1.000000 -0.000001 0.000000
vn 0.000000 -0.413893 -0.910325
vn 0.000000 -0.413891 -0.910326
vn 0.000000 -0.013020 -0.999915
vn 0.000000 -0.013020 -0.999915
vn -1.000000 0.000000 0.000000
vn -1.000000 0.000000 0.000000
vn 0.000000 0.006253 0.999981
vn 0.000000 0.006253 0.999981
vn 1.000000 0.000000 0.000000
vn 1.000000 0.000000 0.000000
vn 0.000000 -0.944330 0.329001
vn 0.000000 -0.944329 0.329002
vn 0.000000 -0.999967 0.008076
vn 0.000000 -0.999967 0.008076
vn 0.000000 0.999975 -0.007052
vn 0.000000 0.999975 -0.007052
vn 1.000000 -0.000000 0.000000
vn 1.000000 0.000000 0.000000
vn -1.000000 -0.000000 0.000000
vn -1.000000 0.000000 0.000000
vn 0.000000 -0.361250 0.932469
vn 0.000000 -0.361248 0.932470
vn -1.000000 0.000000 0.000000
vn -1.000000 0.000000 0.000000
vn 0.000000 0.000000 1.000000
vn 0.000000 0.000000 1.000000
vn 1.000000 0.000000 0.000000
vn 1.000000 0.000000 0.000000
vn 0.000000 0.000000 -1.000000
vn 0.000000 0.000000 -1.000000
vn -1.000000 -0.000009 0.000000
vn -1.000000 -0.000009 0.000000
vn 0.000000 0.999985 0.005498
vn 0.000000 0.999985 0.005498
vn 1.000000 0.000011 0.000000
vn 1.000000 0.000010 0.000000
vn 0.000000 -0.999963 -0.008571
vn 0.000000 -0.999963 -0.008571
vn 0.000000 -0.940777 -0.339026
vn 0.000000 -0.940777 -0.339026
vn 0.000000 -1.000000 0.000000
vn 0.000000 -1.000000 0.000000
vn 0.000000 -1.000000 0.000000
vn 0.000000 -1.000000 0.000000
vn 0.000000 0.932156 -0.362057
vn 0.000000 0.932157 -0.362055
vn 0.000000 0.795490 -0.605967
vn 0.000000 0.795495 -0.605960
vn 0.000000 0.580992 -0.813909
vn 0.000000 0.580992 -0.813909
vn 0.000000 0.377898 -0.925847
vn 0.000000 0.377899 -0.925847
vn 1.000000 0.000001 0.000000
vn 1.000000 -0.000014 0.000000
vn 1.000000 0.000007 0.000000
vn 1.000000 0.000008 0.000000
vn -1.000000 -0.000003 0.000000
vn -1.000000 -0.000004 0.000000
vn -1.000000 0.000005 0.000000
vn -1.000000 -0.000003 0.000000
vn 0.000000 0.014571 -0.999894
vn 0.000000 0.014571 -0.999894
vn 0.000000 0.000000 -1.000000
vn 0.000000 0.000000 -1.000000
vn -1.000000 -0.000000 0.000000
vn -1.000000 -0.000000 0.000000
vn -1.000000 -0.000000 0.000000
vn -1.000000 0.000000 0.000000
vn 0.000000 0.000000 1.000000
vn 0.000000 0.000000 1.000000
vn 0.000000 -0.017837 0.999841
vn 0.000000 -0.017837 0.999841
vn 1.000000 0.000000 0.000000
vn 1.000000 -0.000000 0.000000
vn 1.000000 -0.000000 0.000000
vn 1.000000 0.000000 0.000000
vn 0.000000 -1.000000 -0.000002
vn 0.000000 -1.000000 -0.000000
vn 0.000000 -1.000000 -0.000001
vn 0.000000 -1.000000 0.000000
vn 0.000000 0.396560 0.918009
vn 0.000000 0.396561 0.918008
vn 0.000000 0.628991 0.777412
vn 0.000000 0.628987 0.777416
vn 0.000000 0.884137 0.467228
vn 0.000000 0.884139 0.467223
vn 0.000000 0.933412 0.358806
vn 0.000000 0.933414 0.358802
vn 1.000000 -0.000001 0.000000
vn 1.000000 -0.000001 0.000000
vn 1.000000 -0.000003 0.000000
vn 1.000000 -0.000002 0.000000
vn -1.000000 0.000002 0.000000
vn -1.000000 0.000000 0.000000
vn -1.000000 -0.000003 0.000000
vn -1.000000 -0.000001 0.000000
vn 0.000000 -0.413893 -0.910326
vn 0.000000 -0.413892 -0.910326
vn 0.000000 -0.018371 -0.999831
vn 0.000000 -0.018371 -0.999831
vn -1.000000 0.000000 0.000000
vn -1.000000 0.000000 0.000000
vn 0.000000 0.008831 0.999961
vn 0.000000 0.008831 0.999961
vn 1.000000 0.000000 0.000000
vn 1.000000 0.000000 0.000000
vn 0.000000 -0.944329 0.329002
vn 0.000000 -0.944330 0.329000
vn 0.000000 -0.999967 0.008076
vn 0.000000 -0.999967 0.008076
vn 0.000000 0.999975 -0.007052
vn 0.000000 0.999975 -0.007052
vn 1.000000 0.000000 0.000000
vn 1.000000 -0.000000 0.000000
vn -1.000000 -0.000000 0.000000
vn -1.000000 0.000000 0.000000
vn 0.000000 -0.361249 0.932469
vn 0.000000 -0.361250 0.932469
vn -1.000000 0.000000 0.000000
vn -1.000000 0.000000 0.000000
vn 0.000000 0.000000 1.000000
vn 0.000000 0.000000 1.000000
vn 1.000000 0.000000 0.000000
vn 1.000000 0.000000 0.000000
vn 0.000000 0.000000 -1.000000
vn 0.000000 0.000000 -1.000000
vn -1.000000 -0.000003 0.000000
vn -1.000000 -0.000003 0.000000
vn 0.000000 0.999985 0.005498
vn 0.000000 0.999985 0.005498
vn 1.000000 -0.000010 0.000000
vn 1.000000 -0.000009 0.000000
vn 0.000000 -0.999963 -0.008571
vn 0.000000 -0.999963 -0.008571
vn 0.000000 -0.940777 -0.339026
vn 0.000000 -0.940777 -0.339026
vn 0.000000 -1.000000 0.000000
vn 0.013171 -0.999913 0.000000
vn 0.000000 -1.000000 0.000000
vn 0.013171 -0.999913 0.000000
vn 0.000000 0.000000 1.000000
vn 0.000000 0.000000 1.000000
vn 0.000000 0.000000 1.000000
vn 0.000000 0.000000 1.000000
vn 0.000000 1.000000 0.000000
vn 0.000000 1.000000 0.000004
vn 0.000000 1.000000 0.000000
vn 0.000000 1.000000 0.000004
vn 0.000000 0.000000 -1.000000
vn 0.000000 0.000000 -1.000000
vn 0.000000 0.000000 -1.000000
vn 0.000000 0.000000 -1.000000
vn 1.000000 0.000000 0.000000
vn 1.000000 0.000000 0.000000
vn 1.000000 0.000000 0.000000
vn 1.000000 0.000000 0.000000
vn -1.000000 0.000000 0.000000
vn -1.000000 0.000000 0.000000
vn -1.000000 0.000000 0.000000
vn -1.000000 0.000000 0.000000
vn 0.000002 0.000000 1.000000
vn -0.000001 0.000000 1.000000
vn -0.000000 0.000000 1.000000
vn 0.000000 0.000000 1.000000
vn 0.000000 1.000000 0.000003
vn 0.000000 1.000000 0.000002
vn 0.000000 1.000000 0.000001
vn 0.000000 1.000000 0.000001
vn 0.000000 0.000000 -1.000000
vn 0.000000 0.000000 -1.000000
vn 0.000000 0.000000 -1.000000
vn 0.000000 0.000000 -1.000000
vn 0.731367 -0.681984 0.000000
vn 0.731367 -0.681984 0.000000
vn 0.702797 -0.711391 0.000000
vn 0.702797 -0.711390 0.000000
vn 0.494889 -0.868956 0.000002
vn 0.494889 -0.868956 0.000002
vn 0.000001 0.000000 1.000000
vn 0.000000 0.000000 1.000000
vn 0.000000 1.000000 0.000001
vn 0.000000 1.000000 0.000001
vn 0.000000 0.000000 -1.000000
vn 0.000000 0.000000 -1.000000
vn 0.000000 0.000000 1.000000
vn 0.000000 0.000000 1.000000
vn 0.000000 1.000000 0.000001
vn 0.000000 1.000000 0.000001
vn 0.000000 0.000000 -1.000000
vn -0.000000 0.000000 -1.000000
vn 0.204939 -0.978775 0.000000
vn 0.204939 -0.978775 0.000000
vn 0.000000 0.000000 1.000000
vn 0.000000 0.000000 1.000000
vn 0.000000 1.000000 0.000002
vn 0.000000 1.000000 0.000002
vn -0.000000 0.000000 -1.000000
vn 0.000000 0.000000 -1.000000
vn 0.009145 -0.999958 0.000000
vn 0.009145 -0.999958 0.000000
vn 0.000000 0.000000 1.000000
vn 0.000000 0.000000 1.000000
vn 0.000000 1.000000 0.000000
vn 0.000000 1.000000 0.000000
vn 0.000000 0.000000 -1.000000
vn 0.000000 0.000000 -1.000000
vn 0.000000 -1.000000 0.000000
vn 0.000000 -1.000000 0.000000
s 1
g table_curved
usemtl initialShadingGroup
f 1/1/1 2/2/2 3/3/3
f 3/3/3 2/2/2 4/4/4
s 2
f 5/5/5 6/6/6 7/7/7
f 7/7/7 6/6/6 8/8/8
s 3
f 7/7/9 8/8/10 10/16/11
f 10/16/11 8/8/10 9/13/12
s 4
f 9/14/13 8/11/14 12/18/15
f 12/18/15 8/11/14 6/6/16
s 5
f 10/15/17 11/17/18 7/12/19
f 7/12/19 11/17/18 5/5/20
s 3
f 26/39/21 27/40/22 1/9/23
f 1/9/23 27/40/22 2/10/24
s 5
f 25/37/25 26/38/26 3/3/27
f 3/3/27 26/38/26 1/1/28
s 8
f 3/3/29 4/4/30 25/37/31
f 25/37/31 4/4/30 28/42/32
s 4
f 2/2/33 27/41/34 4/4/35
f 4/4/35 27/41/34 28/42/36
s 10
f 13/19/37 14/20/38 15/22/39
f 15/22/39 14/20/38 16/21/40
s 11
f 23/23/41 24/24/42 17/26/43
f 17/26/43 24/24/42 18/25/44
s 2
f 17/26/45 18/25/46 19/28/47
f 19/28/47 18/25/46 20/27/48
s 4
f 24/29/49 21/30/50 18/31/51
f 18/31/51 21/30/50 20/27/52
s 5
f 19/28/53 22/32/54 17/34/55
f 17/34/55 22/32/54 23/33/56
s 15
f 22/32/57 21/30/58 29/44/59
f 29/44/59 21/30/58 32/49/60
s 5
f 22/32/54 29/43/61 23/33/56
f 23/33/56 29/43/61 30/45/62
s 11
f 30/46/63 31/47/64 23/23/41
f 23/23/41 31/47/64 24/24/42
s 4
f 21/30/50 24/29/49 32/50/65
f 32/50/65 24/29/49 31/48/66
s 17
f 11/17/67 12/18/68 37/55/69
f 37/55/69 12/18/68 40/58/70
s 2
f 6/6/6 5/5/5 39/57/71
f 39/57/71 5/5/5 38/56/72
s 4
f 12/18/15 6/6/16 40/58/73
f 40/58/73 6/6/16 39/57/74
s 5
f 11/17/18 37/55/75 5/5/20
f 5/5/20 37/55/75 38/56/76
f 11/17/18 10/15/17 25/37/25
f 25/37/25 10/15/17 26/38/26
s 3
f 10/16/11 9/13/12 26/39/21
f 26/39/21 9/13/12 27/40/22
s 4
f 27/41/34 9/14/13 28/42/36
f 28/42/36 9/14/13 12/18/15
s 8
f 25/37/31 28/42/32 11/17/77
f 11/17/77 28/42/32 12/18/78
s 5
f 30/45/62 29/43/61 15/22/79
f 15/22/79 29/43/61 13/19/80
s 11
f 15/22/81 16/21/82 30/46/63
f 30/46/63 16/21/82 31/47/64
s 4
f 14/20/83 32/50/65 16/21/84
f 16/21/84 32/50/65 31/48/66
s 15
f 29/44/59 32/49/60 13/36/85
f 13/36/85 32/49/60 14/35/86
s 5
f 34/52/87 33/51/88 19/28/53
f 19/28/53 33/51/88 22/32/54
s 2
f 35/53/89 34/52/90 20/27/48
f 20/27/48 34/52/90 19/28/47
s 4
f 35/53/91 20/27/52 36/54/92
f 36/54/92 20/27/52 21/30/50
s 17
f 33/51/93 36/54/94 22/32/95
f 22/32/95 36/54/94 21/30/96
s 5
f 38/56/76 37/55/75 34/52/87
f 34/52/87 37/55/75 33/51/88
s 2
f 39/57/71 38/56/72 35/53/89
f 35/53/89 38/56/72 34/52/90
s 4
f 40/58/73 39/57/74 36/54/92
f 36/54/92 39/57/74 35/53/91
s 17
f 37/55/69 40/58/70 33/51/93
f 33/51/93 40/58/70 36/54/94
s 21
f 41/59/97 42/60/98 43/62/99
f 43/62/99 42/60/98 44/61/100
s 22
f 45/63/101 46/64/102 47/66/103
f 47/66/103 46/64/102 48/65/104
s 23
f 47/66/105 48/65/106 50/68/107
f 50/68/107 48/65/106 49/67/108
s 24
f 49/70/109 48/71/110 52/69/111
f 52/69/111 48/71/110 46/64/112
s 25
f 50/73/113 51/74/114 47/72/115
f 47/72/115 51/74/114 45/63/116
s 23
f 66/75/117 67/76/118 41/78/119
f 41/78/119 67/76/118 42/77/120
s 25
f 65/79/121 66/80/122 43/62/123
f 43/62/123 66/80/122 41/59/124
s 28
f 43/62/125 44/61/126 65/79/127
f 65/79/127 44/61/126 68/81/128
s 24
f 42/60/129 67/82/130 44/61/131
f 44/61/131 67/82/130 68/81/132
s 30
f 53/83/133 54/84/134 55/86/135
f 55/86/135 54/84/134 56/85/136
s 31
f 63/87/137 64/88/138 57/90/139
f 57/90/139 64/88/138 58/89/140
s 22
f 57/90/141 58/89/142 59/92/143
f 59/92/143 58/89/142 60/91/144
s 24
f 64/93/145 61/94/146 58/95/147
f 58/95/147 61/94/146 60/91/148
s 25
f 59/92/149 62/96/150 57/98/151
f 57/98/151 62/96/150 63/97/152
s 35
f 62/96/153 61/94/154 69/100/155
f 69/100/155 61/94/154 72/99/156
s 25
f 62/96/150 69/101/157 63/97/152
f 63/97/152 69/101/157 70/102/158
s 31
f 70/103/159 71/104/160 63/87/137
f 63/87/137 71/104/160 64/88/138
s 24
f 61/94/146 64/93/145 72/105/161
f 72/105/161 64/93/145 71/106/162
s 37
f 51/74/163 52/69/164 77/108/165
f 77/108/165 52/69/164 80/107/166
s 22
f 46/64/102 45/63/101 79/110/167
f 79/110/167 45/63/101 78/109/168
s 24
f 52/69/111 46/64/112 80/107/169
f 80/107/169 46/64/112 79/110/170
s 25
f 51/74/114 77/108/171 45/63/116
f 45/63/116 77/108/171 78/109/172
f 51/74/114 50/73/113 65/79/121
f 65/79/121 50/73/113 66/80/122
s 23
f 50/68/107 49/67/108 66/75/117
f 66/75/117 49/67/108 67/76/118
s 24
f 67/82/130 49/70/109 68/81/132
f 68/81/132 49/70/109 52/69/111
s 28
f 65/79/127 68/81/128 51/74/173
f 51/74/173 68/81/128 52/69/174
s 25
f 70/102/158 69/101/157 55/86/175
f 55/86/175 69/101/157 53/83/176
s 31
f 55/86/177 56/85/178 70/103/159
f 70/103/159 56/85/178 71/104/160
s 24
f 54/84/179 72/105/161 56/85/180
f 56/85/180 72/105/161 71/106/162
s 35
f 69/100/155 72/99/156 53/112/181
f 53/112/181 72/99/156 54/111/182
s 25
f 74/113/183 73/114/184 59/92/149
f 59/92/149 73/114/184 62/96/150
s 22
f 75/115/185 74/113/186 60/91/144
f 60/91/144 74/113/186 59/92/143
s 24
f 75/115/187 60/91/148 76/116/188
f 76/116/188 60/91/148 61/94/146
s 37
f 73/114/189 76/116/190 62/96/191
f 62/96/191 76/116/190 61/94/192
s 25
f 78/109/172 77/108/171 74/113/183
f 74/113/183 77/108/171 73/114/184
s 22
f 79/110/167 78/109/168 75/115/185
f 75/115/185 78/109/168 74/113/186
s 24
f 80/107/169 79/110/170 76/116/188
f 76/116/188 79/110/170 75/115/187
s 37
f 77/108/165 80/107/166 73/114/189
f 73/114/189 80/107/166 76/116/190
s 41
f 81/117/193 112/118/194 83/120/195
f 83/120/195 112/118/194 109/119/196
s 42
f 83/120/197 109/119/198 85/122/199
f 85/122/199 109/119/198 110/121/200
s 43
f 85/122/201 110/121/202 87/124/203
f 87/124/203 110/121/202 111/123/204
s 44
f 87/124/205 111/123/206 81/126/207
f 81/126/207 111/123/206 112/125/208
s 45
f 82/127/209 88/128/210 84/130/211
f 84/130/211 88/128/210 86/129/212
s 46
f 87/131/213 81/117/214 85/132/215
f 85/132/215 81/117/214 83/120/216
s 42
f 89/133/217 94/134/218 90/136/219
f 90/136/219 94/134/218 95/135/220
s 43
f 91/137/221 90/136/222 96/138/223
f 96/138/223 90/136/222 95/135/224
s 44
f 92/139/225 91/137/226 93/140/227
f 93/140/227 91/137/226 96/138/228
s 41
f 89/133/229 92/141/230 94/134/231
f 94/134/231 92/141/230 93/142/232
f 94/134/231 93/142/232 97/144/233
f 97/144/233 93/142/232 100/143/234
s 42
f 94/134/218 97/144/235 95/135/220
f 95/135/220 97/144/235 98/145/236
s 43
f 96/138/223 95/135/224 99/146/237
f 99/146/237 95/135/224 98/145/238
s 44
f 93/140/227 96/138/228 100/147/239
f 100/147/239 96/138/228 99/146/240
s 42
f 97/144/235 101/148/241 98/145/236
f 98/145/236 101/148/241 102/149/242
s 43
f 99/146/237 98/145/238 103/150/243
f 103/150/243 98/145/238 102/149/244
s 44
f 100/147/239 99/146/240 104/151/245
f 104/151/245 99/146/240 103/150/246
s 41
f 97/144/233 100/143/234 101/148/247
f 101/148/247 100/143/234 104/152/248
s 42
f 101/148/241 105/153/249 102/149/242
f 102/149/242 105/153/249 106/154/250
s 43
f 103/150/243 102/149/244 107/155/251
f 107/155/251 102/149/244 106/154/252
s 44
f 104/151/245 103/150/246 108/156/253
f 108/156/253 103/150/246 107/155/254
s 41
f 101/148/247 104/152/248 105/153/255
f 105/153/255 104/152/248 108/157/256
s 42
f 106/154/250 105/153/249 86/158/257
f 86/158/257 105/153/249 84/130/258
s 43
f 107/155/251 106/154/252 88/159/259
f 88/159/259 106/154/252 86/158/260
s 44
f 108/156/253 107/155/254 82/160/261
f 82/160/261 107/155/254 88/159/262
s 41
f 105/153/255 108/157/256 84/130/263
f 84/130/263 108/157/256 82/127/264
s 42
f 109/119/198 89/133/217 110/121/200
f 110/121/200 89/133/217 90/136/219
s 43
f 111/123/204 110/121/202 91/137/221
f 91/137/221 110/121/202 90/136/222
s 44
f 112/125/208 111/123/206 92/139/225
f 92/139/225 111/123/206 91/137/226
s 41
f 109/119/196 112/118/194 89/133/229
f 89/133/229 112/118/194 92/141/230
