# This file uses centimeters as units for non-parametric coordinates.

mtllib table_curved_Physx_8.mtl
g default
v 76.625786 -9.287107 0.000000
v 81.625778 -9.287107 0.000000
v 76.625786 -9.287107 1.000000
v 81.625778 -9.287107 1.000000
v 76.625786 33.433483 0.999999
v 76.625786 33.433487 0.000000
v 81.625778 33.433487 0.000000
v 81.625778 33.433483 0.999999
vt 0.375000 0.000000
vt 0.625000 0.000000
vt 0.375000 0.250000
vt 0.625000 0.250000
vt 0.375000 1.000000
vt 0.625000 1.000000
vt 0.261546 0.363454
vt 0.148092 0.000000
vt 0.375000 0.773092
vt 0.625000 0.773092
vt 0.851908 0.000000
vt 0.738454 0.363454
vn 0.000000 -1.000000 0.000000
vn 0.000000 -1.000000 0.000000
vn 0.000000 -1.000000 0.000000
vn 0.000000 -1.000000 0.000000
vn 0.000000 0.000000 -1.000000
vn 0.000000 0.000000 -1.000000
vn 0.000000 0.000000 -1.000000
vn 0.000000 0.000000 -1.000000
vn -1.000000 -0.000000 0.000000
vn -1.000000 -0.000000 0.000000
vn -1.000000 -0.000000 0.000000
vn -1.000000 0.000000 0.000000
vn 0.000000 0.000000 1.000000
vn 0.000000 0.000000 1.000000
vn 0.000000 0.000000 1.000000
vn 0.000000 0.000000 1.000000
vn 1.000000 0.000000 0.000000
vn 1.000000 -0.000000 0.000000
vn 1.000000 -0.000000 0.000000
vn 1.000000 -0.000000 0.000000
vn 0.000000 1.000000 0.000000
vn 0.000000 1.000000 0.000001
vn 0.000000 1.000000 0.000005
vn 0.000000 1.000000 0.000006
s 1
g table_curved_Physx_8
usemtl initialShadingGroup
f 1/1/1 2/2/2 3/3/3
f 3/3/3 2/2/2 4/4/4
s 2
f 6/9/5 7/10/6 1/5/7
f 1/5/7 7/10/6 2/6/8
s 3
f 5/7/9 6/8/10 3/3/11
f 3/3/11 6/8/10 1/1/12
s 4
f 3/3/13 4/4/14 5/7/15
f 5/7/15 4/4/14 8/12/16
s 5
f 2/2/17 7/11/18 4/4/19
f 4/4/19 7/11/18 8/12/20
s 6
f 6/8/21 5/7/22 7/10/23
f 7/10/23 5/7/22 8/12/24
