# This file uses centimeters as units for non-parametric coordinates.

mtllib table_curved_Physx_4.mtl
g default
v -32.589630 -30.400097 75.000000
v -32.589630 -30.400097 77.999992
v -32.589630 40.000000 77.999992
v -32.589630 40.000004 75.000000
v -22.638208 -22.370075 77.999992
v -22.638208 40.000000 77.999992
v -22.638208 40.000004 75.000000
v -22.638208 -22.370083 75.000000
vt 0.459214 0.000000
vt 0.459214 1.000000
vt 0.459214 0.250000
vt 0.459214 0.500000
vt 0.459214 0.750000
vt 0.476046 0.250000
vt 0.476046 0.500000
vt 0.476046 0.750000
vt 0.476046 0.000000
vt 0.476046 1.000000
vn 0.627974 -0.778235 0.000000
vn 0.627974 -0.778235 0.000000
vn 0.627974 -0.778234 0.000001
vn 0.627975 -0.778234 0.000002
vn 0.000001 0.000000 1.000000
vn 0.000001 0.000000 1.000000
vn 0.000000 0.000000 1.000000
vn 0.000000 0.000000 1.000000
vn 0.000000 1.000000 0.000002
vn 0.000000 1.000000 0.000002
vn 0.000000 1.000000 0.000000
vn 0.000000 1.000000 0.000000
vn 0.000000 0.000000 -1.000000
vn 0.000000 0.000000 -1.000000
vn 0.000000 0.000000 -1.000000
vn 0.000000 0.000000 -1.000000
vn -1.000000 0.000000 0.000000
vn -1.000000 0.000000 0.000000
vn -1.000000 0.000000 0.000000
vn -1.000000 0.000000 0.000000
vn 1.000000 0.000000 0.000000
vn 1.000000 0.000000 0.000000
vn 1.000000 0.000000 0.000000
vn 1.000000 0.000000 0.000000
s 1
g table_curved_Physx_4
usemtl initialShadingGroup
f 2/3/1 1/1/2 5/6/3
f 5/6/3 1/1/2 8/9/4
s 2
f 2/3/5 5/6/6 3/4/7
f 3/4/7 5/6/6 6/7/8
s 3
f 4/5/9 3/4/10 7/8/11
f 7/8/11 3/4/10 6/7/12
s 4
f 1/2/13 4/5/14 8/10/15
f 8/10/15 4/5/14 7/8/16
s 5
f 2/3/17 3/4/18 1/1/19
f 1/1/19 3/4/18 4/5/20
s 6
f 6/7/21 5/6/22 7/8/23
f 7/8/23 5/6/22 8/10/24
