# This file uses centimeters as units for non-parametric coordinates.

mtllib bottle_cola_plastic2_Physx_2.mtl
g default
v 2.743382 1.221432 4.573289
v 2.009404 2.231668 4.573289
v 0.927980 2.856028 4.573289
v -0.313899 2.986555 4.573289
v -1.501503 2.600679 4.573289
v -2.429483 1.765123 4.573289
v -2.937383 0.624360 4.573289
v -2.937383 -0.624360 4.573289
v -2.429483 -1.765123 4.573289
v -1.501503 -2.600679 4.573289
v -0.313900 -2.986555 4.573289
v 0.927980 -2.856029 4.573289
v 2.009403 -2.231669 4.573289
v 2.743383 -1.221433 4.573289
v 3.003006 0.000000 4.573289
v 2.955544 1.315892 15.003657
v 2.164802 2.404255 15.003658
v 0.999746 3.076901 15.003658
v -0.338175 3.217522 15.003658
v -1.617622 2.801805 15.003660
v -2.617368 1.901630 15.003660
v -3.164547 0.672646 15.003660
v -3.164547 -0.672645 15.003659
v -2.617369 -1.901630 15.003660
v -1.617623 -2.801805 15.003660
v -0.338175 -3.217522 15.003658
v 0.999746 -3.076901 15.003658
v 2.164802 -2.404253 15.003660
v 2.955544 -1.315889 15.003658
v 3.235246 0.000000 15.003658
v 0.936231 0.416838 21.104366
v 0.685747 0.761600 21.104366
v 0.316691 0.974674 21.104366
v -0.107122 1.019220 21.104368
v -0.512412 0.887531 21.104366
v -0.829103 0.602385 21.104368
v -1.002435 0.213076 21.104366
v -1.002436 -0.213079 21.104368
v -0.829105 -0.602375 21.104366
v -0.512411 -0.887526 21.104366
v -0.107122 -1.019218 21.104366
v 0.316686 -0.974672 21.104366
v 0.685747 -0.761593 21.104366
v 0.936233 -0.416830 21.104366
v 1.024833 0.000002 21.104366
vt 0.642741 0.907303
vt 0.604552 0.959866
vt 0.642741 0.907303
vt 0.604552 0.959866
vt 0.548284 0.992353
vt 0.548284 0.992353
vt 0.483667 0.999144
vt 0.483667 0.999144
vt 0.421875 0.979066
vt 0.421875 0.979066
vt 0.373591 0.935591
vt 0.373591 0.935591
vt 0.347164 0.876236
vt 0.347164 0.876236
vt 0.347164 0.811264
vt 0.347164 0.811264
vt 0.373591 0.751909
vt 0.373591 0.751909
vt 0.421875 0.708434
vt 0.421875 0.708434
vt 0.483667 0.688356
vt 0.483667 0.688356
vt 0.548284 0.695147
vt 0.548284 0.695147
vt 0.604552 0.727634
vt 0.604552 0.727634
vt 0.642741 0.780197
vt 0.642741 0.780197
vt 0.656250 0.843750
vt 0.656250 0.843750
vt 0.642741 0.907303
vt 0.604552 0.959866
vt 0.548284 0.992353
vt 0.483667 0.999144
vt 0.421875 0.979066
vt 0.373591 0.935591
vt 0.347164 0.876236
vt 0.347164 0.811264
vt 0.373591 0.751909
vt 0.421875 0.708434
vt 0.483667 0.688356
vt 0.548284 0.695147
vt 0.604552 0.727634
vt 0.642741 0.780197
vt 0.656250 0.843750
vn 0.913590 0.406026 -0.022260
vn 0.669461 0.742514 -0.022260
vn 0.907281 0.404780 0.113989
vn 0.907281 0.404780 0.113989
vn 0.669461 0.742514 -0.022260
vn 0.664204 0.738810 0.113989
vn 0.669461 0.742514 -0.022260
vn 0.309575 0.950614 -0.022260
vn 0.664204 0.738810 0.113989
vn 0.664204 0.738810 0.113989
vn 0.309575 0.950614 -0.022260
vn 0.306279 0.945092 0.113989
vn 0.309575 0.950614 -0.022260
vn -0.103839 0.994345 -0.022260
vn 0.306279 0.945092 0.113989
vn 0.306279 0.945092 0.113989
vn -0.103839 0.994345 -0.022260
vn -0.104604 0.987960 0.113989
vn -0.103839 0.994345 -0.022260
vn -0.499298 0.866144 -0.022260
vn -0.104604 0.987960 0.113989
vn -0.104604 0.987960 0.113989
vn -0.499298 0.866144 -0.022260
vn -0.497399 0.860000 0.113989
vn -0.499298 0.866144 -0.022260
vn -0.808424 0.588179 -0.022260
vn -0.497399 0.860000 0.113989
vn -0.497399 0.860000 0.113989
vn -0.808424 0.588179 -0.022260
vn -0.804191 0.583339 0.113989
vn -0.808424 0.588179 -0.022260
vn -0.977766 0.208513 -0.022260
vn -0.804191 0.583339 0.113989
vn -0.804191 0.583339 0.113989
vn -0.977766 0.208513 -0.022260
vn -0.971930 0.205813 0.113989
vn -0.977766 0.208513 -0.022260
vn -0.978044 -0.207207 -0.022260
vn -0.971930 0.205813 0.113989
vn -0.971930 0.205813 0.113989
vn -0.978044 -0.207207 -0.022260
vn -0.971614 -0.207300 0.113989
vn -0.978044 -0.207207 -0.022260
vn -0.809209 -0.587100 -0.022260
vn -0.971614 -0.207300 0.113989
vn -0.971614 -0.207300 0.113989
vn -0.809209 -0.587100 -0.022260
vn -0.803297 -0.584569 0.113989
vn -0.809209 -0.587100 -0.022260
vn -0.500454 -0.865477 -0.022260
vn -0.803297 -0.584569 0.113989
vn -0.803297 -0.584569 0.113989
vn -0.500454 -0.865477 -0.022260
vn -0.496082 -0.860761 0.113989
vn -0.500454 -0.865477 -0.022260
vn -0.105166 -0.994206 -0.022260
vn -0.496082 -0.860761 0.113989
vn -0.496082 -0.860761 0.113989
vn -0.105166 -0.994206 -0.022260
vn -0.103091 -0.988119 0.113989
vn -0.105166 -0.994206 -0.022260
vn 0.308305 -0.951027 -0.022260
vn -0.103091 -0.988119 0.113989
vn -0.103091 -0.988119 0.113989
vn 0.308305 -0.951027 -0.022260
vn 0.307727 -0.944622 0.113989
vn 0.308305 -0.951027 -0.022260
vn 0.668469 -0.743407 -0.022260
vn 0.307727 -0.944622 0.113989
vn 0.307727 -0.944622 0.113989
vn 0.668469 -0.743407 -0.022260
vn 0.665335 -0.737792 0.113989
vn 0.668469 -0.743407 -0.022260
vn 0.913048 -0.407245 -0.022260
vn 0.665335 -0.737792 0.113989
vn 0.665335 -0.737792 0.113989
vn 0.913048 -0.407245 -0.022260
vn 0.907900 -0.403391 0.113989
vn 0.913048 -0.407245 -0.022260
vn 0.999752 -0.000667 -0.022260
vn 0.907900 -0.403391 0.113989
vn 0.907900 -0.403391 0.113989
vn 0.999752 -0.000667 -0.022260
vn 0.993482 0.000761 0.113989
vn 0.999752 -0.000667 -0.022260
vn 0.913590 0.406026 -0.022260
vn 0.993482 0.000761 0.113989
vn 0.993482 0.000761 0.113989
vn 0.913590 0.406026 -0.022260
vn 0.907281 0.404780 0.113989
vn 0.907281 0.404780 0.113989
vn 0.664204 0.738810 0.113989
vn 0.848939 0.404137 0.340553
vn 0.848939 0.404137 0.340553
vn 0.664204 0.738810 0.113989
vn 0.611167 0.714492 0.340553
vn 0.664204 0.738810 0.113989
vn 0.306279 0.945092 0.113989
vn 0.611167 0.714492 0.340553
vn 0.611167 0.714492 0.340553
vn 0.306279 0.945092 0.113989
vn 0.267721 0.901304 0.340553
vn 0.306279 0.945092 0.113989
vn -0.104604 0.987960 0.113989
vn 0.267721 0.901304 0.340553
vn 0.267721 0.901304 0.340553
vn -0.104604 0.987960 0.113989
vn -0.122021 0.932274 0.340553
vn -0.104604 0.987960 0.113989
vn -0.497399 0.860000 0.113989
vn -0.122021 0.932274 0.340553
vn -0.122021 0.932274 0.340553
vn -0.497399 0.860000 0.113989
vn -0.490662 0.802044 0.340553
vn -0.497399 0.860000 0.113989
vn -0.804191 0.583339 0.113989
vn -0.490662 0.802044 0.340553
vn -0.490662 0.802044 0.340553
vn -0.804191 0.583339 0.113989
vn -0.774461 0.533136 0.340553
vn -0.804191 0.583339 0.113989
vn -0.971930 0.205813 0.113989
vn -0.774461 0.533136 0.340553
vn -0.774461 0.533136 0.340553
vn -0.971930 0.205813 0.113989
vn -0.924352 0.172039 0.340553
vn -0.971930 0.205813 0.113989
vn -0.971614 -0.207300 0.113989
vn -0.924352 0.172039 0.340553
vn -0.924352 0.172039 0.340553
vn -0.971614 -0.207300 0.113989
vn -0.914412 -0.218803 0.340554
vn -0.971614 -0.207300 0.113989
vn -0.803297 -0.584569 0.113989
vn -0.914412 -0.218803 0.340554
vn -0.914412 -0.218803 0.340554
vn -0.803297 -0.584569 0.113989
vn -0.746356 -0.571818 0.340554
vn -0.803297 -0.584569 0.113989
vn -0.496082 -0.860761 0.113989
vn -0.746356 -0.571818 0.340554
vn -0.746356 -0.571818 0.340554
vn -0.496082 -0.860761 0.113989
vn -0.449263 -0.825946 0.340553
vn -0.496082 -0.860761 0.113989
vn -0.103091 -0.988119 0.113989
vn -0.449263 -0.825946 0.340553
vn -0.449263 -0.825946 0.340553
vn -0.103091 -0.988119 0.113989
vn -0.074482 -0.937271 0.340553
vn -0.103091 -0.988119 0.113989
vn 0.307727 -0.944622 0.113989
vn -0.074482 -0.937271 0.340553
vn -0.074482 -0.937271 0.340553
vn 0.307727 -0.944622 0.113989
vn 0.313191 -0.886530 0.340554
vn 0.307727 -0.944622 0.113989
vn 0.665335 -0.737792 0.113989
vn 0.313191 -0.886530 0.340554
vn 0.313191 -0.886530 0.340554
vn 0.665335 -0.737792 0.113989
vn 0.646692 -0.682505 0.340553
vn 0.665335 -0.737792 0.113989
vn 0.907900 -0.403391 0.113989
vn 0.646692 -0.682505 0.340553
vn 0.646692 -0.682505 0.340553
vn 0.907900 -0.403391 0.113989
vn 0.868382 -0.360467 0.340553
vn 0.907900 -0.403391 0.113989
vn 0.993482 0.000761 0.113989
vn 0.868382 -0.360467 0.340553
vn 0.868382 -0.360467 0.340553
vn 0.993482 0.000761 0.113989
vn 0.939921 0.023905 0.340553
vn 0.993482 0.000761 0.113989
vn 0.907281 0.404780 0.113989
vn 0.939921 0.023905 0.340553
vn 0.939921 0.023905 0.340553
vn 0.907281 0.404780 0.113989
vn 0.848939 0.404137 0.340553
vn 0.000000 -0.000000 -1.000000
vn 0.000000 -0.000000 -1.000000
vn 0.000000 -0.000000 -1.000000
vn 0.000000 -0.000000 -1.000000
vn 0.000000 -0.000000 -1.000000
vn 0.000000 -0.000000 -1.000000
vn 0.000000 -0.000000 -1.000000
vn 0.000000 -0.000000 -1.000000
vn 0.000000 -0.000000 -1.000000
vn 0.000000 -0.000000 -1.000000
vn 0.000000 -0.000000 -1.000000
vn 0.000000 -0.000000 -1.000000
vn 0.000000 -0.000000 -1.000000
vn 0.000000 -0.000000 -1.000000
vn 0.000000 -0.000000 -1.000000
vn 0.000000 -0.000000 -1.000000
vn 0.000000 -0.000000 -1.000000
vn 0.000000 -0.000000 -1.000000
vn 0.000000 -0.000000 -1.000000
vn 0.000000 -0.000000 -1.000000
vn 0.000000 -0.000000 -1.000000
vn 0.000000 -0.000000 -1.000000
vn 0.000000 -0.000000 -1.000000
vn 0.000000 -0.000000 -1.000000
vn 0.000000 -0.000000 -1.000000
vn 0.000000 -0.000000 -1.000000
vn 0.000000 -0.000000 -1.000000
vn 0.000000 -0.000000 -1.000000
vn 0.000000 -0.000001 -1.000000
vn 0.000000 -0.000000 -1.000000
vn 0.000000 -0.000001 -1.000000
vn 0.000000 -0.000000 -1.000000
vn 0.000000 -0.000000 -1.000000
vn 0.000000 -0.000000 -1.000000
vn 0.000000 -0.000000 -1.000000
vn 0.000000 -0.000000 -1.000000
vn 0.000000 -0.000000 -1.000000
vn 0.000000 0.000003 -1.000000
vn 0.000000 -0.000000 -1.000000
vn 0.000000 0.000013 1.000000
vn 0.000005 0.000000 1.000000
vn 0.000001 -0.000001 1.000000
vn 0.000005 0.000000 1.000000
vn -0.000002 0.000000 1.000000
vn 0.000001 -0.000001 1.000000
vn -0.000002 0.000000 1.000000
vn 0.000001 0.000000 1.000000
vn 0.000001 -0.000001 1.000000
vn 0.000001 0.000000 1.000000
vn 0.000001 0.000000 1.000000
vn 0.000001 -0.000001 1.000000
vn 0.000001 0.000000 1.000000
vn 0.000000 0.000000 1.000000
vn 0.000001 -0.000001 1.000000
vn 0.000000 0.000000 1.000000
vn 0.000000 0.000000 1.000000
vn 0.000001 -0.000001 1.000000
vn 0.000000 0.000000 1.000000
vn 0.000002 0.000000 1.000000
vn 0.000001 -0.000001 1.000000
vn 0.000002 0.000000 1.000000
vn 0.000002 0.000000 1.000000
vn 0.000001 -0.000001 1.000000
vn 0.000001 -0.000001 1.000000
vn 0.000002 0.000000 1.000000
vn 0.000000 -0.000002 1.000000
vn 0.000002 0.000000 1.000000
vn 0.000000 0.000000 1.000000
vn 0.000000 -0.000002 1.000000
vn 0.000000 0.000000 1.000000
vn 0.000000 0.000000 1.000000
vn 0.000000 -0.000002 1.000000
vn 0.000000 0.000000 1.000000
vn 0.000000 0.000000 1.000000
vn 0.000000 -0.000002 1.000000
vn 0.000000 0.000000 1.000000
vn 0.000000 0.000013 1.000000
vn 0.000000 -0.000002 1.000000
s off
g bottle_cola_plastic2_Physx_2
usemtl BottlePlasticColaSmall_Physx_02:initialShadingGroup
f 1/1/1 2/2/2 16/3/3
f 16/3/4 2/2/5 17/4/6
f 2/2/7 3/5/8 17/4/9
f 17/4/10 3/5/11 18/6/12
f 3/5/13 4/7/14 18/6/15
f 18/6/16 4/7/17 19/8/18
f 4/7/19 5/9/20 19/8/21
f 19/8/22 5/9/23 20/10/24
f 5/9/25 6/11/26 20/10/27
f 20/10/28 6/11/29 21/12/30
f 6/11/31 7/13/32 21/12/33
f 21/12/34 7/13/35 22/14/36
f 7/13/37 8/15/38 22/14/39
f 22/14/40 8/15/41 23/16/42
f 8/15/43 9/17/44 23/16/45
f 23/16/46 9/17/47 24/18/48
f 9/17/49 10/19/50 24/18/51
f 24/18/52 10/19/53 25/20/54
f 10/19/55 11/21/56 25/20/57
f 25/20/58 11/21/59 26/22/60
f 11/21/61 12/23/62 26/22/63
f 26/22/64 12/23/65 27/24/66
f 12/23/67 13/25/68 27/24/69
f 27/24/70 13/25/71 28/26/72
f 13/25/73 14/27/74 28/26/75
f 28/26/76 14/27/77 29/28/78
f 14/27/79 15/29/80 29/28/81
f 29/28/82 15/29/83 30/30/84
f 15/29/85 1/1/86 30/30/87
f 30/30/88 1/1/89 16/3/90
f 16/3/91 17/4/92 31/31/93
f 31/31/94 17/4/95 32/32/96
f 17/4/97 18/6/98 32/32/99
f 32/32/100 18/6/101 33/33/102
f 18/6/103 19/8/104 33/33/105
f 33/33/106 19/8/107 34/34/108
f 19/8/109 20/10/110 34/34/111
f 34/34/112 20/10/113 35/35/114
f 20/10/115 21/12/116 35/35/117
f 35/35/118 21/12/119 36/36/120
f 21/12/121 22/14/122 36/36/123
f 36/36/124 22/14/125 37/37/126
f 22/14/127 23/16/128 37/37/129
f 37/37/130 23/16/131 38/38/132
f 23/16/133 24/18/134 38/38/135
f 38/38/136 24/18/137 39/39/138
f 24/18/139 25/20/140 39/39/141
f 39/39/142 25/20/143 40/40/144
f 25/20/145 26/22/146 40/40/147
f 40/40/148 26/22/149 41/41/150
f 26/22/151 27/24/152 41/41/153
f 41/41/154 27/24/155 42/42/156
f 27/24/157 28/26/158 42/42/159
f 42/42/160 28/26/161 43/43/162
f 28/26/163 29/28/164 43/43/165
f 43/43/166 29/28/167 44/44/168
f 29/28/169 30/30/170 44/44/171
f 44/44/172 30/30/173 45/45/174
f 30/30/175 16/3/176 45/45/177
f 45/45/178 16/3/179 31/31/180
f 2/2/181 1/1/182 3/5/183
f 1/1/184 15/29/185 3/5/186
f 15/29/187 14/27/188 3/5/189
f 14/27/190 13/25/191 3/5/192
f 13/25/193 12/23/194 3/5/195
f 12/23/196 11/21/197 3/5/198
f 11/21/199 10/19/200 3/5/201
f 10/19/202 9/17/203 3/5/204
f 9/17/205 8/15/206 3/5/207
f 8/15/208 7/13/209 3/5/210
f 7/13/211 6/11/212 3/5/213
f 6/11/214 5/9/215 3/5/216
f 5/9/217 4/7/218 3/5/219
f 32/32/220 33/33/221 31/31/222
f 33/33/223 34/34/224 31/31/225
f 34/34/226 35/35/227 31/31/228
f 35/35/229 36/36/230 31/31/231
f 36/36/232 37/37/233 31/31/234
f 37/37/235 38/38/236 31/31/237
f 38/38/238 39/39/239 31/31/240
f 39/39/241 40/40/242 31/31/243
f 31/31/244 40/40/245 45/45/246
f 40/40/247 41/41/248 45/45/249
f 41/41/250 42/42/251 45/45/252
f 42/42/253 43/43/254 45/45/255
f 43/43/256 44/44/257 45/45/258
