# This file uses centimeters as units for non-parametric coordinates.

mtllib bottle_water_glass2_Physx_3.mtl
g default
v 1.121194 0.499187 27.479797
v 0.821223 0.912060 27.479797
v 0.379256 1.167231 27.479797
v -0.128287 1.220577 27.479797
v -0.613649 1.062874 27.479797
v -0.992906 0.721388 27.479797
v -1.200479 0.255171 27.479797
v -1.200479 -0.255171 27.479797
v -0.992906 -0.721388 27.479797
v -0.613649 -1.062874 27.479797
v -0.128288 -1.220575 27.479797
v 0.379256 -1.167231 27.479797
v 0.821223 -0.912062 27.479797
v 1.121194 -0.499187 27.479797
v 1.227299 0.000000 27.479797
v 1.370256 0.610077 27.575333
v 1.003651 1.114666 27.575333
v 0.463505 1.426519 27.575333
v -0.156785 1.491716 27.575333
v -0.749966 1.298981 27.575333
v -1.213471 0.881638 27.575333
v -1.467155 0.311853 27.575333
v -1.467155 -0.311853 27.575333
v -1.213472 -0.881639 27.575331
v -0.749966 -1.298981 27.575333
v -0.156786 -1.491716 27.575335
v 0.463505 -1.426521 27.575333
v 1.003651 -1.114668 27.575333
v 1.370257 -0.610079 27.575333
v 1.499933 -0.000002 27.575333
v 1.039438 0.462788 29.471773
v 0.761341 0.845554 29.471773
v 0.000000 -0.000002 29.471773
v 0.351602 1.082115 29.471773
v -0.118933 1.131569 29.471771
v -0.568903 0.985361 29.471771
v -0.920505 0.668781 29.471773
v -1.112943 0.236563 29.471773
v -1.112942 -0.236565 29.471773
v -0.920507 -0.668785 29.471771
v -0.568909 -0.985365 29.471773
v -0.118933 -1.131569 29.471773
v 0.351604 -1.082117 29.471775
v 0.761341 -0.845554 29.471773
v 1.039438 -0.462795 29.471773
v 1.137807 -0.000008 29.471773
vt 0.642741 0.907303
vt 0.604552 0.959866
vt 0.500000 0.837500
vt 0.548284 0.992353
vt 0.483667 0.999144
vt 0.421875 0.979066
vt 0.373591 0.935591
vt 0.347164 0.876236
vt 0.347164 0.811264
vt 0.373591 0.751909
vt 0.421875 0.708434
vt 0.483667 0.688356
vt 0.548284 0.695147
vt 0.604552 0.727634
vt 0.642741 0.780197
vt 0.656250 0.843750
vt 0.642741 0.907303
vt 0.604552 0.959866
vt 0.642741 0.907303
vt 0.604552 0.959866
vt 0.548284 0.992353
vt 0.548284 0.992353
vt 0.483667 0.999144
vt 0.483667 0.999144
vt 0.421875 0.979066
vt 0.421875 0.979066
vt 0.373591 0.935591
vt 0.373591 0.935591
vt 0.347164 0.876236
vt 0.347164 0.876236
vt 0.347164 0.811264
vt 0.347164 0.811264
vt 0.373591 0.751909
vt 0.373591 0.751909
vt 0.421875 0.708434
vt 0.421875 0.708434
vt 0.483667 0.688356
vt 0.483667 0.688356
vt 0.548284 0.695147
vt 0.548284 0.695147
vt 0.604552 0.727634
vt 0.604552 0.727634
vt 0.642741 0.780197
vt 0.642741 0.780197
vt 0.656250 0.843750
vt 0.656250 0.843750
vn 0.000000 0.000000 1.000000
vn 0.000000 0.000004 1.000000
vn 0.000000 0.000000 1.000000
vn 0.000000 0.000004 1.000000
vn -0.000002 0.000005 1.000000
vn 0.000000 0.000000 1.000000
vn -0.000002 0.000005 1.000000
vn -0.000002 0.000001 1.000000
vn 0.000000 0.000000 1.000000
vn -0.000002 0.000001 1.000000
vn 0.000001 0.000003 1.000000
vn 0.000000 0.000000 1.000000
vn 0.000001 0.000003 1.000000
vn 0.000001 0.000004 1.000000
vn 0.000000 0.000000 1.000000
vn 0.000001 0.000004 1.000000
vn 0.000000 -0.000007 1.000000
vn 0.000000 0.000000 1.000000
vn 0.000000 -0.000007 1.000000
vn 0.000000 -0.000007 1.000000
vn 0.000000 0.000000 1.000000
vn 0.000000 -0.000007 1.000000
vn -0.000001 0.000000 1.000000
vn 0.000000 0.000000 1.000000
vn -0.000001 0.000000 1.000000
vn -0.000002 0.000000 1.000000
vn 0.000000 0.000000 1.000000
vn -0.000002 0.000000 1.000000
vn 0.000000 0.000000 1.000000
vn 0.000000 0.000000 1.000000
vn 0.000000 0.000000 1.000000
vn 0.000000 0.000001 1.000000
vn 0.000000 0.000000 1.000000
vn 0.000000 0.000001 1.000000
vn 0.000000 -0.000002 1.000000
vn 0.000000 0.000000 1.000000
vn 0.000000 -0.000002 1.000000
vn 0.000000 -0.000004 1.000000
vn 0.000000 0.000000 1.000000
vn 0.000000 -0.000004 1.000000
vn 0.000000 0.000000 1.000000
vn 0.000000 0.000000 1.000000
vn 0.000000 0.000000 1.000000
vn 0.000000 0.000000 1.000000
vn 0.000000 0.000000 1.000000
vn 0.304272 0.129647 -0.943722
vn 0.225237 0.242177 -0.943726
vn 0.303939 0.130396 -0.943726
vn 0.303939 0.130396 -0.943726
vn 0.225237 0.242177 -0.943726
vn 0.224628 0.242733 -0.943728
vn 0.225237 0.242177 -0.943726
vn 0.107256 0.312873 -0.943720
vn 0.224628 0.242733 -0.943728
vn 0.224628 0.242733 -0.943728
vn 0.107256 0.312873 -0.943720
vn 0.106475 0.313128 -0.943723
vn 0.107256 0.312873 -0.943720
vn -0.029271 0.329442 -0.943722
vn 0.106475 0.313128 -0.943723
vn 0.106475 0.313128 -0.943723
vn -0.029271 0.329442 -0.943722
vn -0.030087 0.329354 -0.943727
vn -0.029271 0.329442 -0.943722
vn -0.160736 0.289060 -0.943720
vn -0.030087 0.329354 -0.943727
vn -0.030087 0.329354 -0.943727
vn -0.160736 0.289060 -0.943720
vn -0.161448 0.288650 -0.943725
vn -0.160736 0.289060 -0.943720
vn -0.264409 0.198687 -0.943722
vn -0.161448 0.288650 -0.943725
vn -0.161448 0.288650 -0.943725
vn -0.264409 0.198687 -0.943722
vn -0.264892 0.198023 -0.943726
vn -0.264409 0.198687 -0.943722
vn -0.322362 0.073964 -0.943722
vn -0.264892 0.198023 -0.943726
vn -0.264892 0.198023 -0.943726
vn -0.322362 0.073964 -0.943722
vn -0.322534 0.073161 -0.943726
vn -0.322362 0.073964 -0.943722
vn -0.324576 -0.063547 -0.943723
vn -0.322534 0.073161 -0.943726
vn -0.322534 0.073161 -0.943726
vn -0.324576 -0.063547 -0.943723
vn -0.324406 -0.064349 -0.943727
vn -0.324576 -0.063547 -0.943723
vn -0.270665 -0.190069 -0.943724
vn -0.324406 -0.064349 -0.943727
vn -0.324406 -0.064349 -0.943727
vn -0.270665 -0.190069 -0.943724
vn -0.270183 -0.190733 -0.943728
vn -0.270665 -0.190069 -0.943724
vn -0.169958 -0.283724 -0.943724
vn -0.270183 -0.190733 -0.943728
vn -0.270183 -0.190733 -0.943728
vn -0.169958 -0.283724 -0.943724
vn -0.169248 -0.284139 -0.943727
vn -0.169958 -0.283724 -0.943724
vn -0.039862 -0.328334 -0.943720
vn -0.169248 -0.284139 -0.943727
vn -0.169248 -0.284139 -0.943727
vn -0.039862 -0.328334 -0.943720
vn -0.039047 -0.328420 -0.943724
vn -0.039862 -0.328334 -0.943720
vn 0.097125 -0.316153 -0.943724
vn -0.039047 -0.328420 -0.943724
vn -0.039047 -0.328420 -0.943724
vn 0.097125 -0.316153 -0.943724
vn 0.097906 -0.315898 -0.943728
vn 0.097125 -0.316153 -0.943724
vn 0.217321 -0.249322 -0.943721
vn 0.097906 -0.315898 -0.943728
vn 0.097906 -0.315898 -0.943728
vn 0.217321 -0.249322 -0.943721
vn 0.217932 -0.248774 -0.943725
vn 0.217321 -0.249322 -0.943721
vn 0.299939 -0.139373 -0.943722
vn 0.217932 -0.248774 -0.943725
vn 0.217932 -0.248774 -0.943725
vn 0.299939 -0.139373 -0.943722
vn 0.300274 -0.138624 -0.943726
vn 0.299939 -0.139373 -0.943722
vn 0.330696 -0.005326 -0.943722
vn 0.300274 -0.138624 -0.943726
vn 0.300274 -0.138624 -0.943726
vn 0.330696 -0.005326 -0.943722
vn 0.330697 -0.004504 -0.943726
vn 0.330696 -0.005326 -0.943722
vn 0.304272 0.129647 -0.943722
vn 0.330697 -0.004504 -0.943726
vn 0.330697 -0.004504 -0.943726
vn 0.304272 0.129647 -0.943722
vn 0.303939 0.130396 -0.943726
vn 0.895703 0.403160 0.187560
vn 0.654285 0.732620 0.187560
vn 0.894744 0.405285 0.187558
vn 0.894744 0.405285 0.187558
vn 0.654285 0.732620 0.187560
vn 0.652542 0.734174 0.187558
vn 0.654285 0.732620 0.187560
vn 0.299737 0.935403 0.187561
vn 0.652542 0.734174 0.187558
vn 0.652542 0.734174 0.187558
vn 0.299737 0.935403 0.187561
vn 0.297509 0.936114 0.187560
vn 0.299737 0.935403 0.187561
vn -0.106640 0.976447 0.187563
vn 0.297509 0.936114 0.187560
vn 0.297509 0.936114 0.187560
vn -0.106640 0.976447 0.187563
vn -0.108965 0.976190 0.187562
vn -0.106640 0.976447 0.187563
vn -0.494578 0.848654 0.187563
vn -0.108965 0.976190 0.187562
vn -0.108965 0.976190 0.187562
vn -0.494578 0.848654 0.187563
vn -0.496593 0.847476 0.187561
vn -0.494578 0.848654 0.187563
vn -0.796997 0.574122 0.187562
vn -0.496593 0.847476 0.187561
vn -0.496593 0.847476 0.187561
vn -0.796997 0.574122 0.187562
vn -0.798359 0.572228 0.187559
vn -0.796997 0.574122 0.187562
vn -0.961610 0.200318 0.187560
vn -0.798359 0.572228 0.187559
vn -0.798359 0.572228 0.187559
vn -0.961610 0.200318 0.187560
vn -0.962084 0.198032 0.187558
vn -0.961610 0.200318 0.187560
vn -0.959951 -0.208123 0.187560
vn -0.962084 0.198032 0.187558
vn -0.962084 0.198032 0.187558
vn -0.959951 -0.208123 0.187560
vn -0.959455 -0.210401 0.187558
vn -0.959951 -0.208123 0.187560
vn -0.792308 -0.580577 0.187560
vn -0.959455 -0.210401 0.187558
vn -0.959455 -0.210401 0.187558
vn -0.792308 -0.580577 0.187560
vn -0.790928 -0.582456 0.187557
vn -0.792308 -0.580577 0.187560
vn -0.487667 -0.852644 0.187560
vn -0.790928 -0.582456 0.187557
vn -0.790928 -0.582456 0.187557
vn -0.487667 -0.852644 0.187560
vn -0.485637 -0.853802 0.187559
vn -0.487667 -0.852644 0.187560
vn -0.098704 -0.977281 0.187562
vn -0.485637 -0.853802 0.187559
vn -0.485637 -0.853802 0.187559
vn -0.098704 -0.977281 0.187562
vn -0.096385 -0.977513 0.187559
vn -0.098704 -0.977281 0.187562
vn 0.307326 -0.932937 0.187561
vn -0.096385 -0.977513 0.187559
vn -0.096385 -0.977513 0.187559
vn 0.307326 -0.932937 0.187561
vn 0.309536 -0.932207 0.187558
vn 0.307326 -0.932937 0.187561
vn 0.660216 -0.727280 0.187560
vn 0.309536 -0.932207 0.187558
vn 0.309536 -0.932207 0.187558
vn 0.660216 -0.727280 0.187560
vn 0.661939 -0.725713 0.187556
vn 0.660216 -0.727280 0.187560
vn 0.898949 -0.395870 0.187559
vn 0.661939 -0.725713 0.187556
vn 0.661939 -0.725713 0.187556
vn 0.898949 -0.395870 0.187559
vn 0.899886 -0.393736 0.187556
vn 0.898949 -0.395870 0.187559
vn 0.982245 0.003991 0.187560
vn 0.899886 -0.393736 0.187556
vn 0.899886 -0.393736 0.187556
vn 0.982245 0.003991 0.187560
vn 0.982233 0.006324 0.187557
vn 0.982245 0.003991 0.187560
vn 0.895703 0.403160 0.187560
vn 0.982233 0.006324 0.187557
vn 0.982233 0.006324 0.187557
vn 0.895703 0.403160 0.187560
vn 0.894744 0.405285 0.187558
vn 0.000000 0.000018 -1.000000
vn 0.000000 0.000001 -1.000000
vn 0.000000 0.000001 -1.000000
vn 0.000000 0.000001 -1.000000
vn 0.000000 0.000006 -1.000000
vn 0.000000 0.000001 -1.000000
vn 0.000000 0.000006 -1.000000
vn 0.000000 0.000001 -1.000000
vn 0.000000 0.000001 -1.000000
vn 0.000000 0.000001 -1.000000
vn 0.000000 -0.000000 -1.000000
vn 0.000000 0.000001 -1.000000
vn 0.000000 -0.000000 -1.000000
vn 0.000000 0.000001 -1.000000
vn 0.000000 0.000001 -1.000000
vn 0.000000 0.000001 -1.000000
vn 0.000000 0.000001 -1.000000
vn 0.000000 0.000001 -1.000000
vn 0.000000 0.000001 -1.000000
vn 0.000000 -0.000000 -1.000000
vn 0.000000 0.000001 -1.000000
vn 0.000000 -0.000000 -1.000000
vn 0.000000 -0.000000 -1.000000
vn 0.000000 0.000001 -1.000000
vn 0.000000 -0.000000 -1.000000
vn 0.000000 -0.000000 -1.000000
vn 0.000000 0.000001 -1.000000
vn 0.000000 -0.000000 -1.000000
vn 0.000000 -0.000000 -1.000000
vn 0.000000 0.000001 -1.000000
vn 0.000000 -0.000000 -1.000000
vn 0.000000 -0.000000 -1.000000
vn 0.000000 0.000001 -1.000000
vn 0.000000 -0.000000 -1.000000
vn 0.000000 -0.000000 -1.000000
vn 0.000000 0.000001 -1.000000
vn 0.000000 -0.000000 -1.000000
vn 0.000000 -0.000000 -1.000000
vn 0.000000 0.000001 -1.000000
s off
g bottle_water_glass2_Physx_3
usemtl BottleGlassWater2_Physx_03:initialShadingGroup
f 31/1/1 32/2/2 33/3/3
f 32/2/4 34/4/5 33/3/6
f 34/4/7 35/5/8 33/3/9
f 35/5/10 36/6/11 33/3/12
f 36/6/13 37/7/14 33/3/15
f 37/7/16 38/8/17 33/3/18
f 38/8/19 39/9/20 33/3/21
f 39/9/22 40/10/23 33/3/24
f 40/10/25 41/11/26 33/3/27
f 41/11/28 42/12/29 33/3/30
f 42/12/31 43/13/32 33/3/33
f 43/13/34 44/14/35 33/3/36
f 44/14/37 45/15/38 33/3/39
f 45/15/40 46/16/41 33/3/42
f 46/16/43 31/1/44 33/3/45
f 1/17/46 2/18/47 16/19/48
f 16/19/49 2/18/50 17/20/51
f 2/18/52 3/21/53 17/20/54
f 17/20/55 3/21/56 18/22/57
f 3/21/58 4/23/59 18/22/60
f 18/22/61 4/23/62 19/24/63
f 4/23/64 5/25/65 19/24/66
f 19/24/67 5/25/68 20/26/69
f 5/25/70 6/27/71 20/26/72
f 20/26/73 6/27/74 21/28/75
f 6/27/76 7/29/77 21/28/78
f 21/28/79 7/29/80 22/30/81
f 7/29/82 8/31/83 22/30/84
f 22/30/85 8/31/86 23/32/87
f 8/31/88 9/33/89 23/32/90
f 23/32/91 9/33/92 24/34/93
f 9/33/94 10/35/95 24/34/96
f 24/34/97 10/35/98 25/36/99
f 10/35/100 11/37/101 25/36/102
f 25/36/103 11/37/104 26/38/105
f 11/37/106 12/39/107 26/38/108
f 26/38/109 12/39/110 27/40/111
f 12/39/112 13/41/113 27/40/114
f 27/40/115 13/41/116 28/42/117
f 13/41/118 14/43/119 28/42/120
f 28/42/121 14/43/122 29/44/123
f 14/43/124 15/45/125 29/44/126
f 29/44/127 15/45/128 30/46/129
f 15/45/130 1/17/131 30/46/132
f 30/46/133 1/17/134 16/19/135
f 16/19/136 17/20/137 31/1/138
f 31/1/139 17/20/140 32/2/141
f 17/20/142 18/22/143 32/2/144
f 32/2/145 18/22/146 34/4/147
f 18/22/148 19/24/149 34/4/150
f 34/4/151 19/24/152 35/5/153
f 19/24/154 20/26/155 35/5/156
f 35/5/157 20/26/158 36/6/159
f 20/26/160 21/28/161 36/6/162
f 36/6/163 21/28/164 37/7/165
f 21/28/166 22/30/167 37/7/168
f 37/7/169 22/30/170 38/8/171
f 22/30/172 23/32/173 38/8/174
f 38/8/175 23/32/176 39/9/177
f 23/32/178 24/34/179 39/9/180
f 39/9/181 24/34/182 40/10/183
f 24/34/184 25/36/185 40/10/186
f 40/10/187 25/36/188 41/11/189
f 25/36/190 26/38/191 41/11/192
f 41/11/193 26/38/194 42/12/195
f 26/38/196 27/40/197 42/12/198
f 42/12/199 27/40/200 43/13/201
f 27/40/202 28/42/203 43/13/204
f 43/13/205 28/42/206 44/14/207
f 28/42/208 29/44/209 44/14/210
f 44/14/211 29/44/212 45/15/213
f 29/44/214 30/46/215 45/15/216
f 45/15/217 30/46/218 46/16/219
f 30/46/220 16/19/221 46/16/222
f 46/16/223 16/19/224 31/1/225
f 2/18/226 1/17/227 3/21/228
f 1/17/229 15/45/230 3/21/231
f 15/45/232 14/43/233 3/21/234
f 14/43/235 13/41/236 3/21/237
f 13/41/238 12/39/239 3/21/240
f 12/39/241 11/37/242 3/21/243
f 11/37/244 10/35/245 3/21/246
f 10/35/247 9/33/248 3/21/249
f 9/33/250 8/31/251 3/21/252
f 8/31/253 7/29/254 3/21/255
f 7/29/256 6/27/257 3/21/258
f 6/27/259 5/25/260 3/21/261
f 5/25/262 4/23/263 3/21/264
