# This file uses centimeters as units for non-parametric coordinates.

mtllib bottle_water_glass3_Physx_01.mtl
g default
v 3.414747 1.520342 -0.011088
v 2.501148 2.777804 -0.011088
v 1.155077 3.554959 -0.011088
v -0.390717 3.717428 -0.011088
v -1.868952 3.237121 -0.011088
v -3.024029 2.197086 -0.011088
v -3.656224 0.777155 -0.011088
v -3.656224 -0.777154 -0.011088
v -3.024030 -2.197086 -0.011088
v -1.868953 -3.237121 -0.011088
v -0.390718 -3.717428 -0.011088
v 1.155076 -3.554960 -0.011088
v 2.501148 -2.777806 -0.011088
v 3.414747 -1.520344 -0.011088
v 3.737906 0.000000 -0.011088
v 3.414747 1.520342 12.002193
v 2.501148 2.777804 12.002193
v 1.155077 3.554959 12.002193
v -0.390717 3.717428 12.002193
v -1.868952 3.237122 12.002193
v -3.024029 2.197086 12.002193
v -3.656224 0.777155 12.002193
v -3.656224 -0.777154 12.002193
v -3.024030 -2.197086 12.002193
v -1.868953 -3.237121 12.002193
v -0.390718 -3.717428 12.002193
v 1.155076 -3.554960 12.002193
v 2.501148 -2.777806 12.002193
v 3.414747 -1.520344 12.002193
v 3.737906 0.000000 12.002193
v 0.000000 0.000000 -0.011088
v 2.072831 2.302113 14.012093
v 2.829977 1.259986 14.012093
v 0.957272 2.946178 14.012093
v -0.323807 3.080826 14.012093
v -1.548898 2.682771 14.012094
v -2.506169 1.820840 14.012093
v -3.030102 0.644068 14.012093
v -3.030102 -0.644068 14.012093
v -2.506170 -1.820839 14.012093
v -1.548898 -2.682770 14.012093
v -0.323808 -3.080826 14.012093
v 0.957272 -2.946180 14.012093
v 2.072830 -2.302113 14.012093
v 2.829977 -1.259987 14.012093
v 3.097795 -0.000001 14.012093
vt 0.375000 0.312500
vt 0.391667 0.312500
vt 0.375000 0.688440
vt 0.391667 0.688440
vt 0.408333 0.312500
vt 0.408333 0.688440
vt 0.425000 0.312500
vt 0.425000 0.688440
vt 0.441667 0.312500
vt 0.441667 0.688440
vt 0.458333 0.312500
vt 0.458333 0.688440
vt 0.475000 0.312500
vt 0.475000 0.688440
vt 0.491667 0.312500
vt 0.491667 0.688440
vt 0.508333 0.312500
vt 0.508333 0.688440
vt 0.525000 0.312500
vt 0.525000 0.688440
vt 0.541667 0.312500
vt 0.541667 0.688440
vt 0.558333 0.312500
vt 0.558333 0.688440
vt 0.575000 0.312500
vt 0.575000 0.688440
vt 0.591667 0.312500
vt 0.591667 0.688440
vt 0.608333 0.312500
vt 0.608333 0.688440
vt 0.625000 0.312500
vt 0.625000 0.688440
vt 0.604552 0.040134
vt 0.642741 0.092697
vt 0.500000 0.150000
vt 0.548284 0.007647
vt 0.483667 0.000856
vt 0.421875 0.020934
vt 0.373591 0.064409
vt 0.347164 0.123764
vt 0.347164 0.188736
vt 0.373591 0.248091
vt 0.421875 0.291566
vt 0.483667 0.311644
vt 0.548284 0.304853
vt 0.604552 0.272366
vt 0.642741 0.219803
vt 0.656250 0.156250
vt 0.642741 0.907303
vt 0.604552 0.959866
vt 0.642741 0.907303
vt 0.604552 0.959866
vt 0.548284 0.992353
vt 0.548284 0.992353
vt 0.483667 0.999144
vt 0.483667 0.999144
vt 0.421875 0.979066
vt 0.421875 0.979066
vt 0.373591 0.935591
vt 0.373591 0.935591
vt 0.347164 0.876236
vt 0.347164 0.876236
vt 0.347164 0.811264
vt 0.347164 0.811264
vt 0.373591 0.751909
vt 0.373591 0.751909
vt 0.421875 0.708434
vt 0.421875 0.708434
vt 0.483667 0.688356
vt 0.483667 0.688356
vt 0.548284 0.695147
vt 0.548284 0.695147
vt 0.604552 0.727634
vt 0.604552 0.727634
vt 0.642741 0.780197
vt 0.642741 0.780197
vt 0.656250 0.843750
vt 0.656250 0.843750
vn 0.913545 0.406737 -0.000000
vn 0.669131 0.743145 -0.000000
vn 0.912343 0.407175 0.042877
vn 0.912343 0.407175 0.042877
vn 0.669131 0.743145 -0.000000
vn 0.667854 0.743056 0.042877
vn 0.669131 0.743145 -0.000000
vn 0.309017 0.951056 -0.000000
vn 0.667854 0.743056 0.042877
vn 0.667854 0.743056 0.042877
vn 0.309017 0.951056 -0.000000
vn 0.307887 0.950456 0.042877
vn 0.309017 0.951056 -0.000000
vn -0.104528 0.994522 -0.000000
vn 0.307887 0.950456 0.042877
vn 0.307887 0.950456 0.042877
vn -0.104528 0.994522 -0.000000
vn -0.105317 0.993514 0.042877
vn -0.104528 0.994522 -0.000000
vn -0.500000 0.866026 -0.000000
vn -0.105317 0.993514 0.042877
vn -0.105317 0.993514 0.042877
vn -0.500000 0.866026 -0.000000
vn -0.500310 0.864784 0.042877
vn -0.500000 0.866026 -0.000000
vn -0.809017 0.587786 -0.000000
vn -0.500310 0.864784 0.042877
vn -0.500310 0.864784 0.042877
vn -0.809017 0.587786 -0.000000
vn -0.808795 0.586525 0.042877
vn -0.809017 0.587786 -0.000000
vn -0.978148 0.207912 -0.000000
vn -0.808795 0.586525 0.042877
vn -0.808795 0.586525 0.042877
vn -0.978148 0.207912 -0.000000
vn -0.977433 0.206851 0.042877
vn -0.978148 0.207912 -0.000000
vn -0.978148 -0.207912 0.000000
vn -0.977433 0.206851 0.042877
vn -0.977433 0.206851 0.042877
vn -0.978148 -0.207912 0.000000
vn -0.977063 -0.208590 0.042877
vn -0.978148 -0.207912 0.000000
vn -0.809017 -0.587785 0.000000
vn -0.977063 -0.208590 0.042877
vn -0.977063 -0.208590 0.042877
vn -0.809017 -0.587785 0.000000
vn -0.807750 -0.587964 0.042877
vn -0.809017 -0.587785 0.000000
vn -0.500000 -0.866025 0.000000
vn -0.807750 -0.587964 0.042877
vn -0.807750 -0.587964 0.042877
vn -0.500000 -0.866025 0.000000
vn -0.498770 -0.865673 0.042877
vn -0.500000 -0.866025 0.000000
vn -0.104529 -0.994522 0.000000
vn -0.498770 -0.865673 0.042877
vn -0.498770 -0.865673 0.042877
vn -0.104529 -0.994522 0.000000
vn -0.103548 -0.993700 0.042877
vn -0.104529 -0.994522 0.000000
vn 0.309017 -0.951057 0.000000
vn -0.103548 -0.993700 0.042877
vn -0.103548 -0.993700 0.042877
vn 0.309017 -0.951057 0.000000
vn 0.309578 -0.949907 0.042877
vn 0.309017 -0.951057 0.000000
vn 0.669131 -0.743145 0.000000
vn 0.309578 -0.949907 0.042877
vn 0.309578 -0.949907 0.042877
vn 0.669131 -0.743145 0.000000
vn 0.669176 -0.741866 0.042877
vn 0.669131 -0.743145 0.000000
vn 0.913545 -0.406737 0.000000
vn 0.669176 -0.741866 0.042877
vn 0.669176 -0.741866 0.042877
vn 0.913545 -0.406737 0.000000
vn 0.913067 -0.405550 0.042877
vn 0.913545 -0.406737 0.000000
vn 1.000000 0.000000 0.000000
vn 0.913067 -0.405550 0.042877
vn 0.913067 -0.405550 0.042877
vn 1.000000 0.000000 0.000000
vn 0.999080 0.000889 0.042877
vn 1.000000 0.000000 0.000000
vn 0.913545 0.406737 -0.000000
vn 0.999080 0.000889 0.042877
vn 0.999080 0.000889 0.042877
vn 0.913545 0.406737 -0.000000
vn 0.912343 0.407175 0.042877
vn 0.000000 -0.000000 -1.000000
vn 0.000000 -0.000000 -1.000000
vn 0.000000 -0.000000 -1.000000
vn 0.000000 -0.000000 -1.000000
vn 0.000000 -0.000000 -1.000000
vn 0.000000 -0.000000 -1.000000
vn 0.000000 -0.000000 -1.000000
vn 0.000000 -0.000000 -1.000000
vn 0.000000 -0.000000 -1.000000
vn 0.000000 -0.000000 -1.000000
vn 0.000000 -0.000000 -1.000000
vn 0.000000 -0.000000 -1.000000
vn 0.000000 -0.000000 -1.000000
vn 0.000000 -0.000000 -1.000000
vn 0.000000 -0.000000 -1.000000
vn 0.000000 -0.000000 -1.000000
vn 0.000000 -0.000000 -1.000000
vn 0.000000 -0.000000 -1.000000
vn 0.000000 -0.000000 -1.000000
vn 0.000000 -0.000000 -1.000000
vn 0.000000 -0.000000 -1.000000
vn 0.000000 -0.000000 -1.000000
vn 0.000000 -0.000000 -1.000000
vn 0.000000 -0.000000 -1.000000
vn 0.000000 -0.000000 -1.000000
vn 0.000000 -0.000000 -1.000000
vn 0.000000 -0.000000 -1.000000
vn 0.000000 -0.000000 -1.000000
vn 0.000000 -0.000000 -1.000000
vn 0.000000 -0.000000 -1.000000
vn 0.000000 -0.000000 -1.000000
vn 0.000000 -0.000000 -1.000000
vn 0.000000 -0.000000 -1.000000
vn 0.000000 -0.000000 -1.000000
vn 0.000000 -0.000000 -1.000000
vn 0.000000 -0.000000 -1.000000
vn 0.000000 -0.000000 -1.000000
vn 0.000000 -0.000000 -1.000000
vn 0.000000 -0.000000 -1.000000
vn 0.000000 -0.000000 -1.000000
vn 0.000000 -0.000000 -1.000000
vn 0.000000 -0.000000 -1.000000
vn 0.000000 -0.000000 -1.000000
vn 0.000000 -0.000000 -1.000000
vn 0.000000 -0.000000 -1.000000
vn 0.912343 0.407175 0.042877
vn 0.667854 0.743056 0.042877
vn 0.867153 0.394923 0.303450
vn 0.867153 0.394923 0.303450
vn 0.667854 0.743056 0.042877
vn 0.631554 0.713483 0.303450
vn 0.667854 0.743056 0.042877
vn 0.307887 0.950456 0.042877
vn 0.631554 0.713483 0.303450
vn 0.631554 0.713483 0.303450
vn 0.307887 0.950456 0.042877
vn 0.286753 0.908675 0.303451
vn 0.307887 0.950456 0.042877
vn -0.105317 0.993514 0.042877
vn 0.286753 0.908675 0.303451
vn 0.286753 0.908675 0.303451
vn -0.105317 0.993514 0.042877
vn -0.107629 0.946749 0.303450
vn -0.105317 0.993514 0.042877
vn -0.500310 0.864784 0.042877
vn -0.107629 0.946749 0.303450
vn -0.107629 0.946749 0.303450
vn -0.500310 0.864784 0.042877
vn -0.483402 0.821122 0.303450
vn -0.500310 0.864784 0.042877
vn -0.808795 0.586525 0.042877
vn -0.483402 0.821122 0.303450
vn -0.483402 0.821122 0.303450
vn -0.808795 0.586525 0.042877
vn -0.775590 0.553515 0.303450
vn -0.808795 0.586525 0.042877
vn -0.977433 0.206851 0.042877
vn -0.775590 0.553515 0.303450
vn -0.775590 0.553515 0.303450
vn -0.977433 0.206851 0.042877
vn -0.933671 0.190200 0.303451
vn -0.977433 0.206851 0.042877
vn -0.977063 -0.208590 0.042877
vn -0.933671 0.190200 0.303451
vn -0.933671 0.190200 0.303451
vn -0.977063 -0.208590 0.042877
vn -0.930313 -0.206002 0.303450
vn -0.977063 -0.208590 0.042877
vn -0.807750 -0.587964 0.042877
vn -0.930313 -0.206002 0.303450
vn -0.930313 -0.206002 0.303450
vn -0.807750 -0.587964 0.042877
vn -0.766094 -0.566584 0.303450
vn -0.807750 -0.587964 0.042877
vn -0.498770 -0.865673 0.042877
vn -0.766094 -0.566584 0.303450
vn -0.766094 -0.566584 0.303450
vn -0.498770 -0.865673 0.042877
vn -0.469411 -0.829199 0.303450
vn -0.498770 -0.865673 0.042877
vn -0.103548 -0.993700 0.042877
vn -0.469411 -0.829199 0.303450
vn -0.469411 -0.829199 0.303450
vn -0.103548 -0.993700 0.042877
vn -0.091563 -0.948438 0.303450
vn -0.103548 -0.993700 0.042877
vn 0.309578 -0.949907 0.042877
vn -0.091563 -0.948438 0.303450
vn -0.091563 -0.948438 0.303450
vn 0.309578 -0.949907 0.042877
vn 0.302117 -0.903683 0.303450
vn 0.309578 -0.949907 0.042877
vn 0.669176 -0.741866 0.042877
vn 0.302117 -0.903683 0.303450
vn 0.302117 -0.903683 0.303450
vn 0.669176 -0.741866 0.042877
vn 0.643559 -0.702673 0.303451
vn 0.669176 -0.741866 0.042877
vn 0.913067 -0.405550 0.042877
vn 0.643559 -0.702673 0.303451
vn 0.643559 -0.702673 0.303451
vn 0.913067 -0.405550 0.042877
vn 0.873723 -0.380165 0.303451
vn 0.913067 -0.405550 0.042877
vn 0.999080 0.000889 0.042877
vn 0.873723 -0.380165 0.303451
vn 0.873723 -0.380165 0.303451
vn 0.999080 0.000889 0.042877
vn 0.952813 0.008078 0.303451
vn 0.999080 0.000889 0.042877
vn 0.912343 0.407175 0.042877
vn 0.952813 0.008078 0.303451
vn 0.952813 0.008078 0.303451
vn 0.912343 0.407175 0.042877
vn 0.867153 0.394923 0.303450
vn 0.000000 -0.000003 1.000000
vn 0.000000 0.000002 1.000000
vn 0.000000 0.000000 1.000000
vn 0.000000 0.000002 1.000000
vn 0.000000 0.000000 1.000000
vn 0.000000 0.000000 1.000000
vn 0.000000 0.000000 1.000000
vn 0.000000 -0.000001 1.000000
vn 0.000000 0.000000 1.000000
vn 0.000000 -0.000001 1.000000
vn 0.000000 0.000001 1.000000
vn 0.000000 0.000000 1.000000
vn 0.000000 0.000001 1.000000
vn 0.000000 0.000001 1.000000
vn 0.000000 0.000000 1.000000
vn 0.000000 0.000001 1.000000
vn 0.000000 0.000000 1.000000
vn 0.000000 0.000000 1.000000
vn 0.000000 0.000000 1.000000
vn 0.000000 0.000000 1.000000
vn 0.000000 0.000000 1.000000
vn 0.000000 0.000000 1.000000
vn 0.000000 0.000000 1.000000
vn 0.000000 0.000000 1.000000
vn 0.000000 0.000000 1.000000
vn 0.000000 0.000000 1.000000
vn 0.000000 0.000000 1.000000
vn 0.000000 0.000000 1.000000
vn 0.000000 0.000000 1.000000
vn 0.000000 0.000000 1.000000
vn 0.000000 0.000000 1.000000
vn 0.000000 0.000000 1.000000
vn 0.000000 0.000000 1.000000
vn 0.000000 0.000000 1.000000
vn 0.000000 0.000000 1.000000
vn 0.000000 0.000000 1.000000
vn 0.000000 0.000000 1.000000
vn 0.000000 0.000000 1.000000
vn 0.000000 0.000000 1.000000
s off
g bottle_water_glass3_Physx_01
usemtl BottleGlassWater1_Physx_01:initialShadingGroup
f 1/1/1 2/2/2 16/3/3
f 16/3/4 2/2/5 17/4/6
f 2/2/7 3/5/8 17/4/9
f 17/4/10 3/5/11 18/6/12
f 3/5/13 4/7/14 18/6/15
f 18/6/16 4/7/17 19/8/18
f 4/7/19 5/9/20 19/8/21
f 19/8/22 5/9/23 20/10/24
f 5/9/25 6/11/26 20/10/27
f 20/10/28 6/11/29 21/12/30
f 6/11/31 7/13/32 21/12/33
f 21/12/34 7/13/35 22/14/36
f 7/13/37 8/15/38 22/14/39
f 22/14/40 8/15/41 23/16/42
f 8/15/43 9/17/44 23/16/45
f 23/16/46 9/17/47 24/18/48
f 9/17/49 10/19/50 24/18/51
f 24/18/52 10/19/53 25/20/54
f 10/19/55 11/21/56 25/20/57
f 25/20/58 11/21/59 26/22/60
f 11/21/61 12/23/62 26/22/63
f 26/22/64 12/23/65 27/24/66
f 12/23/67 13/25/68 27/24/69
f 27/24/70 13/25/71 28/26/72
f 13/25/73 14/27/74 28/26/75
f 28/26/76 14/27/77 29/28/78
f 14/27/79 15/29/80 29/28/81
f 29/28/82 15/29/83 30/30/84
f 15/29/85 1/31/86 30/30/87
f 30/30/88 1/31/89 16/32/90
f 2/33/91 1/34/92 31/35/93
f 3/36/94 2/33/95 31/35/96
f 4/37/97 3/36/98 31/35/99
f 5/38/100 4/37/101 31/35/102
f 6/39/103 5/38/104 31/35/105
f 7/40/106 6/39/107 31/35/108
f 8/41/109 7/40/110 31/35/111
f 9/42/112 8/41/113 31/35/114
f 10/43/115 9/42/116 31/35/117
f 11/44/118 10/43/119 31/35/120
f 12/45/121 11/44/122 31/35/123
f 13/46/124 12/45/125 31/35/126
f 14/47/127 13/46/128 31/35/129
f 15/48/130 14/47/131 31/35/132
f 1/34/133 15/48/134 31/35/135
f 16/49/136 17/50/137 33/51/138
f 33/51/139 17/50/140 32/52/141
f 17/50/142 18/53/143 32/52/144
f 32/52/145 18/53/146 34/54/147
f 18/53/148 19/55/149 34/54/150
f 34/54/151 19/55/152 35/56/153
f 19/55/154 20/57/155 35/56/156
f 35/56/157 20/57/158 36/58/159
f 20/57/160 21/59/161 36/58/162
f 36/58/163 21/59/164 37/60/165
f 21/59/166 22/61/167 37/60/168
f 37/60/169 22/61/170 38/62/171
f 22/61/172 23/63/173 38/62/174
f 38/62/175 23/63/176 39/64/177
f 23/63/178 24/65/179 39/64/180
f 39/64/181 24/65/182 40/66/183
f 24/65/184 25/67/185 40/66/186
f 40/66/187 25/67/188 41/68/189
f 25/67/190 26/69/191 41/68/192
f 41/68/193 26/69/194 42/70/195
f 26/69/196 27/71/197 42/70/198
f 42/70/199 27/71/200 43/72/201
f 27/71/202 28/73/203 43/72/204
f 43/72/205 28/73/206 44/74/207
f 28/73/208 29/75/209 44/74/210
f 44/74/211 29/75/212 45/76/213
f 29/75/214 30/77/215 45/76/216
f 45/76/217 30/77/218 46/78/219
f 30/77/220 16/49/221 46/78/222
f 46/78/223 16/49/224 33/51/225
f 32/52/226 34/54/227 33/51/228
f 34/54/229 35/56/230 33/51/231
f 35/56/232 36/58/233 33/51/234
f 36/58/235 37/60/236 33/51/237
f 37/60/238 38/62/239 33/51/240
f 38/62/241 39/64/242 33/51/243
f 39/64/244 40/66/245 33/51/246
f 40/66/247 41/68/248 33/51/249
f 41/68/250 42/70/251 33/51/252
f 42/70/253 43/72/254 33/51/255
f 43/72/256 44/74/257 33/51/258
f 44/74/259 45/76/260 33/51/261
f 45/76/262 46/78/263 33/51/264
