# This file uses centimeters as units for non-parametric coordinates.

mtllib mug1_Physx_31.mtl
g default
v -5.430346 0.000000 2.508408
v -6.220266 0.000000 2.829560
v -5.446023 0.399707 2.453152
v -6.250087 0.399707 2.782557
v -5.487069 0.646739 2.308492
v -6.328160 0.646739 2.659502
v -5.537804 0.646739 2.129683
v -6.424663 0.646739 2.507397
v -5.578849 0.399707 1.985023
v -6.502736 0.399707 2.384342
v -5.594527 0.000000 1.929768
v -6.532557 0.000000 2.337339
v -5.578849 -0.399707 1.985023
v -6.502736 -0.399707 2.384342
v -5.537804 -0.646739 2.129683
v -6.424663 -0.646739 2.507397
v -5.487069 -0.646739 2.308492
v -6.328160 -0.646739 2.659502
v -5.446023 -0.399707 2.453152
v -6.250087 -0.399707 2.782557
vt 0.250000 1.000000
vt 0.300000 1.000000
vt 0.250000 0.900000
vt 0.300000 0.900000
vt 0.250000 0.800000
vt 0.300000 0.800000
vt 0.250000 0.700000
vt 0.300000 0.700000
vt 0.250000 0.600000
vt 0.300000 0.600000
vt 0.250000 0.500000
vt 0.300000 0.500000
vt 0.250000 0.400000
vt 0.300000 0.400000
vt 0.250000 0.300000
vt 0.300000 0.300000
vt 0.250000 0.200000
vt 0.300000 0.200000
vt 0.250000 0.100000
vt 0.300000 0.100000
vt 0.250000 -0.000000
vt 0.300000 -0.000000
vn 0.372842 0.141397 0.917058
vn 0.373186 0.140701 0.917025
vn 0.375269 0.136467 0.916815
vn 0.375582 0.135828 0.916782
vn 0.324373 0.517556 0.791781
vn 0.325437 0.515724 0.792540
vn 0.332081 0.504164 0.797208
vn 0.332947 0.502641 0.797808
vn 0.000000 1.000000 0.000001
vn 0.000000 1.000000 0.000001
vn 0.000000 1.000000 0.000000
vn 0.000000 1.000000 0.000000
vn -0.335428 0.516930 -0.787573
vn -0.336260 0.515422 -0.788207
vn -0.342125 0.504679 -0.792622
vn -0.342803 0.503424 -0.793127
vn -0.392779 0.141032 -0.908754
vn -0.392994 0.140527 -0.908740
vn -0.394591 0.136765 -0.908622
vn -0.394787 0.136300 -0.908606
vn -0.394787 -0.136300 -0.908606
vn -0.392994 -0.140527 -0.908740
vn -0.394591 -0.136764 -0.908622
vn -0.392779 -0.141032 -0.908754
vn -0.342803 -0.503423 -0.793128
vn -0.336260 -0.515421 -0.788207
vn -0.342125 -0.504678 -0.792623
vn -0.335429 -0.516929 -0.787574
vn -0.000000 -1.000000 0.000000
vn -0.000000 -1.000000 -0.000001
vn -0.000000 -1.000000 0.000000
vn -0.000000 -1.000000 -0.000001
vn 0.332947 -0.502641 0.797808
vn 0.325437 -0.515724 0.792540
vn 0.332081 -0.504164 0.797208
vn 0.324373 -0.517556 0.791781
vn 0.375582 -0.135828 0.916782
vn 0.373186 -0.140701 0.917026
vn 0.375269 -0.136467 0.916815
vn 0.372842 -0.141397 0.917058
vn 0.962025 -0.000001 -0.272961
vn 0.962025 -0.000000 -0.272961
vn 0.962025 -0.000000 -0.272961
vn 0.962025 0.000000 -0.272961
vn 0.962025 0.000000 -0.272962
vn 0.962025 -0.000000 -0.272961
vn 0.962025 -0.000000 -0.272961
vn 0.962025 0.000000 -0.272961
vn 0.962025 0.000000 -0.272961
vn 0.962025 0.000000 -0.272962
vn -0.844390 0.000000 0.535729
vn -0.844391 -0.000000 0.535727
vn -0.844391 -0.000000 0.535727
vn -0.844391 0.000000 0.535727
vn -0.844391 0.000000 0.535727
vn -0.844391 0.000000 0.535727
vn -0.844391 -0.000000 0.535727
vn -0.844391 -0.000001 0.535727
vn -0.844391 0.000000 0.535727
vn -0.844392 0.000000 0.535727
s 1
g mug1_Physx_31
usemtl initialShadingGroup
f 1/1/1 3/3/2 2/2/3
f 2/2/3 3/3/2 4/4/4
s 2
f 3/3/5 5/5/6 4/4/7
f 4/4/7 5/5/6 6/6/8
s 3
f 5/5/9 7/7/10 6/6/11
f 6/6/11 7/7/10 8/8/12
s 4
f 7/7/13 9/9/14 8/8/15
f 8/8/15 9/9/14 10/10/16
s 5
f 9/9/17 11/11/18 10/10/19
f 10/10/19 11/11/18 12/12/20
s 6
f 12/12/21 11/11/22 14/14/23
f 14/14/23 11/11/22 13/13/24
s 7
f 14/14/25 13/13/26 16/16/27
f 16/16/27 13/13/26 15/15/28
s 8
f 16/16/29 15/15/30 18/18/31
f 18/18/31 15/15/30 17/17/32
s 9
f 18/18/33 17/17/34 20/20/35
f 20/20/35 17/17/34 19/19/36
s 10
f 20/20/37 19/19/38 2/22/39
f 2/22/39 19/19/38 1/21/40
s 11
f 3/3/41 1/21/42 5/5/43
f 1/21/42 19/19/44 5/5/43
f 19/19/44 17/17/45 5/5/43
f 17/17/45 15/15/46 5/5/43
f 15/15/46 13/13/47 5/5/43
f 13/13/47 11/11/48 5/5/43
f 11/11/48 9/9/49 5/5/43
f 9/9/49 7/7/50 5/5/43
s 12
f 4/4/51 6/6/52 2/2/53
f 6/6/52 8/8/54 2/2/53
f 8/8/54 10/10/55 2/2/53
f 10/10/55 12/12/56 2/2/53
f 12/12/56 14/14/57 2/2/53
f 14/14/57 16/16/58 2/2/53
f 16/16/58 18/18/59 2/2/53
f 18/18/59 20/20/60 2/2/53
