# This file uses centimeters as units for non-parametric coordinates.

mtllib mug1_Physx_23.mtl
g default
v -5.476929 0.000000 8.331190
v -4.554712 0.000000 8.350255
v -5.492607 0.399707 8.386445
v -4.554712 0.399707 8.408354
v -5.533652 0.646739 8.531105
v -4.554712 0.646739 8.560459
v -5.584387 0.646739 8.709915
v -4.554712 0.646739 8.748470
v -5.625432 0.399707 8.854575
v -4.554712 0.399707 8.900575
v -5.641110 0.000000 8.909830
v -4.554712 0.000000 8.958673
v -5.625432 -0.399707 8.854575
v -4.554712 -0.399707 8.900575
v -5.584387 -0.646739 8.709915
v -4.554712 -0.646739 8.748470
v -5.533652 -0.646739 8.531105
v -4.554712 -0.646739 8.560459
v -5.492607 -0.399707 8.386445
v -4.554712 -0.399707 8.408354
vt 0.650000 1.000000
vt 0.700000 1.000000
vt 0.650000 0.900000
vt 0.700000 0.900000
vt 0.650000 0.800000
vt 0.700000 0.800000
vt 0.650000 0.700000
vt 0.700000 0.700000
vt 0.650000 0.600000
vt 0.700000 0.600000
vt 0.650000 0.500000
vt 0.700000 0.500000
vt 0.650000 0.400000
vt 0.700000 0.400000
vt 0.650000 0.300000
vt 0.700000 0.300000
vt 0.650000 0.200000
vt 0.700000 0.200000
vt 0.650000 0.100000
vt 0.700000 0.100000
vt 0.650000 -0.000000
vt 0.700000 -0.000000
vn 0.020454 0.143812 -0.989394
vn 0.022851 0.138419 -0.990110
vn 0.020758 0.143128 -0.989487
vn 0.023130 0.137790 -0.990191
vn 0.019887 0.524205 -0.851360
vn 0.025260 0.509826 -0.859906
vn 0.020549 0.522445 -0.852425
vn 0.025809 0.508345 -0.860766
vn 0.000000 1.000000 -0.000001
vn 0.000000 1.000000 -0.000000
vn 0.000000 1.000000 -0.000001
vn 0.000000 1.000000 0.000000
vn -0.031868 0.524043 0.851096
vn -0.036501 0.510784 0.858934
vn -0.032387 0.522567 0.851983
vn -0.036932 0.509542 0.859653
vn -0.042476 0.143712 0.988708
vn -0.044299 0.138984 0.989303
vn -0.042673 0.143201 0.988773
vn -0.044481 0.138514 0.989361
vn -0.044481 -0.138514 0.989361
vn -0.044299 -0.138984 0.989303
vn -0.042673 -0.143201 0.988773
vn -0.042476 -0.143712 0.988708
vn -0.036932 -0.509541 0.859654
vn -0.036501 -0.510783 0.858935
vn -0.032386 -0.522566 0.851983
vn -0.031868 -0.524042 0.851096
vn -0.000000 -1.000000 0.000000
vn -0.000000 -1.000000 0.000000
vn -0.000000 -1.000000 0.000001
vn -0.000000 -1.000000 0.000001
vn 0.025809 -0.508346 -0.860766
vn 0.025260 -0.509826 -0.859906
vn 0.020549 -0.522445 -0.852425
vn 0.019887 -0.524205 -0.851360
vn 0.023130 -0.137790 -0.990191
vn 0.022851 -0.138419 -0.990110
vn 0.020758 -0.143128 -0.989487
vn 0.020454 -0.143812 -0.989394
vn -0.962025 -0.000001 -0.272963
vn -0.962025 0.000000 -0.272961
vn -0.962025 -0.000000 -0.272961
vn -0.962025 0.000000 -0.272962
vn -0.962025 0.000000 -0.272961
vn -0.962025 0.000000 -0.272961
vn -0.962025 -0.000000 -0.272962
vn -0.962025 -0.000000 -0.272962
vn -0.962025 0.000000 -0.272961
vn -0.962025 -0.000001 -0.272961
vn 1.000000 0.000000 0.000000
vn 1.000000 -0.000000 0.000000
vn 1.000000 -0.000000 0.000000
vn 1.000000 0.000000 0.000000
vn 1.000000 -0.000000 0.000000
vn 1.000000 -0.000000 0.000000
vn 1.000000 -0.000000 0.000000
vn 1.000000 -0.000000 0.000000
vn 1.000000 0.000000 0.000000
vn 1.000000 0.000000 0.000000
s 1
g mug1_Physx_23
usemtl initialShadingGroup
f 2/2/1 1/1/2 4/4/3
f 4/4/3 1/1/2 3/3/4
s 2
f 4/4/5 3/3/6 6/6/7
f 6/6/7 3/3/6 5/5/8
s 3
f 6/6/9 5/5/10 8/8/11
f 8/8/11 5/5/10 7/7/12
s 4
f 8/8/13 7/7/14 10/10/15
f 10/10/15 7/7/14 9/9/16
s 5
f 10/10/17 9/9/18 12/12/19
f 12/12/19 9/9/18 11/11/20
s 6
f 11/11/21 13/13/22 12/12/23
f 12/12/23 13/13/22 14/14/24
s 7
f 13/13/25 15/15/26 14/14/27
f 14/14/27 15/15/26 16/16/28
s 8
f 15/15/29 17/17/30 16/16/31
f 16/16/31 17/17/30 18/18/32
s 9
f 17/17/33 19/19/34 18/18/35
f 18/18/35 19/19/34 20/20/36
s 10
f 19/19/37 1/21/38 20/20/39
f 20/20/39 1/21/38 2/22/40
s 11
f 3/3/41 1/21/42 5/5/43
f 1/21/42 19/19/44 5/5/43
f 19/19/44 17/17/45 5/5/43
f 17/17/45 15/15/46 5/5/43
f 15/15/46 13/13/47 5/5/43
f 13/13/47 11/11/48 5/5/43
f 11/11/48 9/9/49 5/5/43
f 9/9/49 7/7/50 5/5/43
s 12
f 4/4/51 6/6/52 2/2/53
f 6/6/52 8/8/54 2/2/53
f 8/8/54 10/10/55 2/2/53
f 10/10/55 12/12/56 2/2/53
f 12/12/56 14/14/57 2/2/53
f 14/14/57 16/16/58 2/2/53
f 16/16/58 18/18/59 2/2/53
f 18/18/59 20/20/60 2/2/53
