# This file uses centimeters as units for non-parametric coordinates.

mtllib mug1_Physx_28.mtl
g default
v -7.016715 0.000000 4.288965
v -7.085525 0.000000 5.291694
v -7.064966 0.399707 4.271012
v -7.136260 0.399707 5.291694
v -7.191291 0.646739 4.224009
v -7.269086 0.646739 5.291694
v -7.347436 0.646739 4.165910
v -7.433267 0.646739 5.291694
v -7.473761 0.399707 4.118907
v -7.566092 0.399707 5.291694
v -7.522012 0.000000 4.100954
v -7.616827 0.000000 5.291694
v -7.473761 -0.399707 4.118907
v -7.566092 -0.399707 5.291694
v -7.347436 -0.646739 4.165910
v -7.433267 -0.646739 5.291694
v -7.191291 -0.646739 4.224009
v -7.269086 -0.646739 5.291694
v -7.064966 -0.399707 4.271012
v -7.136260 -0.399707 5.291694
vt 0.400000 1.000000
vt 0.450000 1.000000
vt 0.400000 0.900000
vt 0.450000 0.900000
vt 0.400000 0.800000
vt 0.450000 0.800000
vt 0.400000 0.700000
vt 0.450000 0.700000
vt 0.400000 0.600000
vt 0.450000 0.600000
vt 0.400000 0.500000
vt 0.450000 0.500000
vt 0.400000 0.400000
vt 0.450000 0.400000
vt 0.400000 0.300000
vt 0.450000 0.300000
vt 0.400000 0.200000
vt 0.450000 0.200000
vt 0.400000 0.100000
vt 0.450000 0.100000
vt 0.400000 -0.000000
vt 0.450000 -0.000000
vn 0.989749 0.125629 0.067920
vn 0.990010 0.122954 0.069018
vn 0.989785 0.125267 0.068069
vn 0.990041 0.122622 0.069154
vn 0.879096 0.472674 0.061404
vn 0.883051 0.464881 0.064082
vn 0.879633 0.471626 0.061765
vn 0.883477 0.464030 0.064373
vn 0.000000 1.000000 0.000000
vn 0.000000 1.000000 -0.000000
vn 0.000000 1.000000 -0.000000
vn 0.000000 1.000000 -0.000000
vn -0.878778 0.472505 -0.066999
vn -0.882412 0.465348 -0.069275
vn -0.879222 0.471637 -0.067275
vn -0.882767 0.464642 -0.069499
vn -0.989029 0.125538 -0.077865
vn -0.989257 0.123207 -0.078687
vn -0.989055 0.125272 -0.077958
vn -0.989280 0.122962 -0.078773
vn -0.989280 -0.122962 -0.078773
vn -0.989257 -0.123207 -0.078687
vn -0.989055 -0.125272 -0.077958
vn -0.989029 -0.125538 -0.077865
vn -0.882767 -0.464642 -0.069499
vn -0.882413 -0.465348 -0.069275
vn -0.879223 -0.471636 -0.067275
vn -0.878779 -0.472504 -0.066999
vn -0.000000 -1.000000 0.000000
vn -0.000000 -1.000000 0.000000
vn -0.000000 -1.000000 -0.000000
vn -0.000000 -1.000000 -0.000000
vn 0.883477 -0.464030 0.064373
vn 0.883051 -0.464881 0.064082
vn 0.879633 -0.471626 0.061765
vn 0.879096 -0.472674 0.061404
vn 0.990041 -0.122622 0.069154
vn 0.990010 -0.122954 0.069018
vn 0.989785 -0.125267 0.068069
vn 0.989749 -0.125629 0.067920
vn 0.348725 0.000001 -0.937225
vn 0.348723 -0.000000 -0.937226
vn 0.348723 -0.000000 -0.937226
vn 0.348723 -0.000000 -0.937226
vn 0.348724 0.000000 -0.937226
vn 0.348723 -0.000000 -0.937226
vn 0.348723 -0.000000 -0.937226
vn 0.348723 0.000000 -0.937226
vn 0.348724 0.000000 -0.937226
vn 0.348723 0.000000 -0.937226
vn 0.000000 0.000000 1.000000
vn 0.000000 0.000000 1.000000
vn 0.000000 0.000000 1.000000
vn -0.000000 0.000000 1.000000
vn 0.000000 0.000000 1.000000
vn 0.000000 0.000000 1.000000
vn -0.000000 0.000000 1.000000
vn -0.000000 0.000000 1.000000
vn 0.000000 0.000000 1.000000
vn 0.000000 0.000000 1.000000
s 1
g mug1_Physx_28
usemtl initialShadingGroup
f 2/2/1 1/1/2 4/4/3
f 4/4/3 1/1/2 3/3/4
s 2
f 4/4/5 3/3/6 6/6/7
f 6/6/7 3/3/6 5/5/8
s 3
f 6/6/9 5/5/10 8/8/11
f 8/8/11 5/5/10 7/7/12
s 4
f 8/8/13 7/7/14 10/10/15
f 10/10/15 7/7/14 9/9/16
s 5
f 10/10/17 9/9/18 12/12/19
f 12/12/19 9/9/18 11/11/20
s 6
f 11/11/21 13/13/22 12/12/23
f 12/12/23 13/13/22 14/14/24
s 7
f 13/13/25 15/15/26 14/14/27
f 14/14/27 15/15/26 16/16/28
s 8
f 15/15/29 17/17/30 16/16/31
f 16/16/31 17/17/30 18/18/32
s 9
f 17/17/33 19/19/34 18/18/35
f 18/18/35 19/19/34 20/20/36
s 10
f 19/19/37 1/21/38 20/20/39
f 20/20/39 1/21/38 2/22/40
s 11
f 3/3/41 1/21/42 5/5/43
f 1/21/42 19/19/44 5/5/43
f 19/19/44 17/17/45 5/5/43
f 17/17/45 15/15/46 5/5/43
f 15/15/46 13/13/47 5/5/43
f 13/13/47 11/11/48 5/5/43
f 11/11/48 9/9/49 5/5/43
f 9/9/49 7/7/50 5/5/43
s 12
f 4/4/51 6/6/52 2/2/53
f 6/6/52 8/8/54 2/2/53
f 8/8/54 10/10/55 2/2/53
f 10/10/55 12/12/56 2/2/53
f 12/12/56 14/14/57 2/2/53
f 14/14/57 16/16/58 2/2/53
f 16/16/58 18/18/59 2/2/53
f 18/18/59 20/20/60 2/2/53
