# This file uses centimeters as units for non-parametric coordinates.

mtllib table_curved_Physx_6.mtl
g default
v 76.625786 -9.287107 73.886360
v 81.625778 -9.287107 73.886360
v 76.625786 -9.287107 74.886360
v 81.625778 -9.287107 74.886360
v 76.625786 33.463402 73.886353
v 76.625786 33.463398 74.886353
v 81.625778 33.463398 74.886353
v 81.625778 33.463402 73.886353
vt 0.375000 0.000000
vt 0.625000 0.000000
vt 0.625000 0.250000
vt 0.375000 0.250000
vt 0.625000 1.000000
vt 0.375000 1.000000
vt 0.259518 0.363801
vt 0.259518 0.405235
vt 0.144036 0.250000
vt 0.375000 0.480964
vt 0.625000 0.480964
vt 0.855964 0.250000
vt 0.740482 0.405235
vt 0.740482 0.363801
vn 0.000000 -1.000000 -0.000002
vn 0.000000 -1.000000 -0.000000
vn 0.000000 -1.000000 -0.000001
vn 0.000000 -1.000000 0.000000
vn -1.000000 -0.000000 0.000000
vn -1.000000 -0.000000 0.000000
vn -1.000000 -0.000000 0.000000
vn -1.000000 0.000000 0.000000
vn 0.000000 0.000000 1.000000
vn 0.000000 0.000000 1.000000
vn 0.000000 0.000000 1.000000
vn 0.000000 0.000000 1.000000
vn 1.000000 0.000000 0.000000
vn 1.000000 0.000000 0.000000
vn 1.000000 0.000000 0.000000
vn 1.000000 0.000000 0.000000
vn 0.000000 -0.000000 -1.000000
vn 0.000000 -0.000000 -1.000000
vn 0.000000 -0.000000 -1.000000
vn 0.000000 -0.000000 -1.000000
vn 0.000000 1.000000 0.000006
vn 0.000000 1.000000 0.000001
vn 0.000000 1.000000 0.000005
vn 0.000000 1.000000 0.000000
s 1
g table_curved_Physx_6
usemtl initialShadingGroup
f 1/1/1 2/2/2 3/4/3
f 3/4/3 2/2/2 4/3/4
s 2
f 6/9/5 5/7/6 3/4/7
f 3/4/7 5/7/6 1/1/8
s 3
f 3/4/9 4/3/10 6/10/11
f 6/10/11 4/3/10 7/11/12
s 4
f 2/2/13 8/14/14 4/3/15
f 4/3/15 8/14/14 7/12/16
s 5
f 5/8/17 8/13/18 1/6/19
f 1/6/19 8/13/18 2/5/20
s 6
f 6/10/21 7/12/22 5/7/23
f 5/7/23 7/12/22 8/13/24
