# This file uses centimeters as units for non-parametric coordinates.

mtllib table_curved_Physx_3.mtl
g default
v -22.564796 -22.370075 77.999992
v -22.564796 40.000000 77.999992
v -22.564796 40.000004 75.000000
v -22.564796 -22.370083 75.000000
v -12.313996 -18.810099 77.999992
v -12.313996 40.000000 77.999992
v -12.313996 40.000004 75.000000
v -12.313996 -18.810099 75.000000
vt 0.476046 0.250000
vt 0.476046 0.500000
vt 0.476046 0.750000
vt 0.476046 0.000000
vt 0.476046 1.000000
vt 0.493131 0.250000
vt 0.493131 0.500000
vt 0.493131 0.750000
vt 0.493131 0.000000
vt 0.493131 1.000000
vn 0.000000 0.000000 1.000000
vn 0.000000 0.000000 1.000000
vn 0.000000 0.000000 1.000000
vn 0.000000 0.000000 1.000000
vn 0.000000 1.000000 0.000002
vn 0.000000 1.000000 0.000002
vn 0.000000 1.000000 0.000000
vn 0.000000 1.000000 0.000000
vn 0.000001 0.000000 -1.000000
vn 0.000000 0.000000 -1.000000
vn 0.000001 0.000000 -1.000000
vn 0.000000 0.000000 -1.000000
vn 0.328064 -0.944655 0.000002
vn 0.328065 -0.944655 0.000002
vn 0.328069 -0.944654 0.000000
vn 0.328069 -0.944654 0.000000
vn -1.000000 0.000000 0.000000
vn -1.000000 0.000000 0.000000
vn -1.000000 0.000000 0.000000
vn -1.000000 0.000000 0.000000
vn 1.000000 0.000000 0.000000
vn 1.000000 0.000000 0.000000
vn 1.000000 0.000000 0.000000
vn 1.000000 0.000000 0.000000
s 1
g table_curved_Physx_3
usemtl initialShadingGroup
f 1/1/1 5/6/2 2/2/3
f 2/2/3 5/6/2 6/7/4
s 2
f 3/3/5 2/2/6 7/8/7
f 7/8/7 2/2/6 6/7/8
s 3
f 4/5/9 3/3/10 8/10/11
f 8/10/11 3/3/10 7/8/12
s 4
f 1/1/13 4/4/14 5/6/15
f 5/6/15 4/4/14 8/9/16
s 5
f 2/2/17 3/3/18 1/1/19
f 1/1/19 3/3/18 4/4/20
s 6
f 6/7/21 5/6/22 7/8/23
f 7/8/23 5/6/22 8/10/24
